<?xml version="1.0" encoding="UTF-8" standalone="no"?>
<svg
   xmlns:dc="http://purl.org/dc/elements/1.1/"
   xmlns:cc="http://creativecommons.org/ns#"
   xmlns:rdf="http://www.w3.org/1999/02/22-rdf-syntax-ns#"
   xmlns:svg="http://www.w3.org/2000/svg"
   xmlns="http://www.w3.org/2000/svg"
   viewBox="0 0 334.02667 454.48001"
   height="454.48001"
   width="334.02667"
   xml:space="preserve"
   id="svg2"
   version="1.1"><metadata
     id="metadata8"><rdf:RDF><cc:Work
         rdf:about=""><dc:format>image/svg+xml</dc:format><dc:type
           rdf:resource="http://purl.org/dc/dcmitype/StillImage" /></cc:Work></rdf:RDF></metadata><defs
     id="defs6" /><g
     transform="matrix(1.3333333,0,0,-1.3333333,0,454.48)"
     id="g10"><g
       transform="scale(0.1)"
       id="g12"><path
         id="path14"
         style="fill:#ffffff;fill-opacity:1;fill-rule:nonzero;stroke:none"
         d="m 561.488,2350.35 c 34.278,0 56.289,26.47 56.289,61.02 0,34.83 -22.011,61.02 -56.289,61.02 -34.543,0 -56.554,-26.19 -56.554,-61.02 0,-34.55 22.011,-61.02 56.554,-61.02" /><path
         id="path16"
         style="fill:#ffffff;fill-opacity:1;fill-rule:nonzero;stroke:none"
         d="m 1756.06,2464.87 -28.99,-79.97 h 57.96 z" /><path
         id="path18"
         style="fill:#ffffff;fill-opacity:1;fill-rule:nonzero;stroke:none"
         d="m 1605.16,2858.78 c 0,44.08 -31.9,73.65 -77.71,73.65 h -101.48 v -147.87 h 101.48 c 45.81,0 77.71,30.73 77.71,74.22" /><path
         id="path20"
         style="fill:#ffffff;fill-opacity:1;fill-rule:nonzero;stroke:none"
         d="m 2015.1,2926.05 -81.76,-208.76 h 164.11 z" /><path
         id="path22"
         style="fill:#ffffff;fill-opacity:1;fill-rule:nonzero;stroke:none"
         d="m 1370.69,2444.8 c 0,15.33 -11.99,24.8 -27.59,24.8 h -41.8 v -50.15 h 41.8 c 15.6,0 27.59,9.47 27.59,25.35" /><path
         id="path24"
         style="fill:#ffffff;fill-opacity:1;fill-rule:nonzero;stroke:none"
         d="m 1136.9,2350.35 c 34.27,0 56.29,26.47 56.29,61.02 0,34.83 -22.02,61.02 -56.29,61.02 -34.54,0 -56.56,-26.19 -56.56,-61.02 0,-34.55 22.02,-61.02 56.56,-61.02" /><path
         id="path26"
         style="fill:#ffffff;fill-opacity:1;fill-rule:nonzero;stroke:none"
         d="M 2433.23,72.0117 H 71.9961 V 2176.08 H 2433.23 Z M 372.016,2507.49 c 40.683,0 64.363,-22.01 77.461,-45.41 l -33.997,-16.72 c -7.8,15.05 -24.519,27.03 -43.464,27.03 -33.996,0 -58.508,-25.91 -58.508,-61.02 0,-35.11 24.512,-61.02 58.508,-61.02 18.945,0 35.664,11.98 43.464,27.03 l 33.997,-16.44 c -13.098,-23.13 -36.778,-45.7 -77.461,-45.7 -56.008,0 -99.192,39.01 -99.192,96.13 0,57.4 43.184,96.12 99.192,96.12 z m -67.473,467.85 h 253.418 v -42.91 H 352.668 v -124.68 h 201.23 v -42.91 h -201.23 v -133.38 h 205.293 v -42.91 H 304.543 Z m 353.906,-563.97 c 0,-56.01 -40.957,-96.13 -96.961,-96.13 -56.281,0 -97.238,40.12 -97.238,96.13 0,56 40.957,96.12 97.238,96.12 56.004,0 96.961,-40.12 96.961,-96.12 z m 194.231,93.06 v -185.84 h -38.176 l -88.594,121.2 v -121.2 h -39.57 v 185.84 h 40.683 l 86.094,-116.75 v 116.75 z m -34.953,477.29 c 69.003,0 116.562,-30.15 150.195,-71.91 l -38.27,-24.35 c -24.367,31.31 -65.539,53.35 -111.925,53.35 -84.668,0 -149.043,-64.37 -149.043,-157.15 0,-91.63 64.375,-157.16 149.043,-157.16 46.386,0 84.66,22.04 104.386,41.75 v 78.29 H 788.734 v 42.91 H 969.66 v -139.17 c -35.957,-40.6 -88.719,-67.27 -151.933,-67.27 -110.184,0 -198.914,80.61 -198.914,200.65 0,120.61 88.73,200.06 198.914,200.06 z m 187.153,383.42 c 0,14.38 11.69,26.08 26.08,26.08 h 445.24 c 14.38,0 26.08,-11.7 26.08,-26.08 v -207.9 c 0,-14.38 -11.7,-26.08 -26.08,-26.08 h -445.24 c -14.39,0 -26.08,11.7 -26.08,26.08 z m 256.86,-860.71 h 86.93 c 38.73,0 62.69,-25.36 62.69,-59.91 0,-32.59 -20.9,-50.43 -40.96,-55.16 l 42.07,-70.77 h -45.69 l -36.49,66.03 h -28.99 v -66.03 h -39.56 z m -27.88,-93.06 c 0,-56.01 -40.96,-96.13 -96.96,-96.13 -56.28,0 -97.24,40.12 -97.24,96.13 0,56 40.96,96.12 97.24,96.12 56,0 96.96,-40.12 96.96,-96.12 z m -185.95,177.18 v 386.79 h 253.42 v -42.91 h -205.29 v -124.68 h 201.23 v -42.91 h -201.23 v -133.38 h 205.29 v -42.91 z m -28.88,-157.96 v -34.83 h -89.995 v -77.17 h -39.57 v 185.84 h 131.515 v -34.83 h -91.945 v -39.01 z m 531.1,-112 h -17.28 l -52.37,134.02 v -134.02 h -39.57 v 185.84 h 55.45 l 45.14,-116.19 45.13,116.19 h 55.73 v -185.84 h -39.85 v 134.02 z m -16.88,656.75 c 70.75,0 121.78,-45.22 121.78,-116.56 0,-69.58 -48.13,-107.86 -100.9,-112.5 l 104.38,-157.73 h -56.83 l -98,153.67 h -77.71 v -153.67 h -48.13 v 386.79 z m 198,-470.91 h 49.6 l 71.6,-185.84 h -44.85 l -11.7,31.48 h -79.69 l -11.71,-31.48 h -44.85 z m -0.28,470.91 h 48.12 v -386.79 h -48.12 z m 305.11,-470.91 v -185.84 h -38.18 l -88.59,121.2 v -121.2 h -39.57 v 185.84 h 40.68 l 86.1,-116.75 v 116.75 z m -50.56,470.91 h 59.74 l 155.41,-386.79 h -55.08 l -34.22,86.4 h -192.53 l -34.22,-86.4 h -55.09 z m 75.93,-505.74 v 34.83 h 148.23 v -34.83 h -54.05 v -151.01 h -39.85 v 151.01 z m 257.77,808.54 h -803.45 v 87 c 0,11.8 -5.28,22.28 -13.49,29.54 -0.06,0.05 -0.13,0.1 -0.19,0.16 -6.96,6.07 -15.94,9.88 -25.89,9.88 h -445.24 c -9.94,0 -18.93,-3.81 -25.89,-9.88 -0.06,-0.06 -0.13,-0.11 -0.19,-0.16 -8.208,-7.26 -13.501,-17.74 -13.501,-29.54 v -87 H 186 c -102.5586,0 -185.99609375,-83.44 -185.99609375,-186 V 0.0117188 H 2505.22 V 3092.14 c 0,102.56 -83.44,186 -186,186" /><path
         id="path28"
         style="fill:#ffffff;fill-opacity:1;fill-rule:nonzero;stroke:none"
         d="m 1122.58,3301.68 c 17.85,0 27.73,-8.67 27.73,-24.78 v -38.13 c 0,-16.11 -9.88,-24.78 -27.73,-24.78 -17.67,0 -27.72,8.67 -27.72,24.78 v 38.13 c 0,16.11 10.05,24.78 27.72,24.78 z m -49.56,-24.96 v -37.77 c 0,-27.9 17.68,-45.23 49.56,-45.23 31.72,0 49.4,17.33 49.4,45.23 v 37.77 c 0,27.9 -17.68,45.23 -49.4,45.23 -31.88,0 -49.56,-17.33 -49.56,-45.23" /><path
         id="path30"
         style="fill:#ffffff;fill-opacity:1;fill-rule:nonzero;stroke:none"
         d="m 1235.56,3299.07 c 18.19,0 28.42,-8.83 28.42,-25.29 v -31.89 c 0,-16.46 -10.23,-25.3 -28.42,-25.3 h -23.21 v 82.48 z m -45.05,-96.86 c 0,-4.33 1.55,-5.89 5.89,-5.89 h 38.99 c 32.23,0 50.25,17.5 50.25,45.75 v 31.54 c 0,28.24 -18.02,45.74 -50.25,45.74 h -38.99 c -4.34,0 -5.89,-1.56 -5.89,-5.89 v -111.25" /><path
         id="path32"
         style="fill:#ffffff;fill-opacity:1;fill-rule:nonzero;stroke:none"
         d="m 1353.91,3299.07 c 12.65,0 20.27,-7.44 20.27,-19.92 0,-12.48 -7.62,-19.76 -20.27,-19.76 h -28.08 v 39.68 z m -49.9,-96.86 c 0,-4.33 1.55,-5.89 5.89,-5.89 h 9.87 c 4.51,0 5.9,1.56 5.9,5.89 v 36.91 h 30.14 c 25.31,0 40.9,14.9 40.9,40.03 0,25.12 -15.77,40.2 -40.9,40.2 h -45.91 c -4.34,0 -5.89,-1.56 -5.89,-5.89 v -111.25" /><path
         id="path34"
         style="fill:#ffffff;fill-opacity:1;fill-rule:nonzero;stroke:none"
         d="m 1427.89,3286.08 h -9.35 c -3.99,0 -5.37,-1.21 -5.37,-5.2 v -79.19 c 0,-3.99 1.38,-5.37 5.37,-5.37 h 9.35 c 3.99,0 5.37,1.38 5.37,5.37 v 79.19 c 0,3.99 -1.38,5.2 -5.37,5.2" /><path
         id="path36"
         style="fill:#ffffff;fill-opacity:1;fill-rule:nonzero;stroke:none"
         d="m 1422.52,3297.17 h 1.22 c 7.97,0 10.39,2.6 10.39,10.57 v 1.56 c 0,7.97 -2.42,10.4 -10.39,10.4 h -1.22 c -7.97,0 -10.56,-2.43 -10.56,-10.4 v -1.56 c 0,-7.97 2.59,-10.57 10.56,-10.57" /><path
         id="path38"
         style="fill:#ffffff;fill-opacity:1;fill-rule:nonzero;stroke:none"
         d="m 1809.48,473.809 c 6.2,-4.161 13.22,-6.157 20.16,-6.157 11.66,0 23.12,5.629 30.11,16.047 l 410.66,611.911 c 8.21,12.21 8.21,28.17 0,40.37 l -410.66,611.92 c -11.15,16.61 -33.67,21.03 -50.27,9.9 -16.62,-11.16 -21.03,-33.66 -9.88,-50.27 L 2196.71,1115.8 1799.6,524.07 c -11.15,-16.609 -6.74,-39.109 9.88,-50.261" /><path
         id="path40"
         style="fill:#ffffff;fill-opacity:1;fill-rule:nonzero;stroke:none"
         d="m 638.703,483.699 c 6.985,-10.418 18.43,-16.047 30.098,-16.047 6.945,0 13.965,1.996 20.168,6.157 16.609,11.152 21.035,33.652 9.883,50.261 L 301.73,1115.8 698.852,1707.53 c 11.152,16.61 6.726,39.11 -9.883,50.27 -16.602,11.12 -39.114,6.72 -50.266,-9.9 L 228.031,1135.98 c -8.195,-12.2 -8.195,-28.16 0,-40.37 L 638.703,483.699" /><path
         id="path42"
         style="fill:#ffffff;fill-opacity:1;fill-rule:nonzero;stroke:none"
         d="m 1534.1,1048.9 c -16.49,0.8 -31.26,-13.3 -31.59,-30.42 -0.96,-51.289 -14.63,-55.351 -24.6,-58.32 -24.06,-7.031 -176.17,3.512 -296.49,17.641 -0.03,0.008 -0.06,0.008 -0.09,0.008 -0.22,0.031 -0.46,0.05 -0.67,0.082 -3.98,0.468 -7.77,1.32 -11.43,2.418 -54.62,12.972 -109.58,111.771 -110.22,112.941 -0.03,-0.01 -0.06,-0.01 -0.09,-0.02 -11.33,-55.64 5.12,-96.921 19.61,-120.66 14.93,-18.761 34.3,-36.269 59.26,-46.851 -28.26,-100.168 -21.91,-198.528 -7.91,-273.008 11.85,-46.141 39.36,-127.512 83.63,-142.492 -48.19,88.82 -30.34,349.863 -14.72,403.242 51.25,-5.531 168.51,-17.242 242.1,-17.242 24.33,0 43.88,1.293 54.68,4.492 60.19,17.879 68.17,75.121 68.95,116.609 0.33,17.12 -13.29,31.26 -30.42,31.58" /><path
         id="path44"
         style="fill:#ffffff;fill-opacity:1;fill-rule:nonzero;stroke:none"
         d="m 1094.79,413.379 c 93.85,-83.547 168.53,-150.359 173.49,-266.367 h 62.03 c -5.02,143.797 -96.9,226.019 -194.28,312.687 -116.94,104.102 -249.475,222.071 -259.522,481.16 -19.836,511.441 245.232,695.941 458.212,844.211 45.93,31.96 89.04,62.01 125.82,93.18 19.94,-34.85 33.07,-70.82 38.85,-107.29 20.7,-130.43 13.42,-158.22 8.09,-178.51 -3.83,-14.6 -7.78,-29.7 -3.97,-61.1 9.32,-76.76 58.09,-144.92 130.47,-182.29 4.1,-2.12 4.32,-3.41 4.48,-4.18 2.28,-12.43 -14.85,-41.94 -31.62,-60.61 -11.49,-12.71 -10.5,-32.32 2.21,-43.81 5.92,-5.36 13.36,-8.01 20.78,-8.01 8.46,0 16.9,3.44 23.02,10.21 9.35,10.34 55.51,64.36 46.64,113.28 -2.66,14.65 -11.24,34.9 -37.05,48.24 -54.1,27.94 -90.49,78.28 -97.35,134.64 -2.38,19.65 -0.68,26.13 2.4,37.91 7.08,27.02 15.9,60.67 -6.85,203.95 -7.7,48.58 -25.94,96.06 -54.04,141.4 24.02,26.13 43.07,53.83 55.14,84.72 6.23,15.96 -1.65,33.94 -17.61,40.18 -16.02,6.23 -33.95,-1.66 -40.18,-17.61 -27.32,-69.93 -109.49,-127.16 -204.68,-193.4 -213.5,-148.62 -505.899,-352.16 -484.747,-897.521 11.075,-285.457 160.332,-418.32 280.267,-525.07" /><path
         id="path46"
         style="fill:#ffffff;fill-opacity:1;fill-rule:nonzero;stroke:none"
         d="m 1359.78,1492.06 c 6.28,1.23 15.31,1.3 23.6,0.62 9.78,-0.86 20.36,-3.17 31.75,-6.67 1.33,-3.47 2.14,-7.21 2.14,-11.15 0,-17.31 -14.03,-31.34 -31.34,-31.34 -17.3,0 -31.34,14.03 -31.34,31.34 0,6.36 1.93,12.26 5.19,17.2 z m 19.21,-95.76 c 37.59,0 68.06,30.47 68.06,68.06 0,11.24 -2.98,21.68 -7.8,31.02 -7.46,17.48 -21.21,32.6 -39.12,42.93 -12.7,6.99 -25.93,11.47 -42.19,12.35 -17.31,0.74 -32.49,-4.13 -44.3,-9.28 -24.11,-10.8 -40.21,-23.66 -54.23,-30.71 -7.05,-3.9 -13.51,-6.12 -22.9,-6.46 -4.76,-0.6 -9.66,0.61 -15.38,1.25 -5.61,0.95 -11.1,3.02 -17.82,4.31 3.34,-12.36 9.66,-24.71 21.42,-33.68 11.21,-9.28 28.29,-14.34 43.39,-13.41 16.95,0.92 31.28,5.33 43.67,10.27 -0.36,-2.85 -0.87,-5.65 -0.87,-8.59 0,-37.59 30.48,-68.06 68.07,-68.06" /><path
         id="path48"
         style="fill:#ffffff;fill-opacity:1;fill-rule:nonzero;stroke:none"
         d="m 1604.66,1211.42 c -20,6.3 -41.93,4.27 -61.2,-2.5 -4.51,-1.52 -10.44,-4.14 -13.56,-5.54 -3.18,-1.5 -6.72,-3.01 -10.3,-4.49 l -22.16,-8.84 -45.53,-17.52 -45,-17.33 36.34,-34.62 c 8.04,-7.64 16.38,-14.93 25.05,-21.86 4.38,-3.42 8.68,-6.93 13.27,-10.12 4.59,-3.33 8.31,-6.14 16.06,-10.83 13.79,-8.32 31.51,-11.38 46.39,-8.04 14.85,3.53 27.17,12 33.8,24.28 -13.51,2.08 -24.03,5.81 -31.69,10.4 -7.62,4.97 -12.03,9.97 -15.88,15.83 -1.11,2.33 -5.69,7.18 -9.51,11.35 -1.13,1.27 -2.37,2.42 -3.53,3.65 1.44,0.74 2.89,1.38 4.32,2.14 7.71,4 15.4,8.19 23.09,12.98 3.88,2.36 7.75,4.77 11.79,7.52 4.15,2.75 5.45,4.38 8.53,6.43 10.8,7.72 22.79,13.68 36.21,16.17 6.73,1.28 13.95,1.46 21.68,0.48 7.7,-1.12 15.63,-3.72 24.17,-7 -6.78,16.62 -22.26,31.42 -42.34,37.46" /></g></g></svg>