<?xml version="1.0" encoding="UTF-8" standalone="no"?>
<svg
   xmlns:dc="http://purl.org/dc/elements/1.1/"
   xmlns:cc="http://creativecommons.org/ns#"
   xmlns:rdf="http://www.w3.org/1999/02/22-rdf-syntax-ns#"
   xmlns:svg="http://www.w3.org/2000/svg"
   xmlns="http://www.w3.org/2000/svg"
   viewBox="0 0 334.02667 454.48001"
   height="454.48001"
   width="334.02667"
   xml:space="preserve"
   id="svg2"
   version="1.1"><metadata
     id="metadata8"><rdf:RDF><cc:Work
         rdf:about=""><dc:format>image/svg+xml</dc:format><dc:type
           rdf:resource="http://purl.org/dc/dcmitype/StillImage" /></cc:Work></rdf:RDF></metadata><defs
     id="defs6" /><g
     transform="matrix(1.3333333,0,0,-1.3333333,0,454.48)"
     id="g10"><g
       transform="scale(0.1)"
       id="g12"><path
         id="path14"
         style="fill:#ffffff;fill-opacity:1;fill-rule:nonzero;stroke:none"
         d="M 1508.11,3128.23 H 1007.4 v 263 h 500.71 v -263" /><path
         id="path16"
         style="fill:#ffffff;fill-opacity:1;fill-rule:nonzero;stroke:none"
         d="M 2437.4,3131.16 H 36.9844 V 43.8086 H 2437.4 V 3131.16" /><path
         id="path18"
         style="fill:#231f20;fill-opacity:1;fill-rule:nonzero;stroke:none"
         d="m 561.496,2350.35 c 34.277,0 56.289,26.47 56.289,61.02 0,34.83 -22.012,61.02 -56.289,61.02 -34.539,0 -56.551,-26.19 -56.551,-61.02 0,-34.55 22.012,-61.02 56.551,-61.02" /><path
         id="path20"
         style="fill:#231f20;fill-opacity:1;fill-rule:nonzero;stroke:none"
         d="m 1756.07,2464.87 -28.99,-79.97 h 57.96 z" /><path
         id="path22"
         style="fill:#231f20;fill-opacity:1;fill-rule:nonzero;stroke:none"
         d="m 1605.17,2858.79 c 0,44.07 -31.9,73.65 -77.71,73.65 h -101.48 v -147.89 h 101.48 c 45.81,0 77.71,30.74 77.71,74.24" /><path
         id="path24"
         style="fill:#231f20;fill-opacity:1;fill-rule:nonzero;stroke:none"
         d="m 2015.11,2926.05 -81.76,-208.76 h 164.1 z" /><path
         id="path26"
         style="fill:#231f20;fill-opacity:1;fill-rule:nonzero;stroke:none"
         d="m 1370.7,2444.8 c 0,15.33 -11.99,24.81 -27.59,24.81 h -41.8 v -50.16 h 41.8 c 15.6,0 27.59,9.47 27.59,25.35" /><path
         id="path28"
         style="fill:#231f20;fill-opacity:1;fill-rule:nonzero;stroke:none"
         d="m 1136.91,2350.35 c 34.27,0 56.29,26.47 56.29,61.02 0,34.83 -22.02,61.02 -56.29,61.02 -34.54,0 -56.56,-26.19 -56.56,-61.02 0,-34.55 22.02,-61.02 56.56,-61.02" /><path
         id="path30"
         style="fill:#231f20;fill-opacity:1;fill-rule:nonzero;stroke:none"
         d="M 2433.23,72.0117 H 71.9961 V 2176.08 H 2433.23 Z M 372.023,2507.5 c 40.684,0 64.368,-22.02 77.461,-45.43 l -33.992,-16.71 c -7.804,15.05 -24.523,27.03 -43.469,27.03 -33.992,0 -58.503,-25.91 -58.503,-61.02 0,-35.11 24.511,-61.02 58.503,-61.02 18.946,0 35.665,11.98 43.469,27.03 l 33.992,-16.45 c -13.093,-23.12 -36.777,-45.69 -77.461,-45.69 -56.003,0 -99.187,39.01 -99.187,96.13 0,57.4 43.184,96.13 99.187,96.13 z m -67.468,467.85 h 253.418 v -42.91 H 352.68 v -124.69 h 201.23 v -42.91 H 352.68 v -133.38 h 205.293 v -42.91 H 304.555 Z m 353.906,-563.98 c 0,-56 -40.957,-96.13 -96.965,-96.13 -56.277,0 -97.234,40.13 -97.234,96.13 0,56 40.957,96.13 97.234,96.13 56.008,0 96.965,-40.13 96.965,-96.13 z m 194.227,93.06 v -185.84 h -38.172 l -88.594,121.2 v -121.2 h -39.57 v 185.84 h 40.683 l 86.094,-116.75 v 116.75 z m -34.961,477.29 c 69.015,0 116.574,-30.15 150.207,-71.91 l -38.282,-24.35 c -24.355,31.31 -65.527,53.35 -111.925,53.35 -84.668,0 -149.032,-64.37 -149.032,-157.15 0,-91.62 64.364,-157.15 149.032,-157.15 46.398,0 84.668,22.03 104.386,41.74 v 78.3 H 788.742 v 42.91 h 180.93 v -139.18 c -35.957,-40.6 -88.723,-67.27 -151.945,-67.27 -110.184,0 -198.907,80.61 -198.907,200.65 0,120.61 88.723,200.06 198.907,200.06 z m 187.163,383.42 c 0,14.39 11.69,26.09 26.08,26.09 h 445.24 c 14.38,0 26.08,-11.7 26.08,-26.09 v -207.9 c 0,-14.38 -11.7,-26.08 -26.08,-26.08 h -445.24 c -14.39,0 -26.08,11.7 -26.08,26.08 z m 256.86,-860.71 h 86.93 c 38.73,0 62.69,-25.35 62.69,-59.9 0,-32.6 -20.9,-50.43 -40.96,-55.17 l 42.07,-70.77 h -45.69 l -36.49,66.03 h -28.99 v -66.03 h -39.56 z m -27.88,-93.06 c 0,-56 -40.96,-96.13 -96.96,-96.13 -56.28,0 -97.24,40.13 -97.24,96.13 0,56 40.96,96.13 97.24,96.13 56,0 96.96,-40.13 96.96,-96.13 z m -185.95,177.18 v 386.8 h 253.41 v -42.91 h -205.28 v -124.69 h 201.23 v -42.91 h -201.23 v -133.38 h 205.28 v -42.91 z m -28.88,-157.96 v -34.82 h -89.993 v -77.18 h -39.57 v 185.84 h 131.513 v -34.82 h -91.943 v -39.02 z m 531.1,-112 h -17.28 l -52.37,134.01 v -134.01 h -39.57 v 185.84 h 55.45 l 45.14,-116.18 45.13,116.18 h 55.73 v -185.84 h -39.85 v 134.01 z m -16.88,656.76 c 70.75,0 121.78,-45.24 121.78,-116.56 0,-69.59 -48.13,-107.87 -100.9,-112.5 l 104.38,-157.74 h -56.83 l -98.01,153.67 h -77.7 v -153.67 h -48.13 v 386.8 z m 198,-470.92 h 49.6 l 71.6,-185.84 h -44.85 l -11.7,31.48 h -79.69 l -11.71,-31.48 h -44.85 z m -0.28,470.92 h 48.12 v -386.8 h -48.12 z m 305.11,-470.92 v -185.84 h -38.18 l -88.59,121.2 v -121.2 h -39.57 v 185.84 h 40.68 l 86.1,-116.75 v 116.75 z m -50.56,470.92 h 59.74 l 155.41,-386.8 h -55.08 l -34.22,86.41 h -192.54 l -34.21,-86.41 h -55.1 z m 75.93,-505.74 v 34.82 h 148.23 v -34.82 h -54.05 v -151.02 h -39.85 v 151.02 z m 257.76,808.53 h -803.44 v 87 c 0,11.8 -5.28,22.28 -13.49,29.54 -0.06,0.05 -0.13,0.1 -0.2,0.16 -6.95,6.07 -15.94,9.88 -25.88,9.88 h -445.24 c -9.94,0 -18.94,-3.81 -25.89,-9.88 -0.07,-0.06 -0.13,-0.11 -0.19,-0.16 -8.206,-7.26 -13.499,-17.74 -13.499,-29.54 v -87 H 186 C 83.4414,3278.14 0.00390625,3194.69 0.00390625,3092.13 V 0 H 2505.22 v 3092.13 c 0,102.56 -83.44,186.01 -186,186.01" /><path
         id="path32"
         style="fill:#231f20;fill-opacity:1;fill-rule:nonzero;stroke:none"
         d="m 1122.59,3301.68 c 17.85,0 27.73,-8.67 27.73,-24.78 v -38.13 c 0,-16.11 -9.88,-24.78 -27.73,-24.78 -17.68,0 -27.72,8.67 -27.72,24.78 v 38.13 c 0,16.11 10.04,24.78 27.72,24.78 z m -49.56,-24.96 v -37.77 c 0,-27.9 17.68,-45.24 49.56,-45.24 31.71,0 49.39,17.34 49.39,45.24 v 37.77 c 0,27.91 -17.68,45.23 -49.39,45.23 -31.88,0 -49.56,-17.32 -49.56,-45.23" /><path
         id="path34"
         style="fill:#231f20;fill-opacity:1;fill-rule:nonzero;stroke:none"
         d="m 1235.57,3299.08 c 18.19,0 28.42,-8.84 28.42,-25.31 v -31.88 c 0,-16.46 -10.23,-25.29 -28.42,-25.29 h -23.22 v 82.48 z m -45.06,-96.87 c 0,-4.33 1.56,-5.9 5.9,-5.9 h 38.98 c 32.24,0 50.26,17.51 50.26,45.76 v 31.54 c 0,28.24 -18.02,45.74 -50.26,45.74 h -38.98 c -4.34,0 -5.9,-1.56 -5.9,-5.89 v -111.25" /><path
         id="path36"
         style="fill:#231f20;fill-opacity:1;fill-rule:nonzero;stroke:none"
         d="m 1353.92,3299.08 c 12.65,0 20.27,-7.45 20.27,-19.94 0,-12.46 -7.62,-19.75 -20.27,-19.75 h -28.08 v 39.69 z m -49.91,-96.87 c 0,-4.33 1.56,-5.9 5.89,-5.9 h 9.88 c 4.5,0 5.9,1.57 5.9,5.9 v 36.91 h 30.14 c 25.31,0 40.9,14.9 40.9,40.02 0,25.13 -15.77,40.21 -40.9,40.21 h -45.92 c -4.33,0 -5.89,-1.56 -5.89,-5.89 v -111.25" /><path
         id="path38"
         style="fill:#231f20;fill-opacity:1;fill-rule:nonzero;stroke:none"
         d="m 1427.9,3286.08 h -9.35 c -3.99,0 -5.37,-1.21 -5.37,-5.2 v -79.18 c 0,-4 1.38,-5.39 5.37,-5.39 h 9.35 c 3.99,0 5.37,1.39 5.37,5.39 v 79.18 c 0,3.99 -1.38,5.2 -5.37,5.2" /><path
         id="path40"
         style="fill:#231f20;fill-opacity:1;fill-rule:nonzero;stroke:none"
         d="m 1422.53,3297.17 h 1.21 c 7.97,0 10.4,2.6 10.4,10.57 v 1.56 c 0,7.97 -2.43,10.39 -10.4,10.39 h -1.21 c -7.97,0 -10.56,-2.42 -10.56,-10.39 v -1.56 c 0,-7.97 2.59,-10.57 10.56,-10.57" /><path
         id="path42"
         style="fill:#231f20;fill-opacity:1;fill-rule:nonzero;stroke:none"
         d="m 1809.49,473.801 c 6.2,-4.153 13.22,-6.149 20.16,-6.149 11.65,0 23.12,5.637 30.1,16.047 l 410.67,611.921 c 8.2,12.21 8.2,28.15 0,40.36 l -410.67,611.91 c -11.15,16.63 -33.66,21.04 -50.26,9.91 -16.62,-11.16 -21.04,-33.66 -9.89,-50.27 L 2196.72,1115.8 1799.6,524.07 c -11.15,-16.609 -6.73,-39.109 9.89,-50.269" /><path
         id="path44"
         style="fill:#231f20;fill-opacity:1;fill-rule:nonzero;stroke:none"
         d="m 638.703,483.699 c 6.992,-10.41 18.438,-16.047 30.11,-16.047 6.941,0 13.964,1.996 20.164,6.149 16.613,11.16 21.027,33.66 9.875,50.269 l -397.11,591.73 397.11,591.73 c 11.152,16.61 6.738,39.11 -9.875,50.27 -16.602,11.12 -39.122,6.72 -50.274,-9.91 L 228.039,1135.98 c -8.203,-12.21 -8.203,-28.15 0,-40.36 L 638.703,483.699" /><path
         id="path46"
         style="fill:#231f20;fill-opacity:1;fill-rule:nonzero;stroke:none"
         d="m 1534.1,1048.9 c -16.48,0.8 -31.25,-13.3 -31.58,-30.42 -0.96,-51.289 -14.63,-55.351 -24.6,-58.308 -24.06,-7.043 -176.18,3.5 -296.49,17.629 -0.03,0.008 -0.07,0.008 -0.1,0.019 -0.21,0.02 -0.45,0.051 -0.66,0.071 -3.98,0.461 -7.78,1.308 -11.43,2.418 -54.62,12.972 -109.58,111.761 -110.23,112.941 -0.02,-0.01 -0.05,-0.01 -0.08,-0.01 -11.33,-55.66 5.12,-96.939 19.61,-120.681 14.93,-18.758 34.3,-36.258 59.25,-46.84 -28.25,-100.168 -21.9,-198.528 -7.9,-273.008 11.85,-46.141 39.36,-127.512 83.63,-142.492 -48.2,88.82 -30.34,349.851 -14.72,403.242 51.25,-5.531 168.51,-17.242 242.1,-17.242 24.33,0 43.88,1.281 54.68,4.492 60.18,17.879 68.17,75.109 68.95,116.609 0.33,17.12 -13.29,31.27 -30.43,31.58" /><path
         id="path48"
         style="fill:#231f20;fill-opacity:1;fill-rule:nonzero;stroke:none"
         d="m 1094.79,413.379 c 93.86,-83.547 168.54,-150.367 173.5,-266.367 h 62.03 c -5.02,143.797 -96.91,226.019 -194.29,312.687 -116.93,104.09 -249.464,222.063 -259.514,481.153 -19.844,511.448 245.224,695.948 458.214,844.208 45.93,31.98 89.04,62.01 125.81,93.19 19.95,-34.85 33.07,-70.82 38.86,-107.29 20.7,-130.43 13.42,-158.22 8.09,-178.51 -3.83,-14.6 -7.79,-29.7 -3.97,-61.11 9.32,-76.76 58.09,-144.9 130.47,-182.28 4.09,-2.12 4.32,-3.4 4.47,-4.18 2.28,-12.42 -14.85,-41.95 -31.61,-60.62 -11.5,-12.69 -10.5,-32.31 2.2,-43.81 5.93,-5.36 13.36,-8 20.79,-8 8.45,0 16.9,3.44 23.02,10.21 9.35,10.33 55.51,64.36 46.64,113.28 -2.66,14.65 -11.25,34.9 -37.05,48.23 -54.11,27.95 -90.49,78.29 -97.35,134.65 -2.38,19.65 -0.69,26.14 2.4,37.9 7.08,27.03 15.89,60.68 -6.85,203.96 -7.7,48.58 -25.95,96.06 -54.04,141.39 24.02,26.14 43.07,53.84 55.14,84.73 6.22,15.96 -1.65,33.94 -17.61,40.18 -16.03,6.23 -33.96,-1.66 -40.18,-17.61 -27.33,-69.93 -109.5,-127.16 -204.68,-193.4 -213.5,-148.62 -505.909,-352.16 -484.745,-897.521 11.074,-285.469 160.32,-418.32 280.255,-525.07" /><path
         id="path50"
         style="fill:#231f20;fill-opacity:1;fill-rule:nonzero;stroke:none"
         d="m 1359.78,1492.06 c 6.28,1.23 15.32,1.29 23.61,0.62 9.78,-0.86 20.35,-3.17 31.74,-6.67 1.34,-3.48 2.15,-7.21 2.15,-11.15 0,-17.31 -14.04,-31.34 -31.34,-31.34 -17.3,0 -31.34,14.03 -31.34,31.34 0,6.36 1.93,12.25 5.18,17.2 z M 1379,1396.3 c 37.58,0 68.06,30.47 68.06,68.06 0,11.24 -2.99,21.68 -7.8,31.03 -7.46,17.47 -21.21,32.59 -39.12,42.92 -12.71,6.99 -25.93,11.47 -42.2,12.35 -17.31,0.74 -32.49,-4.13 -44.3,-9.28 -24.1,-10.8 -40.2,-23.66 -54.22,-30.71 -7.05,-3.9 -13.51,-6.12 -22.9,-6.47 -4.77,-0.59 -9.66,0.62 -15.38,1.26 -5.61,0.96 -11.1,3.02 -17.83,4.32 3.34,-12.36 9.66,-24.73 21.43,-33.69 11.21,-9.28 28.29,-14.34 43.39,-13.41 16.95,0.92 31.28,5.32 43.67,10.26 -0.36,-2.84 -0.87,-5.64 -0.87,-8.58 0,-37.59 30.48,-68.06 68.07,-68.06" /><path
         id="path52"
         style="fill:#231f20;fill-opacity:1;fill-rule:nonzero;stroke:none"
         d="m 1604.66,1211.42 c -19.99,6.3 -41.92,4.27 -61.2,-2.5 -4.5,-1.52 -10.43,-4.14 -13.55,-5.55 -3.18,-1.49 -6.72,-3 -10.3,-4.48 l -22.17,-8.85 -45.52,-17.52 -45,-17.31 36.34,-34.62 c 8.04,-7.66 16.37,-14.94 25.04,-21.87 4.38,-3.41 8.69,-6.93 13.27,-10.11 4.6,-3.33 8.32,-6.15 16.06,-10.84 13.79,-8.31 31.52,-11.38 46.39,-8.04 14.86,3.53 27.18,11.99 33.8,24.28 -13.51,2.08 -24.02,5.81 -31.68,10.4 -7.63,4.97 -12.03,9.97 -15.88,15.83 -1.11,2.32 -5.69,7.18 -9.52,11.35 -1.12,1.27 -2.36,2.43 -3.52,3.65 1.43,0.74 2.88,1.39 4.32,2.14 7.71,4.01 15.4,8.2 23.09,12.98 3.88,2.36 7.75,4.78 11.78,7.53 4.15,2.74 5.46,4.38 8.53,6.43 10.8,7.72 22.79,13.66 36.21,16.15 6.74,1.28 13.96,1.48 21.69,0.49 7.7,-1.12 15.62,-3.72 24.16,-7 -6.77,16.62 -22.26,31.42 -42.34,37.46" /></g></g></svg>