<?xml version="1.0" encoding="UTF-8" standalone="no"?>
<svg
   xmlns:dc="http://purl.org/dc/elements/1.1/"
   xmlns:cc="http://creativecommons.org/ns#"
   xmlns:rdf="http://www.w3.org/1999/02/22-rdf-syntax-ns#"
   xmlns:svg="http://www.w3.org/2000/svg"
   xmlns="http://www.w3.org/2000/svg"
   viewBox="0 0 334.02667 454.48001"
   height="454.48001"
   width="334.02667"
   xml:space="preserve"
   id="svg2"
   version="1.1"><metadata
     id="metadata8"><rdf:RDF><cc:Work
         rdf:about=""><dc:format>image/svg+xml</dc:format><dc:type
           rdf:resource="http://purl.org/dc/dcmitype/StillImage" /></cc:Work></rdf:RDF></metadata><defs
     id="defs6" /><g
     transform="matrix(1.3333333,0,0,-1.3333333,0,454.48)"
     id="g10"><g
       transform="scale(0.1)"
       id="g12"><path
         id="path14"
         style="fill:#ffffff;fill-opacity:1;fill-rule:nonzero;stroke:none"
         d="M 2468.52,41.9609 H 35.0313 V 2200.09 H 2468.52 V 41.9609" /><path
         id="path16"
         style="fill:#231f20;fill-opacity:1;fill-rule:nonzero;stroke:none"
         d="m 561.488,2350.35 c 34.278,0 56.289,26.47 56.289,61.02 0,34.83 -22.011,61.02 -56.289,61.02 -34.543,0 -56.554,-26.19 -56.554,-61.02 0,-34.55 22.011,-61.02 56.554,-61.02" /><path
         id="path18"
         style="fill:#231f20;fill-opacity:1;fill-rule:nonzero;stroke:none"
         d="m 1756.06,2464.87 -28.99,-79.97 h 57.96 z" /><path
         id="path20"
         style="fill:#231f20;fill-opacity:1;fill-rule:nonzero;stroke:none"
         d="m 1605.16,2858.79 c 0,44.07 -31.89,73.64 -77.71,73.64 h -101.48 v -147.88 h 101.48 c 45.82,0 77.71,30.74 77.71,74.24" /><path
         id="path22"
         style="fill:#231f20;fill-opacity:1;fill-rule:nonzero;stroke:none"
         d="m 2015.1,2926.05 -81.76,-208.76 h 164.11 z" /><path
         id="path24"
         style="fill:#231f20;fill-opacity:1;fill-rule:nonzero;stroke:none"
         d="m 1370.69,2444.8 c 0,15.33 -11.99,24.81 -27.59,24.81 h -41.8 v -50.16 h 41.8 c 15.6,0 27.59,9.48 27.59,25.35" /><path
         id="path26"
         style="fill:#231f20;fill-opacity:1;fill-rule:nonzero;stroke:none"
         d="m 1136.9,2350.35 c 34.27,0 56.29,26.47 56.29,61.02 0,34.83 -22.02,61.02 -56.29,61.02 -34.54,0 -56.56,-26.19 -56.56,-61.02 0,-34.55 22.02,-61.02 56.56,-61.02" /><path
         id="path28"
         style="fill:#ffffff;fill-opacity:1;fill-rule:nonzero;stroke:none"
         d="m 372.016,2315.24 c 40.683,0 64.363,22.57 77.461,45.7 l -33.997,16.44 c -7.8,-15.05 -24.519,-27.03 -43.464,-27.03 -33.996,0 -58.508,25.91 -58.508,61.02 0,35.11 24.512,61.02 58.508,61.02 18.945,0 35.664,-11.98 43.464,-27.03 l 33.997,16.72 c -13.098,23.4 -36.778,45.42 -77.461,45.42 -56.008,0 -99.192,-38.73 -99.192,-96.13 0,-57.12 43.184,-96.13 99.192,-96.13" /><path
         id="path30"
         style="fill:#ffffff;fill-opacity:1;fill-rule:nonzero;stroke:none"
         d="m 561.488,2472.39 c 34.278,0 56.289,-26.19 56.289,-61.02 0,-34.55 -22.011,-61.02 -56.289,-61.02 -34.543,0 -56.554,26.47 -56.554,61.02 0,34.83 22.011,61.02 56.554,61.02 z m -97.238,-61.02 c 0,-56 40.957,-96.13 97.238,-96.13 56.004,0 96.961,40.13 96.961,96.13 0,56.01 -40.957,96.13 -96.961,96.13 -56.281,0 -97.238,-40.12 -97.238,-96.13" /><path
         id="path32"
         style="fill:#ffffff;fill-opacity:1;fill-rule:nonzero;stroke:none"
         d="m 813.117,2387.69 -86.094,116.74 H 686.34 v -185.84 h 39.57 v 121.2 l 88.594,-121.2 h 38.176 v 185.84 h -39.563 v -116.74" /><path
         id="path34"
         style="fill:#ffffff;fill-opacity:1;fill-rule:nonzero;stroke:none"
         d="m 889.465,2318.59 h 39.57 v 77.18 h 89.995 v 34.82 h -89.995 v 39.02 h 91.945 v 34.82 H 889.465 v -185.84" /><path
         id="path36"
         style="fill:#ffffff;fill-opacity:1;fill-rule:nonzero;stroke:none"
         d="m 1136.9,2472.39 c 34.27,0 56.29,-26.19 56.29,-61.02 0,-34.55 -22.02,-61.02 -56.29,-61.02 -34.54,0 -56.56,26.47 -56.56,61.02 0,34.83 22.02,61.02 56.56,61.02 z m 0,-157.15 c 56,0 96.96,40.13 96.96,96.13 0,56.01 -40.96,96.13 -96.96,96.13 -56.28,0 -97.24,-40.12 -97.24,-96.13 0,-56 40.96,-96.13 97.24,-96.13" /><path
         id="path38"
         style="fill:#ffffff;fill-opacity:1;fill-rule:nonzero;stroke:none"
         d="m 1301.3,2469.61 h 41.8 c 15.6,0 27.59,-9.48 27.59,-24.81 0,-15.87 -11.99,-25.35 -27.59,-25.35 h -41.8 z m -39.56,-151.02 h 39.56 v 66.03 h 28.99 l 36.49,-66.03 h 45.69 l -42.07,70.77 c 20.06,4.74 40.96,22.57 40.96,55.17 0,34.55 -23.96,59.9 -62.69,59.9 h -86.93 v -185.84" /><path
         id="path40"
         style="fill:#ffffff;fill-opacity:1;fill-rule:nonzero;stroke:none"
         d="m 1642.36,2318.59 v 185.84 h -55.73 l -45.13,-116.18 -45.14,116.18 h -55.45 v -185.84 h 39.57 v 134.02 l 52.37,-134.02 h 17.28 l 52.38,134.02 v -134.02 h 39.85" /><path
         id="path42"
         style="fill:#ffffff;fill-opacity:1;fill-rule:nonzero;stroke:none"
         d="m 1756.06,2464.87 28.97,-79.97 h -57.96 z m -39.85,-114.8 h 79.69 l 11.7,-31.48 h 44.85 l -71.6,185.84 h -49.6 l -71.6,-185.84 h 44.85 l 11.71,31.48" /><path
         id="path44"
         style="fill:#ffffff;fill-opacity:1;fill-rule:nonzero;stroke:none"
         d="m 1910.42,2504.43 h -40.68 v -185.84 h 39.57 v 121.2 l 88.59,-121.2 h 38.18 v 185.84 h -39.56 v -116.74 l -86.1,116.74" /><path
         id="path46"
         style="fill:#ffffff;fill-opacity:1;fill-rule:nonzero;stroke:none"
         d="m 2155.63,2318.59 v 151.02 h 54.05 v 34.82 h -148.23 v -34.82 h 54.33 v -151.02 h 39.85" /><path
         id="path48"
         style="fill:#7bcad6;fill-opacity:1;fill-rule:nonzero;stroke:none"
         d="M 557.961,2631.46 H 352.668 v 133.38 h 201.23 v 42.91 h -201.23 v 124.68 h 205.293 v 42.92 H 304.543 v -386.8 h 253.418 v 42.91" /><path
         id="path50"
         style="fill:#7bcad6;fill-opacity:1;fill-rule:nonzero;stroke:none"
         d="m 817.727,2581 c 63.214,0 115.976,26.68 151.933,67.28 v 139.18 H 788.734 v -42.92 h 133.379 v -78.29 c -19.718,-19.71 -58,-41.75 -104.386,-41.75 -84.668,0 -149.043,65.53 -149.043,157.16 0,92.78 64.375,157.15 149.043,157.15 46.386,0 87.558,-22.03 111.925,-53.35 l 38.27,24.35 c -33.633,41.76 -81.192,71.91 -150.195,71.91 -110.184,0 -198.907,-79.45 -198.907,-200.06 0,-120.04 88.723,-200.66 198.907,-200.66" /><path
         id="path52"
         style="fill:#7bcad6;fill-opacity:1;fill-rule:nonzero;stroke:none"
         d="m 1301.33,2631.46 h -205.29 v 133.38 h 201.23 v 42.91 h -201.23 v 124.68 h 205.29 v 42.92 h -253.42 v -386.8 h 253.42 v 42.91" /><path
         id="path54"
         style="fill:#7bcad6;fill-opacity:1;fill-rule:nonzero;stroke:none"
         d="m 1425.97,2932.43 h 101.48 c 45.82,0 77.71,-29.57 77.71,-73.64 0,-43.5 -31.89,-74.24 -77.71,-74.24 h -101.48 z m 0,-190.21 h 77.71 l 98.01,-153.67 h 56.82 l -104.38,157.73 c 52.78,4.64 100.9,42.92 100.9,112.51 0,71.32 -51.03,116.56 -121.78,116.56 h -155.41 v -386.8 h 48.13 v 153.67" /><path
         id="path56"
         style="fill:#7bcad6;fill-opacity:1;fill-rule:nonzero;stroke:none"
         d="m 1779.09,2975.35 h -48.12 v -386.8 h 48.12 v 386.8" /><path
         id="path58"
         style="fill:#7bcad6;fill-opacity:1;fill-rule:nonzero;stroke:none"
         d="m 2015.1,2926.05 82.35,-208.76 h -164.11 z m -96.26,-251.09 h 192.53 l 34.22,-86.41 h 55.09 l -155.42,386.8 h -59.74 l -155.99,-386.8 h 55.09 l 34.22,86.41" /><path
         id="path60"
         style="fill:#ffffff;fill-opacity:1;fill-rule:nonzero;stroke:none"
         d="m 1004.88,3394.83 v -0.15 c 0.06,0.05 0.13,0.1 0.19,0.15 h -0.19" /><path
         id="path62"
         style="fill:#ffffff;fill-opacity:1;fill-rule:nonzero;stroke:none"
         d="m 1502.28,3394.83 h -0.19 c 0.06,-0.05 0.13,-0.1 0.19,-0.15 v 0.15" /><path
         id="path64"
         style="fill:#ffffff;fill-opacity:1;fill-rule:nonzero;stroke:none"
         d="m 1212.35,3216.59 h 23.21 c 18.2,0 28.42,8.84 28.42,25.3 v 31.88 c 0,16.47 -10.22,25.31 -28.42,25.31 h -23.21 v -82.49" /><path
         id="path66"
         style="fill:#ffffff;fill-opacity:1;fill-rule:nonzero;stroke:none"
         d="m 1122.59,3321.95 c 31.71,0 49.39,-17.33 49.39,-45.23 v -37.77 c 0,-27.9 -17.68,-45.23 -49.39,-45.23 -31.89,0 -49.57,17.33 -49.57,45.23 v 37.77 c 0,27.9 17.68,45.23 49.57,45.23 z m 73.81,-2.6 h 38.99 c 32.23,0 50.25,-17.5 50.25,-45.75 v -31.53 c 0,-28.25 -18.02,-45.75 -50.25,-45.75 h -38.99 c -4.34,0 -5.89,1.56 -5.89,5.89 v 111.25 c 0,4.33 1.55,5.89 5.89,5.89 z m 113.5,0 h 45.91 c 25.13,0 40.9,-15.07 40.9,-40.2 0,-25.13 -15.59,-40.03 -40.9,-40.03 h -30.14 v -36.91 c 0,-4.33 -1.39,-5.89 -5.89,-5.89 h -9.88 c -4.34,0 -5.89,1.56 -5.89,5.89 v 111.25 c 0,4.33 1.55,5.89 5.89,5.89 z m 102.06,-10.05 c 0,7.97 2.59,10.4 10.57,10.4 h 1.21 c 7.97,0 10.39,-2.43 10.39,-10.4 v -1.56 c 0,-7.97 -2.42,-10.57 -10.39,-10.57 h -1.21 c -7.98,0 -10.57,2.6 -10.57,10.57 z m 21.31,-107.61 c 0,-3.99 -1.38,-5.37 -5.37,-5.37 h -9.36 c -3.99,0 -5.37,1.38 -5.37,5.37 v 79.19 c 0,3.99 1.38,5.2 5.37,5.2 h 9.36 c 3.99,0 5.37,-1.21 5.37,-5.2 z m -428.39,-44.46 c 0,-14.37 11.69,-26.07 26.08,-26.07 h 445.24 c 14.38,0 26.08,11.7 26.08,26.07 v 207.91 c 0,14.39 -11.7,26.08 -26.08,26.08 h -445.24 c -14.39,0 -26.08,-11.69 -26.08,-26.08 v -207.91" /><path
         id="path68"
         style="fill:#ffffff;fill-opacity:1;fill-rule:nonzero;stroke:none"
         d="m 1325.83,3259.39 h 28.08 c 12.65,0 20.27,7.28 20.27,19.76 0,12.48 -7.62,19.93 -20.27,19.93 h -28.08 v -39.69" /><path
         id="path70"
         style="fill:#ffffff;fill-opacity:1;fill-rule:nonzero;stroke:none"
         d="m 1094.86,3276.89 v -38.12 c 0,-16.11 10.05,-24.77 27.73,-24.77 17.84,0 27.72,8.66 27.72,24.77 v 38.12 c 0,16.12 -9.88,24.79 -27.72,24.79 -17.68,0 -27.73,-8.67 -27.73,-24.79" /><path
         id="path72"
         style="fill:#232325;fill-opacity:1;fill-rule:nonzero;stroke:none"
         d="M 2433.23,72.0117 H 71.9961 V 2176.08 H 2433.23 Z M 372.016,2507.5 c 40.683,0 64.363,-22.02 77.461,-45.42 l -33.997,-16.72 c -7.8,15.05 -24.519,27.03 -43.464,27.03 -33.996,0 -58.508,-25.91 -58.508,-61.02 0,-35.11 24.512,-61.02 58.508,-61.02 18.945,0 35.664,11.98 43.464,27.03 l 33.997,-16.44 c -13.098,-23.13 -36.778,-45.7 -77.461,-45.7 -56.008,0 -99.192,39.01 -99.192,96.13 0,57.4 43.184,96.13 99.192,96.13 z m -67.473,467.85 h 253.418 v -42.92 H 352.668 v -124.68 h 201.23 v -42.91 h -201.23 v -133.38 h 205.293 v -42.91 H 304.543 Z m 353.906,-563.98 c 0,-56 -40.957,-96.13 -96.961,-96.13 -56.281,0 -97.238,40.13 -97.238,96.13 0,56.01 40.957,96.13 97.238,96.13 56.004,0 96.961,-40.12 96.961,-96.13 z m 194.231,93.06 v -185.84 h -38.176 l -88.594,121.2 v -121.2 h -39.57 v 185.84 h 40.683 l 86.094,-116.74 v 116.74 z m -34.953,477.29 c 69.003,0 116.562,-30.15 150.195,-71.91 l -38.27,-24.35 c -24.367,31.32 -65.539,53.35 -111.925,53.35 -84.668,0 -149.043,-64.37 -149.043,-157.15 0,-91.63 64.375,-157.16 149.043,-157.16 46.386,0 84.668,22.04 104.386,41.75 v 78.29 H 788.734 v 42.92 H 969.66 V 2648.28 C 933.703,2607.68 880.941,2581 817.727,2581 c -110.184,0 -198.907,80.62 -198.907,200.66 0,120.61 88.723,200.06 198.907,200.06 z m 187.153,383.42 c 0,14.39 11.69,26.08 26.08,26.08 h 445.24 c 14.38,0 26.08,-11.69 26.08,-26.08 v -207.91 c 0,-14.37 -11.7,-26.07 -26.08,-26.07 h -445.24 c -14.39,0 -26.08,11.7 -26.08,26.07 z m 256.86,-860.71 h 86.93 c 38.73,0 62.69,-25.35 62.69,-59.9 0,-32.6 -20.9,-50.43 -40.96,-55.17 l 42.07,-70.77 h -45.69 l -36.49,66.03 h -28.99 v -66.03 h -39.56 z m -27.88,-93.06 c 0,-56 -40.96,-96.13 -96.96,-96.13 -56.28,0 -97.24,40.13 -97.24,96.13 0,56.01 40.96,96.13 97.24,96.13 56,0 96.96,-40.12 96.96,-96.13 z m -185.95,177.18 v 386.8 h 253.42 v -42.92 h -205.29 v -124.68 h 201.23 v -42.91 h -201.23 v -133.38 h 205.29 v -42.91 z m -28.88,-157.96 v -34.82 h -89.995 v -77.18 h -39.57 v 185.84 h 131.515 v -34.82 h -91.945 v -39.02 z m 531.1,-112 h -17.28 l -52.37,134.02 v -134.02 h -39.57 v 185.84 h 55.45 l 45.14,-116.18 45.13,116.18 h 55.73 v -185.84 h -39.85 v 134.02 z m -16.88,656.76 c 70.75,0 121.78,-45.24 121.78,-116.56 0,-69.59 -48.12,-107.87 -100.9,-112.51 l 104.38,-157.73 h -56.82 l -98.01,153.67 h -77.71 v -153.67 h -48.13 v 386.8 z m 198,-470.92 h 49.6 l 71.6,-185.84 h -44.85 l -11.7,31.48 h -79.69 l -11.71,-31.48 h -44.85 z m -0.28,470.92 h 48.12 v -386.8 h -48.12 z m 305.11,-470.92 v -185.84 h -38.18 l -88.59,121.2 v -121.2 h -39.57 v 185.84 h 40.68 l 86.1,-116.74 v 116.74 z m -50.56,470.92 h 59.74 l 155.42,-386.8 h -55.09 l -34.22,86.41 h -192.53 l -34.22,-86.41 h -55.09 z m 75.93,-505.74 v 34.82 h 148.23 v -34.82 h -54.05 v -151.02 h -39.85 v 151.02 z m 257.77,808.53 h -803.45 v 87 c 0,11.8 -5.28,22.28 -13.49,29.54 -0.06,0.05 -0.13,0.1 -0.19,0.15 -6.96,6.08 -15.94,9.89 -25.89,9.89 h -445.24 c -9.94,0 -18.93,-3.81 -25.89,-9.89 -0.06,-0.05 -0.13,-0.1 -0.19,-0.15 -8.208,-7.26 -13.501,-17.74 -13.501,-29.54 v -87 H 186 c -102.5586,0 -185.99609375,-83.44 -185.99609375,-186 V 0 H 2505.22 v 3092.14 c 0,102.56 -83.44,186 -186,186" /><path
         id="path74"
         style="fill:#231f20;fill-opacity:1;fill-rule:nonzero;stroke:none"
         d="m 1122.59,3301.68 c 17.84,0 27.72,-8.67 27.72,-24.79 v -38.12 c 0,-16.11 -9.88,-24.77 -27.72,-24.77 -17.68,0 -27.73,8.66 -27.73,24.77 v 38.12 c 0,16.12 10.05,24.79 27.73,24.79 z m -49.57,-24.96 v -37.77 c 0,-27.9 17.68,-45.23 49.57,-45.23 31.71,0 49.39,17.33 49.39,45.23 v 37.77 c 0,27.9 -17.68,45.23 -49.39,45.23 -31.89,0 -49.57,-17.33 -49.57,-45.23" /><path
         id="path76"
         style="fill:#231f20;fill-opacity:1;fill-rule:nonzero;stroke:none"
         d="m 1235.56,3299.08 c 18.2,0 28.42,-8.84 28.42,-25.31 v -31.88 c 0,-16.46 -10.22,-25.3 -28.42,-25.3 h -23.21 v 82.49 z m -45.05,-96.87 c 0,-4.33 1.55,-5.89 5.89,-5.89 h 38.99 c 32.23,0 50.25,17.5 50.25,45.75 v 31.53 c 0,28.25 -18.02,45.75 -50.25,45.75 h -38.99 c -4.34,0 -5.89,-1.56 -5.89,-5.89 v -111.25" /><path
         id="path78"
         style="fill:#231f20;fill-opacity:1;fill-rule:nonzero;stroke:none"
         d="m 1353.91,3299.08 c 12.65,0 20.27,-7.45 20.27,-19.93 0,-12.48 -7.62,-19.76 -20.27,-19.76 h -28.08 v 39.69 z m -49.9,-96.87 c 0,-4.33 1.55,-5.89 5.89,-5.89 h 9.88 c 4.5,0 5.89,1.56 5.89,5.89 v 36.91 h 30.14 c 25.31,0 40.9,14.9 40.9,40.03 0,25.13 -15.77,40.2 -40.9,40.2 h -45.91 c -4.34,0 -5.89,-1.56 -5.89,-5.89 v -111.25" /><path
         id="path80"
         style="fill:#231f20;fill-opacity:1;fill-rule:nonzero;stroke:none"
         d="m 1427.9,3286.08 h -9.36 c -3.99,0 -5.37,-1.21 -5.37,-5.2 v -79.19 c 0,-3.99 1.38,-5.37 5.37,-5.37 h 9.36 c 3.99,0 5.37,1.38 5.37,5.37 v 79.19 c 0,3.99 -1.38,5.2 -5.37,5.2" /><path
         id="path82"
         style="fill:#231f20;fill-opacity:1;fill-rule:nonzero;stroke:none"
         d="m 1422.53,3297.17 h 1.21 c 7.97,0 10.39,2.6 10.39,10.57 v 1.56 c 0,7.97 -2.42,10.4 -10.39,10.4 h -1.21 c -7.98,0 -10.57,-2.43 -10.57,-10.4 v -1.56 c 0,-7.97 2.59,-10.57 10.57,-10.57" /><path
         id="path84"
         style="fill:#7bcad6;fill-opacity:1;fill-rule:nonzero;stroke:none"
         d="m 1809.48,473.801 c 6.2,-4.153 13.22,-6.141 20.16,-6.141 11.66,0 23.12,5.621 30.11,16.039 l 410.66,611.911 c 8.21,12.21 8.21,28.17 0,40.38 l -410.66,611.91 c -11.15,16.61 -33.67,21.04 -50.27,9.9 -16.62,-11.15 -21.03,-33.66 -9.88,-50.27 L 2196.71,1115.8 1799.6,524.07 c -11.15,-16.609 -6.74,-39.109 9.88,-50.269" /><path
         id="path86"
         style="fill:#7bcad6;fill-opacity:1;fill-rule:nonzero;stroke:none"
         d="m 638.703,483.699 c 6.992,-10.418 18.43,-16.039 30.098,-16.039 6.953,0 13.965,1.988 20.168,6.141 16.609,11.16 21.035,33.66 9.883,50.269 L 301.73,1115.8 698.852,1707.53 c 11.152,16.61 6.726,39.12 -9.883,50.27 -16.602,11.12 -39.114,6.72 -50.266,-9.9 L 228.039,1135.99 c -8.203,-12.21 -8.203,-28.17 0,-40.38 L 638.703,483.699" /><path
         id="path88"
         style="fill:#231f20;fill-opacity:1;fill-rule:nonzero;stroke:none"
         d="m 1534.1,1048.91 c -16.49,0.79 -31.26,-13.3 -31.59,-30.43 -0.96,-51.289 -14.63,-55.351 -24.6,-58.308 -24.06,-7.043 -176.17,3.5 -296.49,17.629 -0.03,0.008 -0.06,0.008 -0.09,0.008 -0.22,0.031 -0.46,0.05 -0.67,0.082 -3.98,0.461 -7.77,1.308 -11.43,2.418 -54.61,12.972 -109.58,111.761 -110.22,112.941 -0.03,-0.01 -0.06,-0.01 -0.09,-0.02 -11.33,-55.64 5.12,-96.921 19.61,-120.66 14.93,-18.761 34.3,-36.269 59.26,-46.851 -28.25,-100.168 -21.9,-198.528 -7.91,-273.008 11.85,-46.141 39.37,-127.512 83.63,-142.492 -48.2,88.82 -30.33,349.851 -14.71,403.242 51.24,-5.531 168.5,-17.242 242.09,-17.242 24.33,0 43.88,1.281 54.68,4.492 60.19,17.879 68.17,75.109 68.95,116.609 0.33,17.12 -13.29,31.26 -30.42,31.59" /><path
         id="path90"
         style="fill:#231f20;fill-opacity:1;fill-rule:nonzero;stroke:none"
         d="m 1094.79,413.379 c 93.86,-83.547 168.53,-150.367 173.5,-266.367 h 62.02 c -5.02,143.797 -96.9,226.019 -194.28,312.699 -116.94,104.09 -249.475,222.059 -259.522,481.141 -19.836,511.448 245.232,695.958 458.212,844.208 45.93,31.98 89.04,62.02 125.82,93.19 19.94,-34.85 33.07,-70.82 38.85,-107.29 20.7,-130.42 13.42,-158.22 8.09,-178.51 -3.82,-14.6 -7.78,-29.7 -3.97,-61.1 9.33,-76.77 58.09,-144.91 130.47,-182.29 4.1,-2.12 4.32,-3.41 4.48,-4.18 2.27,-12.43 -14.85,-41.94 -31.62,-60.61 -11.49,-12.71 -10.5,-32.32 2.21,-43.81 5.92,-5.37 13.36,-8.01 20.79,-8.01 8.45,0 16.89,3.44 23.01,10.21 9.35,10.33 55.52,64.36 46.64,113.28 -2.66,14.65 -11.24,34.9 -37.05,48.23 -54.1,27.95 -90.49,78.29 -97.35,134.65 -2.38,19.65 -0.68,26.13 2.4,37.9 7.09,27.03 15.9,60.68 -6.85,203.96 -7.7,48.58 -25.94,96.06 -54.04,141.4 24.02,26.13 43.07,53.83 55.14,84.72 6.23,15.96 -1.65,33.94 -17.61,40.17 -16.02,6.24 -33.95,-1.65 -40.18,-17.61 -27.32,-69.93 -109.49,-127.14 -204.68,-193.39 -213.5,-148.62 -505.899,-352.16 -484.747,-897.521 11.075,-285.457 160.332,-418.32 280.267,-525.07" /><path
         id="path92"
         style="fill:#231f20;fill-opacity:1;fill-rule:nonzero;stroke:none"
         d="m 1359.78,1492.06 c 6.28,1.23 15.31,1.29 23.61,0.62 9.77,-0.86 20.35,-3.17 31.74,-6.66 1.33,-3.48 2.14,-7.22 2.14,-11.16 0,-17.31 -14.03,-31.34 -31.34,-31.34 -17.3,0 -31.33,14.03 -31.33,31.34 0,6.36 1.92,12.25 5.18,17.2 z m 19.21,-95.76 c 37.59,0 68.06,30.47 68.06,68.06 0,11.24 -2.98,21.68 -7.8,31.02 -7.46,17.48 -21.21,32.6 -39.12,42.93 -12.7,6.99 -25.93,11.46 -42.19,12.35 -17.31,0.75 -32.49,-4.14 -44.3,-9.27 -24.1,-10.81 -40.21,-23.67 -54.23,-30.72 -7.05,-3.9 -13.51,-6.12 -22.89,-6.47 -4.77,-0.59 -9.67,0.62 -15.39,1.26 -5.61,0.96 -11.1,3.02 -17.82,4.31 3.34,-12.36 9.66,-24.71 21.42,-33.68 11.22,-9.27 28.29,-14.34 43.39,-13.4 16.95,0.91 31.28,5.32 43.67,10.26 -0.36,-2.84 -0.86,-5.65 -0.86,-8.59 0,-37.59 30.47,-68.06 68.06,-68.06" /><path
         id="path94"
         style="fill:#231f20;fill-opacity:1;fill-rule:nonzero;stroke:none"
         d="m 1604.66,1211.43 c -20,6.29 -41.93,4.26 -61.2,-2.51 -4.51,-1.52 -10.44,-4.14 -13.55,-5.55 -3.19,-1.49 -6.73,-3 -10.31,-4.47 l -22.16,-8.86 -45.53,-17.52 -45,-17.32 36.34,-34.61 c 8.04,-7.65 16.38,-14.94 25.05,-21.87 4.38,-3.42 8.68,-6.93 13.27,-10.12 4.59,-3.33 8.31,-6.14 16.06,-10.83 13.79,-8.32 31.51,-11.38 46.39,-8.04 14.86,3.53 27.17,12 33.8,24.28 -13.51,2.08 -24.02,5.81 -31.69,10.4 -7.62,4.97 -12.02,9.97 -15.88,15.83 -1.11,2.33 -5.69,7.18 -9.52,11.35 -1.12,1.27 -2.36,2.42 -3.51,3.65 1.43,0.74 2.88,1.38 4.31,2.14 7.72,4.01 15.4,8.2 23.09,12.98 3.89,2.36 7.75,4.78 11.79,7.52 4.15,2.75 5.45,4.39 8.53,6.44 10.79,7.71 22.79,13.66 36.21,16.15 6.73,1.28 13.95,1.47 21.69,0.49 7.7,-1.12 15.62,-3.72 24.16,-7 -6.78,16.63 -22.26,31.42 -42.34,37.47" /></g></g></svg>