<?xml version="1.0" encoding="utf-8"?>
<!-- Generator: Adobe Illustrator 23.1.1, SVG Export Plug-In . SVG Version: 6.00 Build 0)  -->
<svg version="1.1" id="Layer_1" xmlns="http://www.w3.org/2000/svg" xmlns:xlink="http://www.w3.org/1999/xlink" x="0px" y="0px"
	 viewBox="0 0 800 800" style="enable-background:new 0 0 800 800;" xml:space="preserve">
<style type="text/css">
	.st0{fill:#231F20;}
	.st1{fill:#FFFFFF;}
</style>
<g>
	<g>
		<path class="st1" d="M400,28.5c-0.1,0-0.1,0-0.2,0c0,0,0,0,0,0c-2.6,0-4.7,2.1-4.7,4.7c0,2.6,2.1,4.7,4.7,4.7h0l0.3,0
			c0.2,0,0.4,0,0.6,0c0.2,0,0.4,0,0.6,0l0.3,0c0,0,0,0,0,0c2.6,0,4.7-2.1,4.7-4.7c0-2.6-2.1-4.7-4.7-4.7c0,0-0.1,0-0.1,0
			c0,0-0.1,0-0.1,0c0,0,0,0,0,0c-0.2,0-0.4,0-0.6,0C400.4,28.5,400.2,28.5,400,28.5C400,28.5,400,28.5,400,28.5L400,28.5z
			 M371.9,29.5c-0.1,0-0.2,0-0.4,0c-0.1,0-0.2,0-0.3,0c-2.6,0.2-4.5,2.5-4.3,5c0.2,2.5,2.2,4.3,4.7,4.3c0.1,0,0.2,0,0.4,0l0.3,0
			c2.6-0.2,4.5-2.5,4.3-5C376.4,31.4,374.4,29.5,371.9,29.5L371.9,29.5z M344,32.7c-0.2,0-0.5,0-0.7,0.1c0,0-0.1,0-0.1,0
			c0,0,0,0-0.1,0c0,0,0,0-0.1,0c-2.6,0.4-4.3,2.8-3.9,5.4c0.4,2.3,2.4,4,4.6,4c0.2,0,0.5,0,0.7-0.1l0.2,0c2.6-0.4,4.3-2.8,3.9-5.4
			C348.3,34.4,346.3,32.7,344,32.7L344,32.7z M316.4,38c-0.4,0-0.7,0-1.1,0.1c-0.1,0-0.2,0-0.3,0.1c-2.5,0.6-4.1,3.1-3.5,5.6
			c0.5,2.2,2.4,3.6,4.6,3.6c0.4,0,0.7,0,1.1-0.1l0.2-0.1c2.5-0.6,4.1-3.1,3.5-5.6C320.5,39.5,318.6,38,316.4,38L316.4,38z
			 M289.4,45.5c-0.5,0-0.9,0.1-1.4,0.2c0,0,0,0,0,0c0,0-0.1,0-0.1,0c0,0-0.1,0-0.2,0.1c-2.5,0.8-3.8,3.4-3,5.9
			c0.6,2,2.5,3.3,4.5,3.3c0.5,0,0.9-0.1,1.4-0.2l0.2-0.1c2.5-0.8,3.8-3.4,3.1-5.9C293.2,46.7,291.4,45.5,289.4,45.5L289.4,45.5z
			 M262.9,55c-0.6,0-1.2,0.1-1.7,0.3c-0.1,0-0.2,0.1-0.3,0.1c-2.4,1-3.6,3.7-2.6,6.1c0.7,1.8,2.5,2.9,4.4,2.9c0.6,0,1.2-0.1,1.8-0.3
			l0.2-0.1c2.4-1,3.6-3.7,2.6-6.1C266.5,56.1,264.8,55,262.9,55L262.9,55z M237.3,66.5c-0.7,0-1.4,0.2-2.1,0.5
			c-0.1,0-0.2,0.1-0.3,0.1c-2.3,1.2-3.3,4-2.1,6.3c0.8,1.7,2.5,2.6,4.2,2.6c0.7,0,1.4-0.2,2.1-0.5l0.2-0.1c2.3-1.2,3.3-4,2.1-6.3
			C240.7,67.4,239,66.5,237.3,66.5L237.3,66.5z M212.6,79.9c-0.8,0-1.6,0.2-2.4,0.7c0,0-0.1,0-0.1,0.1c0,0-0.1,0-0.1,0l0,0
			c0,0,0,0-0.1,0c-2.2,1.3-3,4.2-1.6,6.4c0.9,1.5,2.4,2.3,4,2.3c0.8,0,1.6-0.2,2.4-0.7l0.2-0.1c2.2-1.3,3-4.2,1.6-6.4
			C215.8,80.7,214.2,79.9,212.6,79.9L212.6,79.9z M189.1,95.2c-0.9,0-1.9,0.3-2.7,0.9c-0.1,0.1-0.2,0.1-0.2,0.2
			c-2.1,1.5-2.6,4.4-1.1,6.5c0.9,1.3,2.4,2,3.8,2c0.9,0,1.9-0.3,2.7-0.9l0.2-0.1c2.1-1.5,2.6-4.4,1.1-6.5
			C192,95.9,190.5,95.2,189.1,95.2L189.1,95.2z M166.7,112.2c-1,0-2.1,0.3-3,1.1c0,0,0,0-0.1,0.1c0,0-0.1,0.1-0.1,0.1
			c-2,1.7-2.3,4.6-0.6,6.6c0.9,1.1,2.3,1.7,3.6,1.7c1.1,0,2.1-0.4,3-1.1l0.2-0.2c2-1.7,2.3-4.6,0.6-6.6
			C169.4,112.8,168.1,112.2,166.7,112.2L166.7,112.2z M145.8,130.9c-1.2,0-2.3,0.4-3.3,1.3c0,0-0.1,0.1-0.1,0.1c0,0,0,0-0.1,0.1
			c-1.9,1.8-1.9,4.8-0.1,6.6c0.9,1,2.2,1.4,3.4,1.4c1.2,0,2.3-0.4,3.3-1.3l0.2-0.2c1.9-1.8,1.9-4.8,0.1-6.6
			C148.2,131.4,147,130.9,145.8,130.9L145.8,130.9z M126.3,151.1c-1.3,0-2.6,0.5-3.5,1.5c-0.1,0.1-0.1,0.1-0.2,0.2
			c-1.7,1.9-1.6,4.9,0.4,6.6c0.9,0.8,2,1.2,3.1,1.2c1.3,0,2.6-0.5,3.5-1.6l0.2-0.2c1.7-1.9,1.6-4.9-0.4-6.6
			C128.5,151.5,127.4,151.1,126.3,151.1L126.3,151.1z M108.4,172.8c-1.4,0-2.8,0.6-3.7,1.8c0,0,0,0,0,0c0,0.1-0.1,0.1-0.1,0.2
			c-1.6,2.1-1.2,5,0.9,6.6c0.9,0.6,1.9,1,2.8,1c1.4,0,2.8-0.6,3.7-1.8l0.2-0.2c1.6-2.1,1.2-5-0.9-6.6
			C110.4,173.1,109.4,172.8,108.4,172.8L108.4,172.8z M92.2,195.7c-1.5,0-3,0.7-3.9,2.1c0,0,0,0,0,0c0,0.1-0.1,0.1-0.1,0.2
			c0,0,0,0,0,0c-1.4,2.2-0.8,5.1,1.4,6.5c0.8,0.5,1.7,0.8,2.6,0.8c1.5,0,3-0.8,3.9-2.1l0.1-0.2c1.4-2.2,0.8-5.1-1.4-6.5
			C94,196,93.1,195.7,92.2,195.7L92.2,195.7z M77.8,219.8c-1.7,0-3.3,0.9-4.1,2.4c0,0.1-0.1,0.2-0.1,0.2c-1.2,2.3-0.4,5.1,1.9,6.4
			c0.7,0.4,1.5,0.6,2.2,0.6c1.7,0,3.3-0.9,4.1-2.5l0.1-0.2c1.2-2.3,0.4-5.1-1.9-6.4C79.3,220,78.6,219.8,77.8,219.8L77.8,219.8z
			 M65.3,245c-1.8,0-3.5,1-4.3,2.8c0,0.1-0.1,0.2-0.1,0.3c-1.1,2.4,0,5.1,2.4,6.2c0.6,0.3,1.3,0.4,1.9,0.4c1.8,0,3.5-1,4.3-2.8
			l0.1-0.2c1.1-2.4,0-5.1-2.4-6.2C66.6,245.1,65.9,245,65.3,245L65.3,245z M54.8,271c-1.9,0-3.7,1.2-4.4,3.1c0,0.1-0.1,0.2-0.1,0.2
			c-0.9,2.4,0.4,5.1,2.8,6c0.5,0.2,1.1,0.3,1.6,0.3c1.9,0,3.7-1.2,4.4-3.1l0.1-0.2c0.9-2.4-0.4-5.1-2.8-6
			C55.8,271.1,55.3,271,54.8,271L54.8,271z M46.3,297.8c-2.1,0-4,1.4-4.5,3.5c0,0.1,0,0.2-0.1,0.2c-0.7,2.5,0.8,5.1,3.3,5.8
			c0.4,0.1,0.8,0.2,1.2,0.2c2.1,0,4-1.4,4.5-3.5l0.1-0.2c0.7-2.5-0.8-5.1-3.3-5.8C47.1,297.8,46.7,297.8,46.3,297.8L46.3,297.8z
			 M39.9,325.1c-2.2,0-4.2,1.6-4.6,3.8c0,0,0,0,0,0c0,0.1,0,0.1,0,0.2c0,0,0,0,0,0c-0.5,2.5,1.2,5,3.7,5.5c0.3,0.1,0.6,0.1,0.9,0.1
			c2.2,0,4.2-1.6,4.6-3.8l0-0.2c0.5-2.5-1.2-5-3.7-5.5C40.5,325.2,40.2,325.1,39.9,325.1L39.9,325.1z M35.6,352.9
			c-2.4,0-4.4,1.8-4.7,4.2c0,0,0,0.1,0,0.1c0,0,0,0.1,0,0.2c-0.3,2.6,1.6,4.9,4.1,5.2c0.2,0,0.4,0,0.5,0c2.4,0,4.4-1.8,4.7-4.2
			l0-0.3c0.3-2.6-1.6-4.9-4.1-5.2C36,352.9,35.8,352.9,35.6,352.9L35.6,352.9z M33.5,380.9c-2.5,0-4.6,2-4.7,4.5c0,0,0,0,0,0.1
			c0,0,0,0.1,0,0.1c0,0,0,0,0,0.1c-0.1,2.6,1.9,4.8,4.5,4.9c0.1,0,0.1,0,0.2,0c2.5,0,4.6-2,4.7-4.5l0-0.3c0.1-2.6-1.9-4.8-4.5-4.9
			C33.6,380.9,33.5,380.9,33.5,380.9L33.5,380.9z M33.4,409c-0.1,0-0.1,0-0.2,0c-2.6,0.1-4.6,2.3-4.5,4.9c0,0,0,0.1,0,0.2
			c0,0,0,0.1,0,0.1c0.1,2.5,2.2,4.5,4.7,4.5c0.1,0,0.1,0,0.2,0c2.6-0.1,4.6-2.3,4.5-4.9l0-0.3C38,411,36,409,33.4,409L33.4,409z
			 M35.5,437c-0.2,0-0.4,0-0.5,0c-2.6,0.3-4.4,2.6-4.1,5.2c0,0,0,0.1,0,0.1c0,0,0,0.1,0,0.1c0,0,0,0.1,0,0.1
			c0.3,2.4,2.3,4.1,4.7,4.1c0.2,0,0.4,0,0.5,0c2.6-0.3,4.4-2.6,4.1-5.2l0-0.3C39.9,438.8,37.9,437,35.5,437L35.5,437z M39.8,464.8
			c-0.3,0-0.6,0-0.9,0.1c-2.5,0.5-4.2,3-3.7,5.5c0,0.1,0,0.2,0,0.3c0.4,2.2,2.4,3.8,4.6,3.8c0.3,0,0.6,0,0.9-0.1
			c2.5-0.5,4.2-3,3.7-5.5l0-0.2C43.9,466.3,42,464.8,39.8,464.8L39.8,464.8z M46.1,492.1c-0.4,0-0.8,0.1-1.2,0.2
			c-2.5,0.7-4,3.3-3.3,5.8c0,0.1,0,0.1,0,0.2c0,0,0,0.1,0,0.1c0.6,2.1,2.5,3.5,4.5,3.5c0.4,0,0.8-0.1,1.2-0.2c2.5-0.7,4-3.3,3.3-5.8
			l-0.1-0.2C50.1,493.5,48.2,492.1,46.1,492.1L46.1,492.1z M54.5,518.9c-0.5,0-1.1,0.1-1.6,0.3c-2.4,0.9-3.7,3.5-2.8,6
			c0,0.1,0.1,0.2,0.1,0.3c0.7,1.9,2.5,3.1,4.4,3.1c0.5,0,1.1-0.1,1.6-0.3c2.4-0.9,3.7-3.6,2.8-6L59,522
			C58.3,520.1,56.5,518.9,54.5,518.9L54.5,518.9z M65,545c-0.6,0-1.3,0.1-1.9,0.4c-2.4,1.1-3.4,3.8-2.4,6.2c0,0,0,0,0,0
			c0,0.1,0.1,0.1,0.1,0.2c0.8,1.7,2.5,2.8,4.3,2.8c0.6,0,1.3-0.1,1.9-0.4c2.4-1.1,3.4-3.8,2.4-6.2l-0.1-0.2
			C68.5,546,66.8,545,65,545L65,545z M77.5,570.2c-0.8,0-1.5,0.2-2.2,0.6c-2.3,1.2-3.1,4.1-1.9,6.4c0,0,0,0,0,0
			c0,0.1,0.1,0.1,0.1,0.1c0,0,0,0,0,0c0.9,1.6,2.5,2.5,4.1,2.5c0.8,0,1.5-0.2,2.2-0.6c2.3-1.2,3.1-4.1,1.9-6.4l-0.1-0.2
			C80.7,571,79.1,570.2,77.5,570.2L77.5,570.2z M91.8,594.3c-0.9,0-1.8,0.2-2.5,0.8c-2.2,1.4-2.8,4.3-1.4,6.5c0,0,0.1,0.1,0.1,0.1
			c0,0,0,0.1,0.1,0.1c0.9,1.4,2.4,2.1,3.9,2.1c0.9,0,1.8-0.2,2.6-0.8c2.2-1.4,2.8-4.3,1.4-6.5l-0.1-0.2
			C94.9,595.1,93.3,594.3,91.8,594.3L91.8,594.3z M108,617.3c-1,0-2,0.3-2.8,1c-2.1,1.6-2.5,4.5-0.9,6.6c0,0,0,0,0,0
			c0,0,0.1,0.1,0.1,0.1c0,0,0,0,0.1,0.1c0.9,1.2,2.3,1.8,3.7,1.8c1,0,2-0.3,2.8-1c2.1-1.6,2.5-4.5,0.9-6.6l-0.2-0.2
			C110.8,617.9,109.4,617.3,108,617.3L108,617.3z M125.8,639c-1.1,0-2.2,0.4-3.1,1.2c-1.9,1.7-2.1,4.7-0.4,6.6
			c0.1,0.1,0.1,0.1,0.2,0.2c0,0,0,0,0,0c0.9,1,2.2,1.6,3.5,1.6c1.1,0,2.2-0.4,3.1-1.2c1.9-1.7,2.1-4.7,0.4-6.6l-0.2-0.2
			C128.4,639.5,127.1,639,125.8,639L125.8,639z M145.3,659.2c-1.2,0-2.5,0.5-3.4,1.4c-1.8,1.9-1.7,4.8,0.1,6.6
			c0.1,0,0.1,0.1,0.1,0.1c0,0,0,0,0.1,0.1c0.9,0.9,2.1,1.3,3.3,1.3c1.2,0,2.5-0.5,3.4-1.4c1.8-1.9,1.7-4.8-0.1-6.6l-0.2-0.2
			C147.6,659.7,146.4,659.2,145.3,659.2L145.3,659.2z M166.2,678c-1.4,0-2.7,0.6-3.6,1.7c-1.7,2-1.4,5,0.6,6.6c0,0,0.1,0,0.1,0.1
			c0,0,0.1,0.1,0.1,0.1c0.9,0.7,1.9,1.1,3,1.1c1.4,0,2.7-0.6,3.6-1.7c1.7-2,1.4-5-0.6-6.6l-0.2-0.2C168.3,678.3,167.3,678,166.2,678
			L166.2,678z M188.5,695c-1.5,0-2.9,0.7-3.8,2c-1.5,2.1-1,5.1,1.1,6.5c0.1,0,0.1,0.1,0.2,0.1c0.8,0.6,1.8,0.9,2.7,0.9
			c1.5,0,2.9-0.7,3.8-2c1.5-2.1,1-5.1-1.1-6.6l-0.2-0.1C190.4,695.3,189.4,695,188.5,695L188.5,695z M212,710.4
			c-1.6,0-3.2,0.8-4,2.3c-1.3,2.2-0.6,5.1,1.6,6.4c0,0,0,0,0,0c0.1,0,0.1,0.1,0.2,0.1c0.8,0.4,1.6,0.7,2.4,0.7c1.6,0,3.2-0.8,4-2.3
			c1.3-2.2,0.6-5.1-1.6-6.4l-0.2-0.1C213.7,710.6,212.9,710.4,212,710.4L212,710.4z M236.7,723.8c-1.7,0-3.4,1-4.2,2.6
			c-1.2,2.3-0.2,5.1,2.1,6.3c0.1,0,0.1,0.1,0.2,0.1c0,0,0,0,0,0c0.7,0.3,1.4,0.5,2.1,0.5c1.7,0,3.4-1,4.2-2.6
			c1.2-2.3,0.2-5.1-2.1-6.3l-0.2-0.1C238.1,724,237.4,723.8,236.7,723.8L236.7,723.8z M262.3,735.4c-1.9,0-3.6,1.1-4.4,2.9
			c-1,2.4,0.2,5.1,2.6,6.1c0.1,0,0.1,0.1,0.2,0.1c0,0,0,0,0,0c0.6,0.2,1.2,0.3,1.8,0.3c1.9,0,3.6-1.1,4.4-2.9c1-2.4-0.2-5.1-2.6-6.1
			l-0.2-0.1C263.5,735.5,262.9,735.4,262.3,735.4L262.3,735.4z M288.7,744.9c-2,0-3.8,1.3-4.5,3.3c-0.8,2.5,0.6,5.1,3,5.9
			c0.1,0,0.2,0.1,0.3,0.1c0.5,0.1,0.9,0.2,1.4,0.2c2,0,3.8-1.3,4.5-3.3c0.8-2.5-0.6-5.1-3.1-5.9l-0.2-0.1
			C289.6,745,289.2,744.9,288.7,744.9L288.7,744.9z M315.8,752.4c-2.1,0-4.1,1.5-4.6,3.6c-0.6,2.5,1,5,3.5,5.6c0.1,0,0.1,0,0.2,0
			c0,0,0.1,0,0.1,0c0.4,0.1,0.7,0.1,1.1,0.1c2.1,0,4.1-1.5,4.6-3.6c0.6-2.5-1-5.1-3.5-5.6l-0.2-0.1
			C316.5,752.4,316.1,752.4,315.8,752.4L315.8,752.4z M343.3,757.8c-2.3,0-4.3,1.7-4.6,4c-0.4,2.6,1.4,5,3.9,5.4c0,0,0,0,0.1,0
			c0.1,0,0.1,0,0.2,0c0.2,0,0.5,0.1,0.7,0.1c2.3,0,4.3-1.7,4.6-4c0.4-2.6-1.4-5-3.9-5.4l-0.2,0C343.8,757.8,343.6,757.8,343.3,757.8
			L343.3,757.8z M371.2,761c-2.4,0-4.5,1.9-4.7,4.3c-0.2,2.6,1.7,4.8,4.3,5c0,0,0.1,0,0.2,0c0,0,0.1,0,0.1,0c0.1,0,0.2,0,0.4,0
			c2.4,0,4.5-1.9,4.7-4.3c0.2-2.6-1.7-4.8-4.3-5l-0.3,0C371.5,761,371.3,761,371.2,761L371.2,761z M399.3,762.1
			c-2.6,0-4.7,2.1-4.7,4.7c0,2.6,2.1,4.7,4.7,4.7c0,0,0,0,0.1,0c0.1,0,0.1,0,0.2,0c2.6,0,4.7-2.1,4.7-4.7c0-2.6-2.1-4.7-4.7-4.7
			L399.3,762.1C399.3,762.1,399.3,762.1,399.3,762.1L399.3,762.1z M427.6,761.1c-0.1,0-0.2,0-0.4,0l-0.3,0c-2.6,0.2-4.5,2.4-4.3,5
			c0.2,2.5,2.2,4.4,4.7,4.4c0.1,0,0.2,0,0.3,0c0.1,0,0.2,0,0.3,0c2.6-0.2,4.5-2.4,4.3-5C432.1,763,430.1,761.1,427.6,761.1
			L427.6,761.1z M455.5,757.9c-0.2,0-0.5,0-0.7,0.1l-0.2,0c-2.6,0.4-4.3,2.8-3.9,5.4c0.4,2.3,2.4,4,4.6,4c0.2,0,0.5,0,0.7-0.1
			c0,0,0,0,0.1,0c0.1,0,0.1,0,0.1,0c0,0,0,0,0,0c2.6-0.4,4.3-2.8,3.9-5.3C459.8,759.6,457.8,757.9,455.5,757.9L455.5,757.9z
			 M483.1,752.7c-0.4,0-0.7,0-1.1,0.1l-0.2,0.1c-2.5,0.6-4.1,3.1-3.5,5.6c0.5,2.2,2.4,3.6,4.6,3.6c0.4,0,0.7,0,1.1-0.1
			c0,0,0,0,0.1,0c0.1,0,0.1,0,0.2,0c2.5-0.6,4.1-3.1,3.5-5.6C487.2,754.1,485.3,752.7,483.1,752.7L483.1,752.7z M510.2,745.3
			c-0.5,0-0.9,0.1-1.4,0.2l-0.2,0.1c-2.5,0.8-3.9,3.4-3.1,5.9c0.6,2,2.5,3.3,4.5,3.3c0.5,0,0.9-0.1,1.4-0.2c0,0,0,0,0.1,0
			c0.1,0,0.1,0,0.2-0.1c2.5-0.8,3.9-3.4,3.1-5.9C514.1,746.5,512.2,745.3,510.2,745.3L510.2,745.3z M536.7,735.8
			c-0.6,0-1.2,0.1-1.7,0.3l-0.2,0.1c-2.4,1-3.6,3.7-2.6,6.1c0.7,1.8,2.5,3,4.4,3c0.6,0,1.2-0.1,1.7-0.3c0.1,0,0.2-0.1,0.3-0.1
			c2.4-1,3.6-3.7,2.6-6.1C540.3,736.9,538.5,735.8,536.7,735.8L536.7,735.8z M562.3,724.3c-0.7,0-1.4,0.2-2.1,0.5l-0.2,0.1
			c-2.3,1.1-3.3,4-2.1,6.3c0.8,1.7,2.5,2.6,4.2,2.6c0.7,0,1.4-0.2,2.1-0.5c0,0,0,0,0.1,0c0,0,0.1,0,0.1-0.1c0,0,0,0,0.1,0
			c2.3-1.2,3.3-4,2.1-6.3C565.7,725.3,564,724.3,562.3,724.3L562.3,724.3z M587,710.9c-0.8,0-1.6,0.2-2.4,0.7l-0.2,0.1
			c-2.2,1.3-3,4.2-1.6,6.4c0.9,1.5,2.4,2.3,4,2.3c0.8,0,1.6-0.2,2.4-0.7c0.1,0,0.1-0.1,0.2-0.1c2.2-1.3,3-4.2,1.6-6.4
			C590.1,711.8,588.6,710.9,587,710.9L587,710.9z M610.6,695.7c-0.9,0-1.9,0.3-2.7,0.9l-0.2,0.1c-2.1,1.5-2.6,4.4-1.1,6.5
			c0.9,1.3,2.4,2,3.9,2c0.9,0,1.9-0.3,2.7-0.8c0,0,0.1-0.1,0.1-0.1c0,0,0.1,0,0.1-0.1c2.1-1.5,2.6-4.4,1.1-6.5
			C613.5,696.4,612,695.7,610.6,695.7L610.6,695.7z M632.9,678.7c-1.1,0-2.1,0.4-3,1.1l-0.2,0.2c-2,1.6-2.3,4.6-0.6,6.6
			c0.9,1.1,2.3,1.7,3.6,1.7c1,0,2.1-0.3,3-1.1c0,0,0,0,0,0c0,0,0.1-0.1,0.1-0.1c0,0,0,0,0,0c2-1.6,2.3-4.6,0.6-6.6
			C635.6,679.3,634.3,678.7,632.9,678.7L632.9,678.7z M653.9,660c-1.2,0-2.3,0.4-3.3,1.3l-0.2,0.2c-1.9,1.8-1.9,4.8-0.1,6.6
			c0.9,1,2.2,1.4,3.4,1.4c1.2,0,2.3-0.4,3.2-1.3c0,0,0.1-0.1,0.1-0.1c0,0,0.1-0.1,0.1-0.1c0,0,0,0,0,0c1.9-1.8,1.9-4.8,0.1-6.6
			C656.4,660.5,655.2,660,653.9,660L653.9,660z M673.4,639.8c-1.3,0-2.6,0.5-3.5,1.6l-0.2,0.2c-1.7,1.9-1.6,4.9,0.4,6.6
			c0.9,0.8,2,1.2,3.1,1.2c1.3,0,2.6-0.5,3.5-1.6c0,0,0,0,0.1-0.1c0,0,0.1-0.1,0.1-0.1c1.7-1.9,1.6-4.9-0.4-6.6
			C675.7,640.2,674.5,639.8,673.4,639.8L673.4,639.8z M691.4,618.2c-1.4,0-2.8,0.6-3.7,1.8l-0.2,0.2c-1.6,2.1-1.2,5,0.9,6.6
			c0.9,0.7,1.9,1,2.9,1c1.4,0,2.8-0.6,3.7-1.8c0.1-0.1,0.1-0.2,0.2-0.2c1.6-2.1,1.2-5-0.9-6.6C693.4,618.5,692.4,618.2,691.4,618.2
			L691.4,618.2z M707.6,595.3c-1.5,0-3,0.8-3.9,2.1l-0.1,0.2c-1.4,2.2-0.8,5.1,1.4,6.5c0.8,0.5,1.7,0.8,2.6,0.8c1.5,0,3-0.7,3.9-2.1
			c0,0,0,0,0,0c0,0,0.1-0.1,0.1-0.1c0,0,0-0.1,0.1-0.1c1.4-2.2,0.8-5.1-1.4-6.5C709.3,595.5,708.5,595.3,707.6,595.3L707.6,595.3z
			 M722,571.2c-1.7,0-3.3,0.9-4.1,2.4l-0.1,0.2c-1.2,2.3-0.4,5.1,1.9,6.4c0.7,0.4,1.5,0.6,2.3,0.6c1.7,0,3.3-0.9,4.1-2.4
			c0,0,0,0,0,0c0-0.1,0.1-0.1,0.1-0.2c1.2-2.3,0.4-5.1-1.9-6.4C723.5,571.3,722.8,571.2,722,571.2L722,571.2z M734.5,546
			c-1.8,0-3.5,1-4.3,2.8l-0.1,0.2c-1.1,2.4,0,5.1,2.3,6.2c0.6,0.3,1.3,0.4,1.9,0.4c1.8,0,3.5-1,4.3-2.7c0-0.1,0.1-0.1,0.1-0.2
			c0,0,0,0,0,0c1.1-2.4,0-5.1-2.3-6.2C735.8,546.2,735.2,546,734.5,546L734.5,546z M745.1,520c-1.9,0-3.7,1.2-4.4,3.1l-0.1,0.2
			c-0.9,2.4,0.4,5.1,2.8,6c0.5,0.2,1.1,0.3,1.6,0.3c1.9,0,3.7-1.2,4.4-3.1c0,0,0,0,0,0c0-0.1,0.1-0.2,0.1-0.2c0.9-2.4-0.4-5.1-2.8-6
			C746.1,520.1,745.6,520,745.1,520L745.1,520z M753.6,493.2c-2.1,0-4,1.4-4.5,3.4l-0.1,0.2c-0.7,2.5,0.8,5.1,3.3,5.8
			c0.4,0.1,0.8,0.2,1.3,0.2c2.1,0,3.9-1.4,4.5-3.4c0-0.1,0-0.1,0.1-0.2c0,0,0,0,0-0.1c0.7-2.5-0.8-5.1-3.3-5.8
			C754.4,493.3,754,493.2,753.6,493.2L753.6,493.2z M760,465.9c-2.2,0-4.2,1.6-4.6,3.8l0,0.2c-0.5,2.5,1.2,5,3.7,5.5
			c0.3,0.1,0.6,0.1,0.9,0.1c2.2,0,4.2-1.5,4.6-3.8c0,0,0-0.1,0-0.1c0,0,0-0.1,0-0.1c0,0,0-0.1,0-0.1c0.5-2.5-1.2-5-3.7-5.5
			C760.6,465.9,760.3,465.9,760,465.9L760,465.9z M764.3,438.1c-2.4,0-4.4,1.8-4.7,4.2l0,0.2c-0.3,2.6,1.5,4.9,4.1,5.2
			c0.2,0,0.4,0,0.6,0c2.4,0,4.4-1.8,4.7-4.2c0-0.1,0-0.1,0-0.2c0,0,0,0,0-0.1c0.3-2.6-1.6-4.9-4.1-5.2
			C764.7,438.2,764.5,438.1,764.3,438.1L764.3,438.1z M766.5,410.1c-2.5,0-4.6,2-4.7,4.5l0,0.3c-0.1,2.6,1.9,4.8,4.5,4.9
			c0.1,0,0.1,0,0.2,0c2.5,0,4.6-2,4.7-4.5c0,0,0,0,0-0.1c0,0,0-0.1,0-0.1c0,0,0-0.1,0-0.1c0.1-2.6-1.9-4.8-4.5-4.9
			C766.6,410.1,766.6,410.1,766.5,410.1L766.5,410.1z M766.6,382c-0.1,0-0.1,0-0.2,0c-2.6,0.1-4.6,2.3-4.5,4.9l0,0.3
			c0.1,2.5,2.2,4.5,4.7,4.5c0.1,0,0.1,0,0.2,0c2.6-0.1,4.6-2.3,4.5-4.9c0,0,0,0,0,0c0-0.1,0-0.2,0-0.3
			C771.2,384,769.1,382,766.6,382L766.6,382z M764.5,354c-0.2,0-0.4,0-0.5,0c-2.6,0.3-4.4,2.6-4.1,5.2l0,0.3
			c0.3,2.4,2.3,4.2,4.7,4.2c0.2,0,0.3,0,0.5,0c2.6-0.3,4.4-2.6,4.1-5.2c0-0.1,0-0.2,0-0.3C768.9,355.8,766.9,354,764.5,354
			L764.5,354z M760.3,326.3c-0.3,0-0.6,0-0.9,0.1c-2.5,0.5-4.2,2.9-3.7,5.5l0,0.2c0.4,2.3,2.4,3.8,4.6,3.8c0.3,0,0.6,0,0.9-0.1
			c2.5-0.5,4.2-2.9,3.7-5.5c0-0.1,0-0.2-0.1-0.3C764.5,327.8,762.5,326.3,760.3,326.3L760.3,326.3z M754,298.9
			c-0.4,0-0.8,0.1-1.2,0.2c-2.5,0.7-4,3.3-3.3,5.8l0.1,0.2c0.6,2.1,2.5,3.5,4.5,3.5c0.4,0,0.8-0.1,1.2-0.2c2.5-0.7,4-3.3,3.3-5.8
			c0,0,0,0,0,0c0-0.1,0-0.1-0.1-0.2C758,300.3,756.1,298.9,754,298.9L754,298.9z M745.6,272.1c-0.5,0-1.1,0.1-1.6,0.3
			c-2.4,0.9-3.7,3.6-2.8,6l0.1,0.2c0.7,1.9,2.5,3.1,4.4,3.1c0.5,0,1.1-0.1,1.6-0.3c2.4-0.9,3.7-3.5,2.9-6c0,0,0-0.1,0-0.1
			c0,0,0-0.1,0-0.1c0,0,0,0,0,0C749.3,273.3,747.5,272.1,745.6,272.1L745.6,272.1z M735.2,246c-0.6,0-1.3,0.1-1.9,0.4
			c-2.4,1.1-3.4,3.8-2.4,6.2l0.1,0.2c0.8,1.7,2.5,2.8,4.3,2.8c0.6,0,1.3-0.1,1.9-0.4c2.4-1.1,3.4-3.8,2.4-6.2c0-0.1-0.1-0.2-0.1-0.3
			C738.7,247.1,737,246,735.2,246L735.2,246z M722.7,220.8c-0.8,0-1.5,0.2-2.2,0.6c-2.3,1.2-3.1,4.1-1.9,6.4l0.1,0.2
			c0.9,1.6,2.5,2.5,4.1,2.5c0.8,0,1.5-0.2,2.2-0.6c2.3-1.2,3.1-4.1,1.9-6.3c0-0.1-0.1-0.1-0.1-0.2c0,0,0,0,0,0
			C726,221.7,724.4,220.8,722.7,220.8L722.7,220.8z M708.4,196.7c-0.9,0-1.8,0.2-2.5,0.8c-2.2,1.4-2.8,4.3-1.4,6.5l0.1,0.2
			c0.9,1.4,2.4,2.2,4,2.2c0.9,0,1.8-0.2,2.5-0.7c2.2-1.4,2.8-4.3,1.4-6.5c0-0.1-0.1-0.1-0.1-0.2c0,0,0-0.1-0.1-0.1
			C711.5,197.4,710,196.7,708.4,196.7L708.4,196.7z M692.3,173.7c-1,0-2,0.3-2.8,1c-2.1,1.6-2.5,4.5-0.9,6.6l0.2,0.2
			c0.9,1.2,2.3,1.9,3.7,1.9c1,0,2-0.3,2.8-1c2.1-1.6,2.5-4.5,0.9-6.6c-0.1-0.1-0.1-0.2-0.2-0.2C695.1,174.3,693.7,173.7,692.3,173.7
			L692.3,173.7z M674.5,152c-1.1,0-2.2,0.4-3.1,1.2c-1.9,1.7-2.1,4.7-0.4,6.6l0.2,0.2c0.9,1,2.2,1.6,3.5,1.6c1.1,0,2.2-0.4,3.1-1.2
			c1.9-1.7,2.1-4.7,0.4-6.6c0-0.1-0.1-0.1-0.1-0.2c0,0,0,0,0,0C677.1,152.5,675.8,152,674.5,152L674.5,152z M655.1,131.7
			c-1.2,0-2.5,0.5-3.4,1.4c-1.8,1.9-1.8,4.8,0.1,6.6l0.2,0.2c0.9,0.9,2.1,1.3,3.3,1.3c1.2,0,2.5-0.5,3.4-1.4
			c1.8-1.9,1.8-4.8-0.1-6.6c-0.1-0.1-0.1-0.1-0.2-0.2C657.4,132.1,656.2,131.7,655.1,131.7L655.1,131.7z M634.1,112.9
			c-1.3,0-2.7,0.6-3.6,1.7c-1.7,2-1.4,5,0.6,6.6l0.2,0.2c0.9,0.7,1.9,1.1,3,1.1c1.3,0,2.7-0.6,3.6-1.7c1.7-2,1.4-5-0.6-6.6
			c0,0-0.1-0.1-0.2-0.1c0,0,0,0,0,0C636.3,113.3,635.2,112.9,634.1,112.9L634.1,112.9z M611.9,95.8c-1.5,0-2.9,0.7-3.8,2
			c-1.5,2.1-1,5.1,1.1,6.6l0.2,0.1c0.8,0.6,1.8,0.9,2.7,0.9c1.5,0,2.9-0.7,3.8-2c1.5-2.1,1-5-1.1-6.6c0,0,0,0,0,0
			c-0.1,0-0.1-0.1-0.2-0.1C613.7,96.1,612.8,95.8,611.9,95.8L611.9,95.8z M588.3,80.5c-1.6,0-3.2,0.8-4,2.3
			c-1.3,2.2-0.6,5.1,1.6,6.4l0.2,0.1c0.8,0.5,1.6,0.7,2.4,0.7c1.6,0,3.2-0.8,4-2.3c1.3-2.2,0.6-5.1-1.6-6.4c-0.1,0-0.2-0.1-0.3-0.2
			C590,80.7,589.2,80.5,588.3,80.5L588.3,80.5z M563.7,67c-1.7,0-3.4,1-4.2,2.6c-1.2,2.3-0.2,5.1,2.1,6.3l0.2,0.1
			c0.7,0.3,1.4,0.5,2.1,0.5c1.7,0,3.4-1,4.2-2.6c1.2-2.3,0.2-5.1-2.1-6.3c-0.1,0-0.1-0.1-0.2-0.1c0,0-0.1,0-0.1,0
			C565.1,67.1,564.4,67,563.7,67L563.7,67z M538.1,55.4c-1.9,0-3.6,1.1-4.4,2.9c-1,2.4,0.2,5.1,2.6,6.1l0.2,0.1
			c0.6,0.2,1.2,0.3,1.8,0.3c1.9,0,3.6-1.1,4.4-2.9c1-2.4-0.2-5.1-2.6-6.1c-0.1,0-0.2-0.1-0.3-0.1C539.3,55.5,538.7,55.4,538.1,55.4
			L538.1,55.4z M511.7,45.8c-2,0-3.8,1.3-4.5,3.3c-0.8,2.5,0.6,5.1,3,5.9l0.2,0.1c0.5,0.2,1,0.2,1.4,0.2c2,0,3.8-1.3,4.5-3.3
			c0.8-2.5-0.6-5.1-3-5.9l0,0c0,0-0.1,0-0.1,0c-0.1,0-0.1,0-0.1,0C512.7,45.9,512.2,45.8,511.7,45.8L511.7,45.8z M484.7,38.3
			c-2.1,0-4.1,1.5-4.6,3.6c-0.6,2.5,1,5.1,3.5,5.7l0.2,0.1c0.4,0.1,0.7,0.1,1.1,0.1c2.1,0,4.1-1.5,4.6-3.6c0.6-2.5-1-5-3.5-5.6
			c-0.1,0-0.2,0-0.3-0.1c0,0,0,0,0,0C485.4,38.3,485,38.3,484.7,38.3L484.7,38.3z M457.1,32.9c-2.3,0-4.3,1.7-4.6,4
			c-0.4,2.6,1.4,5,3.9,5.4l0.2,0c0.2,0,0.5,0.1,0.7,0.1c2.3,0,4.3-1.7,4.6-4c0.4-2.6-1.3-5-3.9-5.4c-0.1,0-0.2,0-0.3,0
			C457.6,32.9,457.3,32.9,457.1,32.9L457.1,32.9z M429.2,29.6c-2.4,0-4.5,1.9-4.7,4.3c-0.2,2.6,1.7,4.9,4.3,5.1l0.3,0
			c0.1,0,0.3,0,0.4,0c2.4,0,4.5-1.9,4.7-4.3c0.2-2.6-1.7-4.8-4.3-5.1l0,0c0,0-0.1,0-0.1,0c0,0-0.1,0-0.1,0
			C429.4,29.6,429.3,29.6,429.2,29.6L429.2,29.6z"/>
	</g>
	<g>
		<path class="st1" d="M320.2,677.2c7,0,10.8,3.6,10.8,9.4v7c0,5.8-3.8,9.4-10.8,9.4c-6.9,0-10.8-3.6-10.8-9.4v-7
			C309.4,680.7,313.3,677.2,320.2,677.2z M320.2,682.1c-3.4,0-5.4,1.6-5.4,4.5v7c0,2.8,1.9,4.5,5.4,4.5c3.5,0,5.4-1.6,5.4-4.5v-7
			C325.6,683.7,323.7,682.1,320.2,682.1z"/>
		<path class="st1" d="M347.4,677.2c2.3,0,4.3,0.4,5.5,0.6v-8.9c0-1.1,0.4-1.5,1.5-1.5h2.6c1.1,0,1.4,0.4,1.4,1.5v29.9
			c0,1.6-0.3,2-1.8,2.6c-1.9,0.7-4.5,1.5-8.8,1.5c-7,0-10.2-3.5-10.2-9.5V687C337.5,680.6,340.8,677.2,347.4,677.2z M348.4,682.1
			c-3.7,0-5.4,1.6-5.4,5v6.1c0,3.1,1.8,4.7,5.2,4.7c1.7,0,3.2-0.2,4.4-0.5c0.3-0.1,0.3-0.2,0.3-0.5v-14.1
			C351.8,682.5,350.3,682.1,348.4,682.1z"/>
		<path class="st1" d="M377.1,677.2c6.8,0,9.9,3.5,9.9,9.5v6.4c0,6.3-3.3,9.8-10.4,9.8c-2,0-3.7-0.5-4.9-0.8v9
			c0,1.1-0.4,1.5-1.5,1.5h-2.5c-1.1,0-1.5-0.4-1.5-1.5v-29.9c0-1.5,0.3-2.1,1.8-2.7C369.9,677.8,372.8,677.2,377.1,677.2z
			 M376.3,682.1c-1.7,0-3.1,0.2-4.3,0.5c-0.4,0.1-0.4,0.3-0.4,0.6v13.9c1.1,0.3,2.7,0.7,4.5,0.7c3.7,0,5.4-1.6,5.4-5v-6.1
			C381.6,683.7,379.7,682.1,376.3,682.1z"/>
		<path class="st1" d="M400,671.6v0.4c0,2.2-0.7,2.9-2.8,2.9h-0.3c-2.2,0-2.9-0.7-2.9-2.9v-0.4c0-2.2,0.7-2.8,2.9-2.8h0.3
			C399.3,668.7,400,669.4,400,671.6z M399.7,679.3v21.5c0,1.1-0.4,1.5-1.5,1.5h-2.5c-1.1,0-1.5-0.4-1.5-1.5v-21.5
			c0-1.1,0.4-1.4,1.5-1.4h2.5C399.4,677.9,399.7,678.2,399.7,679.3z"/>
		<path class="st1" d="M413.5,699.1v0.4c0,2.3-0.7,3-3,3h-0.3c-2.3,0-3-0.7-3-3v-0.4c0-2.3,0.8-3,3-3h0.3
			C412.8,696.1,413.5,696.8,413.5,699.1z"/>
		<path class="st1" d="M430.9,677.2c7,0,10.8,3.6,10.8,9.4v7c0,5.8-3.8,9.4-10.8,9.4c-6.9,0-10.8-3.6-10.8-9.4v-7
			C420.1,680.7,423.9,677.2,430.9,677.2z M430.9,682.1c-3.4,0-5.4,1.6-5.4,4.5v7c0,2.8,1.9,4.5,5.4,4.5c3.5,0,5.4-1.6,5.4-4.5v-7
			C436.3,683.7,434.4,682.1,430.9,682.1z"/>
		<path class="st1" d="M460.9,677.2c1.1,0,1.5,0.3,1.5,1.5v2.1c0,1.1-0.4,1.5-1.5,1.5h-1.7c-1.8,0-3.2,0.2-4.5,0.6
			c-0.4,0.1-0.4,0.3-0.4,0.6v17.5c0,1.1-0.4,1.5-1.5,1.5h-2.5c-1.1,0-1.5-0.4-1.5-1.5v-19.5c0-1.5,0.3-2.1,1.8-2.7
			c1.7-0.7,4.5-1.3,8.7-1.4H460.9z"/>
		<path class="st1" d="M477.3,677.2c3.8,0,6.9,0.7,8.5,1.5c1.5,0.7,1.7,1.1,1.7,2.6V703c0,6.2-2.9,10.2-10.3,10.2
			c-5.1,0-8.1-1.7-9.7-4.5c-0.7-1-0.5-1.8,0.6-2.3l1.8-1c1.1-0.6,1.6-0.4,2.3,0.6c1,1.5,2.4,2.4,4.9,2.4c3.3,0,5-1.7,5-5.1v-2.3
			c-1.4,0.4-3.3,0.8-5.6,0.8c-6.7,0-9.8-3.5-9.8-9.4V687C466.7,680.6,470.1,677.2,477.3,677.2z M477.7,682.1c-3.8,0-5.5,1.6-5.5,5.1
			v5c0,3,1.8,4.6,5.1,4.6c2,0,3.7-0.4,4.8-0.7v-12.9c0-0.3,0-0.4-0.4-0.6C480.6,682.4,479.2,682.1,477.7,682.1z"/>
	</g>
	<g>
		<path class="st1" d="M677.5,446.1H430.9c-4.9,0-8.8,4-8.8,8.8v45.1c0,4.9,4,8.8,8.8,8.8h246.6c4.9,0,8.8-4,8.8-8.8V455
			C686.4,450.1,682.4,446.1,677.5,446.1z M494.5,491.5c0,1-0.4,1.4-1.4,1.4h-2.1c-1,0-1.4-0.4-1.4-1.4v-12.3c0-2.3,0.3-4.9,1-8h-0.3
			c-1,3-2,5-3.3,7.4l-3.9,7c-0.4,0.7-0.7,1-1.6,1h-1.2c-0.8,0-1.1-0.2-1.6-1l-4-7c-1.4-2.3-2.1-4.1-3.1-7.3h-0.3
			c0.6,3.1,0.9,5.5,0.9,8.1v12.2c0,1-0.3,1.4-1.4,1.4h-2c-1,0-1.4-0.4-1.4-1.4v-25.9c0-1,0.4-1.4,1.4-1.4h1.8c1.1,0,1.5,0.2,1.9,1.1
			l8.4,15l8.4-15c0.5-0.9,0.8-1.1,1.8-1.1h2c1,0,1.4,0.4,1.4,1.4V491.5z M521.8,491.5c0,1-0.4,1.4-1.4,1.4h-16.5
			c-1,0-1.4-0.4-1.4-1.4v-25.9c0-1,0.4-1.4,1.4-1.4h16c1,0,1.4,0.4,1.4,1.4v2c0,1-0.3,1.4-1.4,1.4h-12.4v7H518c1,0,1.4,0.4,1.4,1.4
			v2c0,1-0.3,1.4-1.4,1.4h-10.4v7.4h12.8c1,0,1.4,0.4,1.4,1.4V491.5z M555.4,491.5c0,1-0.4,1.4-1.4,1.4H552c-1,0-1.4-0.4-1.4-1.4
			v-12.3c0-2.3,0.3-4.9,1-8h-0.3c-1,3-2,5-3.3,7.4l-4,7c-0.4,0.7-0.7,1-1.6,1h-1.3c-0.8,0-1.1-0.2-1.6-1l-4-7
			c-1.4-2.3-2.1-4.1-3.1-7.3h-0.3c0.6,3.1,0.9,5.5,0.9,8.1v12.2c0,1-0.3,1.4-1.4,1.4h-2c-1,0-1.4-0.4-1.4-1.4v-25.9
			c0-1,0.4-1.4,1.4-1.4h1.8c1.1,0,1.5,0.2,1.9,1.1l8.4,15l8.4-15c0.5-0.9,0.8-1.1,1.8-1.1h2c1,0,1.4,0.4,1.4,1.4V491.5z
			 M576.3,492.9h-11.4c-1,0-1.4-0.4-1.4-1.4v-25.9c0-1,0.4-1.4,1.4-1.4H576c5.2,0,8.2,2.7,8.2,7.5c0,2.9-0.9,4.8-3,6.1v0.2
			c2.6,0.9,4.1,3.3,4.1,7C585.3,490.1,581.5,492.9,576.3,492.9z M611.3,491.5c0,1-0.4,1.4-1.4,1.4h-16.5c-1,0-1.4-0.4-1.4-1.4v-25.9
			c0-1,0.4-1.4,1.4-1.4h16c1,0,1.4,0.4,1.4,1.4v2c0,1-0.3,1.4-1.4,1.4h-12.4v7h10.4c1,0,1.4,0.4,1.4,1.4v2c0,1-0.3,1.4-1.4,1.4
			h-10.4v7.4h12.8c1,0,1.4,0.4,1.4,1.4V491.5z M639.1,492.9h-2.3c-1.7,0-2.3-0.2-2.8-1.2l-3.3-6.9c-1.1-2.2-2.1-2.8-4.8-2.8h-3v9.5
			c0,1-0.3,1.4-1.4,1.4h-2.3c-1,0-1.4-0.4-1.4-1.4v-25.9c0-1,0.4-1.4,1.4-1.4h11.2c5.6,0,9,3.3,9,8.9c0,4.2-1.9,7-5.3,8.1
			c0.5,0.4,0.9,1,1.3,1.7l4.4,8.5C640.2,492.2,640.1,492.9,639.1,492.9z"/>
		<path class="st1" d="M576.1,480.6h-7.6v7.5h7.6c2.5,0,3.9-1.3,3.9-3.7C580,482,578.6,480.6,576.1,480.6z"/>
		<path class="st1" d="M579.1,472.5c0-2.4-1.3-3.5-3.7-3.5h-6.9v7.1h6.9C577.8,476,579.1,474.9,579.1,472.5z"/>
		<path class="st1" d="M629.9,469h-7v8.3h7c2.7,0,4.2-1.5,4.2-4.2C634.2,470.4,632.6,469,629.9,469z"/>
	</g>
	<g>
		<path class="st1" d="M459.2,333.1c23.3,0,36.3,13,36.3,33.8v28.2c0,20.9-13,33.8-36.3,33.8c-23.4,0-36.4-13-36.4-33.8v-28.2
			C422.8,346.1,435.8,333.1,459.2,333.1z M459.2,348.3c-13,0-20.4,6.5-20.4,18.5v28.5c0,12,7.4,18.5,20.4,18.5
			c13.1,0,20.4-6.5,20.4-18.5v-28.5C479.6,354.8,472.3,348.3,459.2,348.3z"/>
		<path class="st1" d="M579,369.3v23.6c0,21.1-13.2,34.2-36.9,34.2h-28.6c-3.2,0-4.3-1.2-4.3-4.4v-83.2c0-3.2,1.1-4.4,4.3-4.4h28.6
			C565.7,335.1,579,348.2,579,369.3z M542.2,350.2h-17.1v61.7h17.1c13.4,0,20.9-6.6,20.9-18.9v-23.8
			C563.1,356.8,555.6,350.2,542.2,350.2z"/>
		<path class="st1" d="M660.6,365.1c0,18.8-11.5,29.9-30,29.9h-22.1v27.6c0,3.2-1,4.4-4.3,4.4h-7.3c-3.2,0-4.3-1.2-4.3-4.4v-83.2
			c0-3.2,1.1-4.4,4.3-4.4h33.7C649,335.1,660.6,346.3,660.6,365.1z M644,365.1c0-9.3-5.6-14.9-14.9-14.9h-20.6v29.7h20.6
			C638.4,379.9,644,374.5,644,365.1z"/>
		<path class="st1" d="M688.1,342.6v1.2c0,6-1.8,7.9-7.6,7.9h-0.9c-5.9,0-7.8-1.9-7.8-7.9v-1.2c0-6,1.9-7.8,7.8-7.8h0.9
			C686.3,334.8,688.1,336.6,688.1,342.6z M687.4,363.8V423c0,3-1,4-3.9,4h-6.9c-2.9,0-3.9-1-3.9-4v-59.2c0-3,1-3.9,3.9-3.9h6.9
			C686.4,360,687.4,360.9,687.4,363.8z"/>
	</g>
	<path class="st1" d="M454,176.2c-5,0.1-9,4.1-8.9,9.1c0,0.5,0.1,1,0.2,1.5l-10.5,10.7c-1.9-0.3-40.7-6.1-100.5,19.6
		c20.1,5,40.3,16.5,57,32.8c16.5,16.1,28.4,35.8,34,55.6c24.8-61.8,17-100.7,17-100.7l-0.1-0.1l10.4-10.6c0.5,0.1,1.1,0.2,1.7,0.1
		c5-0.1,9-4.1,8.9-9.1C463,180.1,458.9,176.1,454,176.2z"/>
	<path class="st1" d="M386.1,255c-18.4-18-41.4-29.9-63.3-32.8c-32.4,15.4-70.1,40-111,78.9l0.1-0.5c-21.6-9-33.8-4.4-33.8-4.4
		l-90.5,90l22,4.6l65.1-34.9l23.2,15.7l-3,15.5c7.8,10.7,18.7,20.2,29.2,31.3c10,10.6,21.3,20.5,31.9,29.1l16.5-3.2l16.7,23.5
		l-33.4,65.9l5.1,21.9l87.9-92.6c0,0,4.1-12-4.9-33c38-42,61.7-80.4,76.3-113.2C416.7,295.1,404.4,272.8,386.1,255z M211.8,301.4
		l0-0.2l0.1,0.1C211.9,301.4,211.8,301.4,211.8,301.4z M361.7,357.5c-21,21.5-55.3,21.9-76.8,0.9c-21.5-21-21.9-55.3-0.9-76.8
		c21-21.4,55.3-21.9,76.8-0.9C382.3,301.6,382.7,336,361.7,357.5z"/>
	<path class="st1" d="M288.5,286c-9,9.2-13.8,21.3-13.7,34.1c0.2,12.8,5.3,24.8,14.5,33.8l0,0c18.9,18.5,49.4,18.1,67.9-0.8
		c18.5-18.9,18.1-49.4-0.8-67.9C337.5,266.7,307,267,288.5,286z M292.5,350.6l2-2.1c-7.8-7.6-12.1-17.7-12.2-28.6
		c-0.1-10.8,4-21.1,11.6-28.8c15.6-16,41.4-16.3,57.4-0.7c16,15.6,16.3,41.4,0.7,57.4c-15.6,16-41.4,16.3-57.4,0.7L292.5,350.6
		l-0.6,0.6L292.5,350.6z"/>
	<path class="st1" d="M200.2,413.3c-2.7-2.7-5.3-5.4-7.8-8.1l-82.8,56.3c-2.5,1.7-3.2,5.2-1.5,7.7c0.2,0.3,0.5,0.6,0.7,0.9
		c1.9,1.8,4.8,2.1,7,0.6l83.9-57.1C199.9,413.6,200,413.4,200.2,413.3z"/>
	<path class="st1" d="M219,432.5c-1.6-1.6-3.2-3.2-4.7-4.8c-0.9-0.9-1.8-1.8-2.6-2.7c-0.6,0.3-1.2,0.6-1.6,1.1l-82.5,84.5
		c-2.2,2.2-2.1,5.7,0.1,7.9c0,0,0,0,0,0c2.2,2.2,5.7,2.1,7.9-0.1l82.5-84.5C218.5,433.5,218.8,433,219,432.5z"/>
	<path class="st1" d="M230.7,443.9l-55.1,85.2c-1.5,2.3-1.1,5.2,0.8,7c0.3,0.3,0.6,0.5,0.9,0.7c2.6,1.7,6,0.9,7.7-1.7l54.4-84.1
		c-2.8-2.4-5.7-4.8-8.5-7.4C230.9,443.8,230.8,443.8,230.7,443.9z"/>
</g>
</svg>
