<?xml version="1.0" encoding="UTF-8" standalone="no"?>
<svg
   xmlns:dc="http://purl.org/dc/elements/1.1/"
   xmlns:cc="http://creativecommons.org/ns#"
   xmlns:rdf="http://www.w3.org/1999/02/22-rdf-syntax-ns#"
   xmlns:svg="http://www.w3.org/2000/svg"
   xmlns="http://www.w3.org/2000/svg"
   viewBox="0 0 990.06665 990.69336"
   height="990.69336"
   width="990.06665"
   xml:space="preserve"
   id="svg2"
   version="1.1"><metadata
     id="metadata8"><rdf:RDF><cc:Work
         rdf:about=""><dc:format>image/svg+xml</dc:format><dc:type
           rdf:resource="http://purl.org/dc/dcmitype/StillImage" /></cc:Work></rdf:RDF></metadata><defs
     id="defs6" /><g
     transform="matrix(1.3333333,0,0,-1.3333333,0,990.69333)"
     id="g10"><g
       transform="scale(0.1)"
       id="g12"><path
         id="path14"
         style="fill:#211c1d;fill-opacity:1;fill-rule:nonzero;stroke:none"
         d="m 4004.67,7418.77 c -24.27,0 -44.84,-18.67 -46.78,-43.28 -2.04,-25.88 17.29,-48.51 43.16,-50.56 l 2.51,-0.2 c 1.26,-0.09 2.52,-0.14 3.76,-0.14 24.27,0 44.85,18.67 46.81,43.28 2.05,25.86 -17.24,48.49 -43.1,50.55 l -0.18,0.01 c -0.49,0.04 -0.98,0.08 -1.47,0.12 -0.36,0.03 -0.76,0.06 -1.13,0.09 -1.2,0.09 -2.39,0.13 -3.58,0.13 z m 278.96,-32.72 c -22.74,0 -42.73,-16.55 -46.35,-39.72 -4.01,-25.65 13.53,-49.69 39.17,-53.7 l 2.49,-0.4 c 2.46,-0.38 4.91,-0.57 7.33,-0.57 22.74,0 42.74,16.55 46.38,39.72 4.02,25.58 -13.41,49.56 -38.94,53.67 -1.08,0.17 -1.92,0.3 -3,0.47 -2.38,0.36 -4.74,0.53 -7.08,0.53 z m 275.62,-54 c -21.28,0 -40.56,-14.57 -45.67,-36.18 -5.97,-25.26 9.67,-50.58 34.92,-56.56 l 2.45,-0.58 c 3.64,-0.85 7.28,-1.27 10.87,-1.27 21.28,0 40.58,14.56 45.7,36.18 5.97,25.17 -9.54,50.4 -34.65,56.49 -0.93,0.22 -1.66,0.39 -2.59,0.61 -0.05,0.01 -0.11,0.03 -0.17,0.04 -3.63,0.86 -7.27,1.27 -10.86,1.27 z m 270.64,-75.06 c -19.88,-0.01 -38.35,-12.74 -44.73,-32.7 -7.89,-24.72 5.74,-51.16 30.46,-59.07 l 2.4,-0.77 c 4.76,-1.52 9.58,-2.25 14.32,-2.25 19.9,0 38.37,12.73 44.76,32.69 7.91,24.7 -5.68,51.12 -30.36,59.05 l -0.28,0.08 c -0.32,0.11 -0.63,0.21 -0.95,0.31 -0.57,0.18 -0.92,0.29 -1.48,0.47 -4.7,1.49 -9.46,2.19 -14.14,2.19 z m 264.04,-95.7 c -18.54,0 -36.1,-11.06 -43.52,-29.29 -9.78,-24.04 1.78,-51.46 25.81,-61.25 l 2.33,-0.95 c 5.81,-2.37 11.81,-3.48 17.71,-3.48 18.54,0 36.12,11.04 43.55,29.27 9.77,23.98 -1.7,51.34 -25.63,61.18 -0.99,0.4 -1.81,0.73 -2.79,1.13 -5.73,2.3 -11.64,3.39 -17.46,3.39 z m 255.91,-115.77 c -17.24,0 -33.83,-9.52 -42.06,-25.99 -11.6,-23.22 -2.18,-51.45 21.03,-63.06 l 2.25,-1.12 c 6.75,-3.38 13.92,-4.97 20.99,-4.97 17.23,0 33.83,9.51 42.07,25.97 11.58,23.14 2.27,51.26 -20.78,62.93 -0.53,0.26 -1.01,0.51 -1.53,0.77 -0.34,0.16 -0.67,0.33 -1,0.5 -6.75,3.37 -13.91,4.97 -20.97,4.97 z m 246.25,-135.09 c -15.96,0 -31.52,-8.13 -40.33,-22.82 -13.34,-22.26 -6.12,-51.13 16.13,-64.48 l 2.16,-1.3 c 7.57,-4.54 15.91,-6.7 24.14,-6.7 15.97,0 31.53,8.13 40.35,22.81 13.34,22.21 6.17,51.02 -16,64.4 -0.8,0.48 -1.71,1.03 -2.51,1.51 -7.52,4.46 -15.78,6.58 -23.94,6.58 z m 235.19,-153.53 c -14.72,0 -29.21,-6.9 -38.36,-19.82 -15.01,-21.17 -10.02,-50.51 11.15,-65.52 l 2.06,-1.46 c 8.25,-5.85 17.75,-8.67 27.15,-8.67 14.72,0 29.21,6.89 38.37,19.8 15.03,21.17 10.04,50.5 -11.13,65.51 -0.13,0.09 -0.26,0.19 -0.39,0.28 -0.57,0.41 -1.28,0.91 -1.85,1.31 -8.22,5.79 -17.65,8.57 -27,8.57 z m 222.78,-171.04 c -13.49,0 -26.88,-5.78 -36.17,-16.97 -16.57,-19.97 -13.83,-49.6 6.14,-66.19 l 1.93,-1.61 c 8.78,-7.29 19.43,-10.84 30.02,-10.84 13.48,0 26.88,5.77 36.17,16.95 16.59,19.96 13.86,49.58 -6.1,66.16 -0.45,0.37 -1.12,0.93 -1.56,1.3 -0.15,0.11 -0.29,0.23 -0.44,0.36 -8.77,7.28 -19.41,10.84 -29.99,10.84 z m 209.12,-187.51 c -12.28,0 -24.54,-4.79 -33.76,-14.31 -18.05,-18.65 -17.56,-48.4 1.08,-66.46 l 1.81,-1.75 c 9.13,-8.84 20.92,-13.24 32.7,-13.24 12.28,0 24.54,4.78 33.76,14.29 18.04,18.63 17.59,48.33 -1.01,66.39 -0.58,0.57 -1.34,1.3 -1.93,1.87 -9.12,8.82 -20.89,13.21 -32.65,13.21 z m 194.25,-202.87 c -11.08,0 -22.21,-3.9 -31.15,-11.84 -19.42,-17.22 -21.2,-46.93 -3.98,-66.35 l 1.67,-1.88 c 9.29,-10.48 22.21,-15.82 35.19,-15.82 11.08,0 22.21,3.89 31.16,11.82 19.38,17.17 21.21,46.78 4.1,66.2 -0.46,0.52 -0.98,1.11 -1.44,1.63 -0.13,0.14 -0.25,0.28 -0.38,0.43 -9.28,10.47 -22.19,15.81 -35.17,15.81 z m 178.26,-217.06 c -9.9,0 -19.88,-3.12 -28.37,-9.57 -20.67,-15.69 -24.71,-45.18 -9.02,-65.85 l 1.52,-2.01 c 9.25,-12.18 23.28,-18.59 37.49,-18.59 9.89,0 19.87,3.11 28.36,9.55 20.63,15.64 24.71,45 9.17,65.66 -0.57,0.74 -1.28,1.69 -1.85,2.43 -9.24,12.05 -23.19,18.38 -37.3,18.38 z m 161.2,-230.01 c -8.72,0 -17.55,-2.42 -25.43,-7.51 -21.8,-14.07 -28.08,-43.16 -14.02,-64.97 l 1.37,-2.11 c 8.99,-13.94 24.11,-21.54 39.55,-21.54 8.72,0 17.54,2.42 25.42,7.5 21.81,14.05 28.1,43.13 14.03,64.94 -0.33,0.5 -0.65,1.01 -0.97,1.51 -0.13,0.2 -0.41,0.63 -0.54,0.83 -8.99,13.82 -24.04,21.36 -39.41,21.35 z m 143.15,-241.63 c -7.56,0 -15.22,-1.83 -22.34,-5.68 -22.81,-12.36 -31.3,-40.89 -18.95,-63.71 l 1.2,-2.22 c 8.51,-15.71 24.68,-24.64 41.39,-24.64 7.55,0 15.21,1.83 22.31,5.67 22.77,12.31 31.28,40.7 19.07,63.49 -0.39,0.72 -0.79,1.47 -1.18,2.19 -0.05,0.09 -0.1,0.18 -0.15,0.27 -8.5,15.71 -24.66,24.63 -41.35,24.63 z m 124.21,-251.9 c -6.4,0 -12.9,-1.31 -19.12,-4.09 -23.7,-10.57 -34.35,-38.36 -23.78,-62.06 l 1.02,-2.3 c 7.8,-17.5 24.97,-27.89 42.97,-27.89 6.38,0 12.88,1.31 19.09,4.08 23.64,10.52 34.3,38.17 23.89,61.83 -0.38,0.86 -0.8,1.8 -1.18,2.66 -7.82,17.43 -24.94,27.77 -42.89,27.77 z m 104.47,-260.71 c -5.24,0 -10.56,-0.88 -15.78,-2.74 -24.45,-8.72 -37.21,-35.6 -28.5,-60.05 l 0.85,-2.37 c 6.85,-19.25 24.96,-31.25 44.28,-31.25 5.23,0 10.55,0.88 15.75,2.73 24.41,8.68 37.17,35.46 28.57,59.87 -0.16,0.44 -0.29,0.81 -0.45,1.26 -0.11,0.31 -0.22,0.61 -0.33,0.92 -0.08,0.23 -0.09,0.25 -0.17,0.47 -6.86,19.19 -24.94,31.16 -44.22,31.16 z m 84.05,-267.97 c -4.07,0 -8.22,-0.53 -12.34,-1.65 -25.04,-6.81 -39.84,-32.63 -33.04,-57.67 l 0.66,-2.43 c 5.67,-20.93 24.64,-34.71 45.34,-34.71 4.06,0 8.2,0.53 12.31,1.65 25.05,6.78 39.85,32.59 33.06,57.64 -0.04,0.12 -0.07,0.25 -0.11,0.38 -0.22,0.8 -0.4,1.48 -0.62,2.29 -5.74,20.82 -24.63,34.51 -45.26,34.5 z m 63.15,-273.64 c -2.91,0 -5.87,-0.27 -8.84,-0.84 -25.49,-4.85 -42.23,-29.46 -37.39,-54.95 l 0.48,-2.47 c 4.28,-22.54 23.99,-38.24 46.12,-38.24 2.91,0 5.86,0.27 8.82,0.83 25.41,4.82 42.13,29.27 37.44,54.68 -0.19,0.95 -0.38,1.95 -0.56,2.9 -4.33,22.47 -23.99,38.09 -46.07,38.09 z m 41.92,-277.71 c -1.74,0 -3.51,-0.09 -5.28,-0.29 -25.79,-2.89 -44.37,-26.14 -41.49,-51.93 l 0.28,-2.5 c 2.68,-24.03 23.03,-41.8 46.66,-41.8 1.74,0 3.49,0.09 5.26,0.29 25.79,2.87 44.36,26.1 41.48,51.9 -0.09,0.85 -0.18,1.71 -0.28,2.57 -2.68,24.01 -23.02,41.76 -46.63,41.76 z m 20.58,-280.13 c -0.56,0 -1.13,-0.01 -1.7,-0.03 -25.93,-0.92 -46.22,-22.7 -45.31,-48.63 l 0.1,-2.52 c 0.89,-25.38 21.75,-45.36 46.94,-45.36 0.55,0 1.11,0.01 1.67,0.03 25.94,0.91 46.22,22.66 45.31,48.6 0,0.06 -0.01,0.12 -0.01,0.19 -0.02,0.74 -0.06,1.85 -0.09,2.59 -0.99,25.28 -21.79,45.13 -46.91,45.13 z m -0.66,-281.05 c -25.09,-0.01 -45.92,-19.83 -46.93,-45.12 l -0.1,-2.52 c -1.04,-25.93 19.13,-47.81 45.06,-48.85 0.65,-0.03 1.29,-0.04 1.94,-0.04 25.02,0 45.79,19.71 46.89,44.92 0.01,0.12 0.02,0.49 0.03,0.61 0.01,0.39 0.03,0.78 0.04,1.17 0.02,0.37 0.03,0.7 0.05,1.07 0.98,25.89 -19.18,47.69 -45.07,48.72 -0.64,0.02 -1.27,0.04 -1.91,0.04 z m -21.83,-280.03 c -23.52,0 -43.84,-17.63 -46.63,-41.56 l -0.29,-2.5 c -3.01,-25.78 15.45,-49.12 41.22,-52.14 1.86,-0.22 3.7,-0.32 5.52,-0.32 23.51,0 43.81,17.61 46.6,41.53 0.09,0.72 0.17,1.45 0.25,2.17 0.02,0.12 0.05,0.41 0.07,0.53 2.93,25.72 -15.52,48.98 -41.25,51.97 -1.84,0.21 -3.67,0.32 -5.49,0.32 z m -43.1,-277.51 c -22.04,0 -41.71,-15.57 -46.09,-38 l -0.48,-2.47 c -4.98,-25.47 11.64,-50.16 37.11,-55.15 3.04,-0.59 6.08,-0.88 9.07,-0.88 21.97,0 41.58,15.48 46.02,37.83 0.02,0.11 0.1,0.51 0.12,0.63 0.08,0.41 0.16,0.83 0.25,1.24 0.04,0.24 0.13,0.69 0.18,0.93 4.9,25.43 -11.71,50.04 -37.14,54.99 -3.04,0.6 -6.06,0.88 -9.04,0.88 z m -64.29,-273.36 c -20.61,0 -39.52,-13.66 -45.28,-34.48 l -0.68,-2.44 c -6.92,-25.01 7.75,-50.9 32.76,-57.83 4.19,-1.17 8.42,-1.72 12.57,-1.72 20.54,0 39.39,13.58 45.2,34.3 0.22,0.81 0.36,1.32 0.59,2.12 0.05,0.18 0.09,0.36 0.14,0.53 6.92,25.01 -7.74,50.89 -32.76,57.81 -4.19,1.15 -8.4,1.71 -12.54,1.71 z m -85.18,-267.62 c -19.23,0 -37.28,-11.9 -44.2,-31.03 l -0.86,-2.37 c -8.83,-24.4 3.79,-51.35 28.19,-60.19 5.29,-1.91 10.69,-2.82 16,-2.82 19.22,0 37.26,11.89 44.17,31.01 0.01,0.01 0.01,0.03 0.02,0.05 0.28,0.77 0.59,1.64 0.87,2.42 8.81,24.39 -3.82,51.3 -28.21,60.12 -5.28,1.91 -10.67,2.81 -15.98,2.81 z M 7057.82,2254.9 c -17.91,0 -35.03,-10.29 -42.88,-27.66 l -1.03,-2.3 c -10.68,-23.65 -0.18,-51.49 23.47,-62.18 6.28,-2.84 12.86,-4.19 19.33,-4.19 17.82,0 34.85,10.2 42.74,27.44 0.34,0.75 0.64,1.42 0.98,2.17 0.06,0.13 0.12,0.26 0.18,0.4 10.68,23.65 0.17,51.48 -23.49,62.15 -6.27,2.83 -12.84,4.17 -19.3,4.17 z m -125.27,-251.35 c -16.62,-0.01 -32.73,-8.84 -41.27,-24.44 l -1.21,-2.2 c -12.47,-22.77 -4.13,-51.33 18.63,-63.81 7.17,-3.93 14.91,-5.79 22.54,-5.79 16.61,0 32.7,8.82 41.24,24.42 0.07,0.13 0.15,0.27 0.22,0.4 0.34,0.62 0.79,1.44 1.13,2.06 12.31,22.72 3.94,51.15 -18.75,63.58 -7.17,3.92 -14.9,5.78 -22.53,5.78 z m -144.19,-241.03 c -15.36,0 -30.41,-7.52 -39.42,-21.34 l -1.38,-2.11 c -14.17,-21.74 -8.04,-50.86 13.7,-65.04 7.92,-5.17 16.82,-7.64 25.62,-7.64 15.3,0 30.3,7.47 39.31,21.2 0.13,0.2 0.16,0.24 0.28,0.43 0.27,0.41 0.54,0.82 0.8,1.23 0.19,0.29 0.37,0.56 0.56,0.85 13.99,21.72 7.82,50.68 -13.85,64.8 -7.92,5.16 -16.82,7.62 -25.62,7.62 z M 6626.15,1533.2 c -14.12,0 -28.08,-6.34 -37.34,-18.4 l -1.53,-2 c -15.79,-20.6 -11.9,-50.1 8.69,-65.9 8.53,-6.55 18.58,-9.71 28.56,-9.71 14.05,0 27.95,6.28 37.2,18.24 0.63,0.83 1.19,1.56 1.83,2.39 15.62,20.59 11.68,49.95 -8.85,65.69 -8.53,6.53 -18.58,9.69 -28.56,9.69 z m -179.22,-216.29 c -12.9,0 -25.75,-5.28 -35.04,-15.65 l -1.68,-1.88 c -17.31,-19.33 -15.68,-49.04 3.65,-66.36 8.97,-8.04 20.17,-12 31.33,-12 12.87,0 25.68,5.26 34.95,15.57 0.16,0.18 0.35,0.39 0.5,0.56 0.43,0.48 0.86,0.96 1.29,1.44 17.31,19.33 15.67,49.03 -3.67,66.34 -8.97,8.03 -20.17,11.98 -31.33,11.98 z m -195.16,-202.04 c -11.7,0 -23.42,-4.34 -32.53,-13.07 l -1.82,-1.74 c -18.73,-17.97 -19.36,-47.72 -1.41,-66.46 9.23,-9.63 21.57,-14.47 33.93,-14.47 11.61,0 23.24,4.27 32.32,12.89 0.25,0.24 0.55,0.53 0.8,0.77 0.31,0.29 0.61,0.59 0.92,0.88 0.16,0.16 0.27,0.26 0.44,0.42 18.62,17.98 19.2,47.63 1.27,66.32 -9.23,9.62 -21.57,14.46 -33.92,14.46 z M 6041.8,928.27 c -10.5,0 -21.08,-3.508 -29.83,-10.7 l -1.94,-1.601 c -20.05,-16.489 -22.94,-46.098 -6.46,-66.16 9.29,-11.297 22.75,-17.149 36.32,-17.149 10.49,0 21.05,3.5 29.79,10.68 0.18,0.148 0.22,0.18 0.4,0.332 0.48,0.398 0.96,0.789 1.45,1.187 0.08,0.082 0.15,0.133 0.24,0.2 19.97,16.5 22.83,46.05 6.36,66.07 -9.3,11.293 -22.76,17.141 -36.33,17.141 z M 5818.26,758.191 c -9.33,0 -18.75,-2.769 -26.96,-8.531 l -2.06,-1.449 c -21.25,-14.91 -26.39,-44.223 -11.49,-65.473 9.14,-13.027 23.7,-20 38.5,-20 9.24,0 18.58,2.723 26.74,8.383 0.38,0.27 0.9,0.629 1.28,0.899 0.35,0.242 0.69,0.492 1.04,0.73 21.24,14.91 26.37,44.211 11.46,65.449 -9.15,13.02 -23.72,19.992 -38.51,19.992 z M 5582.4,605.672 c -8.15,0 -16.42,-2.121 -23.94,-6.582 l -2.16,-1.281 c -22.32,-13.25 -29.69,-42.079 -16.46,-64.399 8.78,-14.808 24.41,-23.031 40.45,-23.031 8.15,0 16.41,2.121 23.93,6.582 0.74,0.437 1.48,0.879 2.22,1.32 22.32,13.239 29.68,42.059 16.43,64.379 -8.79,14.801 -24.42,23.02 -40.47,23.012 z M 5335.57,471.66 c -6.98,0 -14.08,-1.558 -20.77,-4.859 l -2.26,-1.121 c -23.27,-11.489 -32.82,-39.668 -21.34,-62.942 8.18,-16.59 24.84,-26.207 42.16,-26.207 6.97,0 14.04,1.559 20.72,4.848 0.32,0.152 0.41,0.203 0.72,0.359 0.38,0.184 0.75,0.371 1.13,0.551 0.21,0.102 0.46,0.231 0.67,0.332 23.15,11.539 32.62,39.641 21.15,62.848 -8.19,16.582 -24.85,26.203 -42.18,26.191 z M 5079.23,357.02 c -5.83,0 -11.75,-1.09 -17.49,-3.391 l -2.34,-0.938 c -24.08,-9.671 -35.78,-37.031 -26.12,-61.121 7.36,-18.351 24.98,-29.5 43.61,-29.5 5.77,0 11.64,1.071 17.33,3.332 0.87,0.348 1.86,0.739 2.73,1.086 23.97,9.731 35.57,37.024 25.92,61.043 -7.37,18.34 -25.01,29.489 -43.64,29.489 z m -264.4,-94.559 c -4.67,0 -9.42,-0.699 -14.11,-2.172 l -2.4,-0.75 c -24.76,-7.777 -38.53,-34.168 -30.76,-58.93 6.3,-20.07 24.83,-32.918 44.8,-32.918 4.64,0 9.35,0.7 14.01,2.149 0.23,0.07 0.28,0.09 0.51,0.16 0.68,0.211 1.37,0.43 2.05,0.641 24.76,7.777 38.51,34.16 30.72,58.91 -6.31,20.07 -24.84,32.918 -44.82,32.91 z M 4543.91,188.57 c -3.51,0 -7.07,-0.39 -10.63,-1.211 l -2.46,-0.57 c -25.28,-5.848 -41.05,-31.09 -35.21,-56.379 5.02,-21.719 24.35,-36.41 45.73,-36.41 3.51,0 7.07,0.3906 10.63,1.2188 0.2,0.0429 0.4,0.0898 0.6,0.1328 0.59,0.1367 1.34,0.3086 1.93,0.4492 25.28,5.8512 41.02,31.0902 35.17,56.3672 -5.04,21.723 -24.38,36.414 -45.76,36.402 z m -275.83,-52.808 c -2.35,0 -4.72,-0.184 -7.1,-0.543 l -2.5,-0.379 c -25.65,-3.879 -43.31,-27.84 -39.43,-53.5002 3.51,-23.2695 23.54,-39.9609 46.38,-39.9609 2.34,0 4.71,0.1797 7.1,0.543 0.21,0.0273 0.41,0.0586 0.62,0.0898 0.6,0.0899 0.9,0.1367 1.5,0.2266 0.15,0.0234 0.29,0.043 0.44,0.0703 25.66,3.8828 43.3,27.8398 39.4,53.4922 -3.53,23.2812 -23.57,39.9612 -46.41,39.9612 z M 3988.95,104.23 c -1.17,0 -2.34,-0.039 -3.53,-0.128 l -2.51,-0.192 c -25.89,-1.91 -45.32,-24.4491 -43.41,-50.328 1.82,-24.7031 22.42,-43.5234 46.8,-43.5234 1.13,0 2.28,0.043 3.43,0.1211 0.98,0.0703 1.8,0.1289 2.78,0.2109 25.83,1.9688 45.19,24.4805 43.27,50.3203 -1.84,24.6993 -22.46,43.5191 -46.83,43.5191 z M 3705.62,93.9883 c -25.92,0 -46.96,-20.9883 -47.01,-46.918 -0.05,-25.9492 20.95,-47.0195187 46.91,-47.0585812 0.19,0 0.38,0 0.57,0 C 3706.84,0 3707.54,0 3708.3,0 c 25.86,0.0703125 46.82,21.0391 46.85,46.9219 0.03,25.9492 -20.98,47.0195 -46.93,47.0586 l -2.53,0.0078 c -0.02,0 -0.05,0 -0.07,0 z m -280.76,11.1137 c -24.31,0 -44.91,-18.7309 -46.82,-43.3832 -2,-25.8086 17.25,-48.3594 43.03,-50.4493 0.49,-0.039 1.28,-0.0976 1.77,-0.1406 0.34,-0.0195 0.67,-0.0469 1,-0.0703 1.23,-0.0977 2.45,-0.1484 3.67,-0.1484 24.31,0 44.89,18.7382 46.78,43.3789 1.99,25.8828 -17.37,48.4729 -43.24,50.4729 l -2.52,0.199 c -1.23,0.09 -2.45,0.141 -3.67,0.141 z m -279.02,32.39 c -22.78,0 -42.79,-16.601 -46.39,-39.8123 -3.98,-25.6406 13.59,-49.6484 39.23,-53.6211 0.18,-0.0273 0.35,-0.0469 0.53,-0.0781 0.72,-0.1094 1.36,-0.211 2.08,-0.3203 2.42,-0.3711 4.82,-0.5508 7.19,-0.5508 22.78,0 42.78,16.6015 46.37,39.8125 3.96,25.6481 -13.63,49.6561 -39.27,53.6291 l -2.49,0.379 c -2.44,0.379 -4.86,0.562 -7.25,0.562 z m -275.66,53.68 c -21.32,0 -40.63,-14.613 -45.72,-36.274 -5.92,-25.207 9.67,-50.437 34.84,-56.4371 0.58,-0.1289 1.05,-0.2421 1.64,-0.3828 0.34,-0.0781 0.69,-0.1562 1.04,-0.2461 3.61,-0.8398 7.22,-1.25 10.77,-1.25 21.32,0 40.62,14.617 45.69,36.27 5.92,25.269 -9.76,50.558 -35.03,56.488 l -2.45,0.582 c -3.61,0.84 -7.22,1.25 -10.78,1.25 z m -270.67,74.738 c -19.93,0 -38.43,-12.781 -44.79,-32.769 -7.84,-24.661 5.72,-50.993 30.32,-58.942 1.02,-0.32 1.92,-0.609 2.94,-0.929 4.65,-1.45 9.35,-2.141 13.98,-2.141 19.93,0 38.42,12.769 44.76,32.781 7.85,24.731 -5.83,51.16 -30.57,59.012 l -2.4,0.769 c -4.73,1.5 -9.53,2.219 -14.24,2.219 z m -264.1,95.379 c -18.58,0 -36.18,-11.09 -43.58,-29.359 -9.73,-24 1.79,-51.321 25.73,-61.121 0.77,-0.309 1.47,-0.59 2.24,-0.899 0.1,-0.051 0.21,-0.09 0.32,-0.14 5.78,-2.34 11.75,-3.442 17.62,-3.442 18.57,0 36.16,11.094 43.56,29.371 9.73,24.051 -1.88,51.461 -25.93,61.199 l -2.34,0.942 c -5.78,2.34 -11.75,3.449 -17.62,3.449 z m -256,115.449 c -17.27,0 -33.89,-9.558 -42.12,-26.058 -11.57,-23.231 -2.11,-51.442 21.12,-63 0.68,-0.328 1.35,-0.668 2.03,-1.008 0.1,-0.051 0.27,-0.133 0.37,-0.184 6.7,-3.316 13.81,-4.886 20.81,-4.886 17.27,0 33.89,9.558 42.1,26.07 11.55,23.238 2.09,51.449 -21.15,63.008 l -2.25,1.121 c -6.73,3.347 -13.87,4.937 -20.91,4.937 z m -246.4,134.782 c -16,0 -31.59,-8.168 -40.4,-22.891 -13.32,-22.277 -6.05,-51.117 16.23,-64.438 0.15,-0.082 0.3,-0.171 0.45,-0.261 0.6,-0.36 1.21,-0.731 1.81,-1.09 7.53,-4.488 15.83,-6.629 24.01,-6.629 15.99,0 31.58,8.168 40.37,22.91 13.31,22.277 6.03,51.141 -16.25,64.449 l -2.16,1.289 c -7.56,4.512 -15.86,6.661 -24.06,6.661 z m -235.39,153.242 c -14.74,0 -29.26,-6.922 -38.42,-19.871 -14.98,-21.192 -9.94,-50.512 11.25,-65.481 0.71,-0.5 1.41,-1 2.11,-1.5 8.24,-5.808 17.7,-8.609 27.07,-8.609 14.74,0 29.26,6.929 38.41,19.89 14.97,21.2 9.92,50.528 -11.28,65.5 l -2.05,1.457 c -8.24,5.821 -17.71,8.614 -27.09,8.614 z m -223.01,170.769 c -13.52,0 -26.94,-5.801 -36.23,-17.031 -16.56,-19.988 -13.77,-49.602 6.23,-66.148 0.3,-0.243 0.59,-0.493 0.89,-0.743 0.45,-0.367 0.69,-0.57 1.14,-0.937 8.75,-7.231 19.35,-10.75 29.88,-10.75 13.52,0 26.94,5.797 36.23,17.039 16.53,20 13.73,49.629 -6.26,66.168 l -1.94,1.609 c -8.77,7.254 -19.39,10.793 -29.94,10.793 z m -209.39,187.249 c -12.31,0 -24.6,-4.8 -33.82,-14.35 -17.96,-18.61 -17.5,-48.2 0.98,-66.24 0.5,-0.48 0.82,-0.79 1.32,-1.28 0.25,-0.23 0.49,-0.47 0.74,-0.71 9.12,-8.8 20.87,-13.17 32.61,-13.17 12.31,0 24.6,4.81 33.82,14.38 18.01,18.68 17.47,48.43 -1.2,66.45 l -1.82,1.75 c -9.12,8.8 -20.88,13.18 -32.63,13.17 z m -194.54,202.64 c -11.11,0 -22.266,-3.91 -31.219,-11.88 -19.344,-17.2 -21.121,-46.79 -4.008,-66.18 0.539,-0.61 0.973,-1.09 1.512,-1.7 0.113,-0.12 0.226,-0.25 0.34,-0.38 9.281,-10.43 22.164,-15.75 35.105,-15.75 11.113,0 22.274,3.93 31.23,11.9 19.38,17.26 21.1,46.97 3.85,66.35 l -1.68,1.89 c -9.283,10.43 -22.177,15.75 -35.13,15.75 z m -178.551,216.85 c -9.926,0 -19.934,-3.13 -28.438,-9.6 -20.64,-15.72 -24.636,-45.18 -8.929,-65.82 0.066,-0.1 0.004,-0.01 0.074,-0.1 0.359,-0.48 0.727,-0.96 1.09,-1.43 0.14,-0.19 0.371,-0.49 0.512,-0.68 9.246,-12.05 23.195,-18.39 37.304,-18.39 9.93,0 19.942,3.14 28.449,9.63 20.637,15.73 24.622,45.22 8.891,65.87 l -1.527,2 c -9.246,12.14 -23.254,18.52 -37.426,18.52 z m -161.496,229.82 c -8.75,0 -17.602,-2.44 -25.492,-7.55 -21.786,-14.1 -28.016,-43.18 -13.911,-64.97 0.301,-0.46 0.602,-0.92 0.903,-1.38 0.254,-0.4 0.355,-0.56 0.609,-0.95 9.004,-13.78 24.028,-21.28 39.367,-21.28 8.75,0 17.61,2.44 25.504,7.56 21.778,14.11 27.996,43.21 13.891,65 l -1.367,2.11 c -9,13.89 -24.094,21.46 -39.504,21.46 z m -143.434,241.47 c -7.582,0 -15.269,-1.84 -22.398,-5.71 -22.805,-12.39 -31.242,-40.92 -18.844,-63.71 0.082,-0.15 0.16,-0.3 0.238,-0.45 0.282,-0.51 0.535,-0.98 0.817,-1.49 0.058,-0.11 0.121,-0.23 0.179,-0.33 8.52,-15.67 24.653,-24.55 41.305,-24.55 7.59,0 15.285,1.84 22.418,5.72 22.797,12.41 31.227,40.95 18.828,63.75 l -1.203,2.21 c -8.523,15.67 -24.672,24.56 -41.34,24.56 z m -124.48,251.75 c -6.418,0 -12.942,-1.32 -19.172,-4.11 -23.692,-10.6 -34.293,-38.39 -23.684,-62.08 0.071,-0.16 0.141,-0.31 0.211,-0.47 0.336,-0.75 0.598,-1.34 0.938,-2.09 7.851,-17.32 24.922,-27.58 42.801,-27.58 6.425,0 12.953,1.32 19.195,4.12 23.68,10.62 34.277,38.43 23.668,62.11 l -1.031,2.3 c -7.817,17.45 -24.965,27.8 -42.926,27.8 z M 257.98,2525.89 c -5.253,0 -10.601,-0.89 -15.835,-2.76 -24.356,-8.71 -37.067,-35.47 -28.477,-59.83 0.359,-1.01 0.641,-1.79 1,-2.8 6.906,-19.11 24.941,-31.02 44.176,-31.02 5.265,0 10.621,0.89 15.863,2.77 24.43,8.77 37.137,35.67 28.383,60.11 l -0.852,2.37 c -6.879,19.2 -24.965,31.16 -44.258,31.16 z m -84.328,267.87 c -4.097,0 -8.261,-0.54 -12.406,-1.67 -24.973,-6.81 -39.711,-32.53 -32.992,-57.51 0.156,-0.57 0.34,-1.24 0.5,-1.82 0.074,-0.29 0.152,-0.57 0.234,-0.86 5.707,-20.88 24.633,-34.6 45.282,-34.6 4.105,0 8.281,0.54 12.433,1.68 25.027,6.85 39.774,32.7 32.93,57.74 l -0.664,2.42 c -5.711,20.89 -24.653,34.62 -45.317,34.62 z m -63.433,273.56 c -2.934,0 -5.91,-0.27 -8.899,-0.85 -25.488,-4.89 -42.1833,-29.51 -37.2848,-54.99 0.1601,-0.85 0.3242,-1.69 0.4843,-2.54 4.3203,-22.49 24,-38.12 46.0745,-38.12 2.945,0 5.933,0.28 8.933,0.85 25.485,4.91 42.176,29.54 37.282,55.03 l -0.477,2.47 c -4.32,22.5 -24.019,38.15 -46.113,38.15 z m -42.2424,277.65 c -1.7657,0 -3.5508,-0.1 -5.3438,-0.31 -25.7109,-2.91 -44.207,-26.05 -41.418,-51.74 0.043,-0.37 0.0938,-0.83 0.1368,-1.19 0.0273,-0.25 0.0547,-0.51 0.082,-0.76 0.043,-0.36 0.0859,-0.74 0.1289,-1.1 2.8359,-23.85 23.0977,-41.43 46.582,-41.43 1.7774,0 3.5743,0.1 5.3789,0.31 25.7852,2.94 44.3166,26.22 41.3866,52.01 l -0.281,2.5 c -2.727,23.99 -23.0665,41.71 -46.6524,41.71 z m -20.9688,280.1 c -0.582,0 -1.168,-0.01 -1.7539,-0.03 -25.8867,-0.95 -46.101556,-22.67 -45.2265562,-48.53 0.0195312,-0.5 0.046875,-1.28 0.0664062,-1.78 0.011719,-0.32 0.023438,-0.64 0.035156,-0.96 0.937504,-25.34 21.769494,-45.24 46.910194,-45.24 0.5937,0 1.1914,0.02 1.789,0.04 25.9336,0.97 46.1797,22.78 45.2188,48.71 l -0.0977,2.52 c -0.9375,25.35 -21.7851,45.27 -46.9414,45.27 z m 0.1992,281.05 c -25.1172,0 -45.93747,-19.86 -46.906219,-45.18 -0.007812,-0.2 -0.015625,-0.4 -0.023437,-0.61 -0.015625,-0.37 -0.039063,-0.96 -0.054688,-1.33 -0.007812,-0.22 -0.015625,-0.43 -0.023437,-0.64 -0.992188,-25.93 19.226581,-47.75 45.160181,-48.73 0.6094,-0.03 1.2109,-0.04 1.8125,-0.04 25.1289,0 45.9726,19.88 46.9414,45.21 l 0.0976,2.52 c 0.9922,25.93 -19.2265,47.77 -45.1601,48.77 -0.6172,0.02 -1.2305,0.03 -1.8438,0.03 z m 21.4453,280.07 c -23.5468,0 -43.8593,-17.67 -46.6093,-41.63 -0.0391,-0.35 -0.0821,-0.7 -0.1211,-1.05 -0.0547,-0.49 -0.125,-1.09 -0.1797,-1.58 -2.9219,-25.75 15.5703,-49.01 41.3359,-51.96 1.8164,-0.21 3.6172,-0.31 5.3985,-0.31 23.5625,0 43.8944,17.69 46.6444,41.65 l 0.285,2.51 c 2.961,25.78 -15.5427,49.09 -41.324,52.05 -1.8242,0.21 -3.6367,0.32 -5.4297,0.32 z m 42.7857,277.57 c -22.0552,0 -41.7271,-15.61 -46.0669,-38.07 -0.0273,-0.13 -0.0508,-0.26 -0.0781,-0.39 -0.1133,-0.6 -0.2305,-1.19 -0.3438,-1.79 -0.0234,-0.12 -0.0469,-0.24 -0.0703,-0.35 -4.9258,-25.49 11.7383,-50.13 37.2231,-55.04 3.003,-0.59 6,-0.87 8.953,-0.87 22.066,0 41.758,15.63 46.105,38.1 l 0.477,2.47 c 4.926,25.48 -11.735,50.14 -37.215,55.07 -3.02,0.58 -6.024,0.87 -8.984,0.87 z m 64,273.43 c -20.625,0 -39.536,-13.69 -45.266,-34.54 -0.227,-0.83 -0.453,-1.66 -0.684,-2.49 -6.871,-25.02 7.844,-50.88 32.871,-57.74 4.161,-1.14 8.344,-1.69 12.461,-1.69 20.641,0 39.571,13.71 45.301,34.57 l 0.668,2.43 c 6.871,25.02 -7.84,50.89 -32.863,57.77 -4.172,1.15 -8.363,1.69 -12.488,1.69 z m 84.906,267.73 c -19.25,0 -37.309,-11.93 -44.199,-31.09 -0.293,-0.81 -0.586,-1.62 -0.875,-2.43 -8.786,-24.43 3.894,-51.33 28.32,-60.11 5.25,-1.89 10.613,-2.78 15.887,-2.78 19.269,0 37.343,11.94 44.238,31.11 l 0.851,2.37 c 8.786,24.42 -3.89,51.35 -28.308,60.14 -5.254,1.89 -10.629,2.79 -15.914,2.79 z m 105.285,260.37 c -17.891,0 -34.977,-10.28 -42.824,-27.63 -0.387,-0.85 -0.793,-1.76 -1.176,-2.61 -10.52,-23.64 0.055,-51.35 23.676,-61.95 6.25,-2.81 12.789,-4.14 19.226,-4.14 17.938,0 35.074,10.33 42.903,27.75 l 1.035,2.3 c 10.636,23.67 0.074,51.49 -23.594,62.14 -6.258,2.81 -12.805,4.14 -19.246,4.14 z m 124.988,251.51 c -16.633,0 -32.75,-8.86 -41.277,-24.49 -0.414,-0.76 -0.824,-1.52 -1.238,-2.27 -12.426,-22.79 -4.024,-51.33 18.765,-63.74 7.145,-3.89 14.848,-5.74 22.446,-5.74 16.652,0 32.785,8.87 41.316,24.51 l 1.207,2.21 c 12.422,22.79 4.027,51.34 -18.754,63.77 -7.144,3.9 -14.859,5.75 -22.465,5.75 z m 143.899,241.19 c -15.325,0 -30.34,-7.49 -39.348,-21.26 -0.063,-0.1 -0.238,-0.37 -0.301,-0.47 -0.375,-0.58 -0.754,-1.16 -1.129,-1.74 -0.062,-0.09 -0.031,-0.04 -0.093,-0.14 -14.102,-21.76 -7.903,-50.83 13.859,-64.95 7.902,-5.12 16.769,-7.57 25.539,-7.57 15.387,0 30.469,7.54 39.469,21.41 l 1.371,2.11 c 14.133,21.77 7.949,50.88 -13.813,65.02 -7.906,5.13 -16.781,7.59 -25.554,7.59 z m 161.918,229.51 c -14.141,0 -28.121,-6.36 -37.368,-18.47 -0.066,-0.09 -0.136,-0.18 -0.203,-0.26 -0.496,-0.65 -0.91,-1.2 -1.402,-1.84 -15.707,-20.63 -11.742,-50.07 8.871,-65.81 8.516,-6.49 18.535,-9.64 28.481,-9.64 14.152,0 28.144,6.37 37.394,18.48 l 1.531,2 c 15.75,20.63 11.805,50.12 -8.816,65.88 -8.516,6.51 -18.539,9.66 -28.488,9.66 z M 975.359,6204 c -12.836,0 -25.613,-5.23 -34.879,-15.49 -0.621,-0.69 -1.32,-1.48 -1.937,-2.17 -17.246,-19.37 -15.539,-49.04 3.82,-66.31 8.965,-7.98 20.133,-11.91 31.266,-11.91 12.93,0 25.809,5.3 35.091,15.71 l 1.68,1.88 c 17.28,19.37 15.59,49.08 -3.77,66.36 -8.962,8 -20.138,11.93 -31.271,11.93 z m 194.881,202.27 c -11.72,0 -23.45,-4.36 -32.56,-13.12 -0.34,-0.32 -0.81,-0.78 -1.15,-1.1 -0.24,-0.24 -0.48,-0.47 -0.72,-0.7 -18.7,-18 -19.27,-47.74 -1.26,-66.43 9.22,-9.58 21.53,-14.4 33.86,-14.4 11.73,0 23.47,4.36 32.59,13.14 l 1.82,1.74 c 18.7,18 19.27,47.75 1.28,66.46 -9.22,9.59 -21.53,14.41 -33.86,14.41 z m 209.69,186.86 c -10.45,0 -20.97,-3.47 -29.69,-10.6 -0.27,-0.22 -0.5,-0.41 -0.77,-0.63 -0.47,-0.39 -0.94,-0.77 -1.41,-1.16 -20.01,-16.53 -22.84,-46.14 -6.31,-66.15 9.3,-11.25 22.73,-17.07 36.27,-17.07 10.54,0 21.14,3.53 29.9,10.76 l 1.94,1.6 c 20.02,16.53 22.85,46.15 6.34,66.17 -9.29,11.26 -22.73,17.08 -36.27,17.08 z m 223.32,170.35 c -9.33,0 -18.75,-2.77 -26.96,-8.54 -0.76,-0.53 -1.64,-1.15 -2.4,-1.69 -21.02,-14.99 -26.01,-44.17 -11.11,-65.31 9.16,-12.98 23.7,-19.92 38.46,-19.92 9.36,0 18.81,2.79 27.04,8.59 l 2.06,1.45 c 21.21,14.94 26.3,44.26 11.36,65.49 -9.15,12.99 -23.69,19.93 -38.45,19.93 z m 235.66,152.81 c -8.15,0 -16.41,-2.13 -23.93,-6.59 -0.31,-0.18 -0.63,-0.37 -0.93,-0.55 -0.25,-0.15 -0.51,-0.31 -0.77,-0.46 l -0.04,-0.03 c -0.18,-0.11 -0.37,-0.21 -0.55,-0.32 -22.29,-13.29 -29.59,-42.13 -16.3,-64.41 8.8,-14.76 24.4,-22.95 40.42,-22.95 8.18,0 16.47,2.15 24.01,6.64 l 2.17,1.29 c 22.29,13.28 29.6,42.13 16.33,64.43 -8.79,14.76 -24.39,22.95 -40.41,22.95 z m 246.68,134.32 c -6.93,0 -13.96,-1.54 -20.6,-4.79 -0.84,-0.42 -1.82,-0.91 -2.66,-1.32 -23.17,-11.57 -32.62,-39.71 -21.09,-62.92 8.21,-16.54 24.85,-26.11 42.14,-26.11 7.01,0 14.14,1.58 20.85,4.91 l 2.26,1.12 c 23.25,11.53 32.75,39.73 21.22,62.98 -8.2,16.54 -24.83,26.13 -42.12,26.13 z m 256.25,114.95 c -5.8,0 -11.71,-1.08 -17.43,-3.37 -0.87,-0.35 -1.67,-0.67 -2.55,-1.03 -24.05,-9.72 -35.67,-37.09 -25.95,-61.14 7.39,-18.31 25,-29.42 43.6,-29.42 5.86,0 11.81,1.1 17.57,3.43 l 2.34,0.94 c 24.06,9.71 35.71,37.1 26,61.17 -7.38,18.31 -24.98,29.42 -43.58,29.42 z m 264.35,94.88 c -4.69,0 -9.47,-0.71 -14.18,-2.2 -0.11,-0.03 0.01,0.01 -0.1,-0.03 -0.32,-0.1 -0.63,-0.2 -0.94,-0.3 -0.45,-0.14 -1.19,-0.37 -1.64,-0.52 -24.61,-7.91 -38.22,-34.23 -30.4,-58.9 6.34,-20.03 24.85,-32.83 44.8,-32.83 4.69,0 9.47,0.72 14.19,2.21 l 2.4,0.76 c 24.74,7.82 38.46,34.23 30.64,58.98 -6.33,20.03 -24.83,32.83 -44.77,32.83 z m 270.88,74.22 c -3.54,0 -7.13,-0.41 -10.72,-1.24 -0.84,-0.2 -1.68,-0.39 -2.52,-0.59 -25.27,-5.9 -40.97,-31.17 -35.07,-56.44 5.07,-21.68 24.39,-36.32 45.74,-36.32 3.53,0 7.13,0.41 10.72,1.24 l 2.45,0.58 c 25.27,5.9 40.99,31.16 35.1,56.44 -5.05,21.69 -24.36,36.33 -45.7,36.33 z m 275.79,53.14 c -2.34,0 -4.72,-0.18 -7.11,-0.54 -0.48,-0.07 -0.9,-0.14 -1.38,-0.21 -0.24,-0.04 -0.47,-0.08 -0.71,-0.11 -0.24,-0.04 -0.47,-0.07 -0.71,-0.11 -25.56,-4.02 -43.07,-27.96 -39.13,-53.55 3.57,-23.23 23.6,-39.86 46.4,-39.86 2.37,0 4.78,0.18 7.19,0.55 l 2.49,0.38 c 25.65,3.94 43.27,27.92 39.34,53.58 -3.56,23.24 -23.57,39.87 -46.38,39.87 z m 279.08,31.85 c -1.2,0 -2.41,-0.04 -3.62,-0.13 -0.86,-0.07 -1.72,-0.13 -2.58,-0.2 -25.88,-1.97 -45.25,-24.54 -43.28,-50.42 1.89,-24.66 22.49,-43.43 46.82,-43.43 1.2,0 2.41,0.05 3.62,0.14 l 2.51,0.19 c 25.88,1.97 45.27,24.54 43.31,50.42 -1.86,24.67 -22.45,43.43 -46.78,43.43 z m 280.67,10.58 c -0.76,0 -1.35,0 -2.1,0 -0.16,0 -0.33,0 -0.5,0 -25.95,-0.01 -46.97,-21.05 -46.96,-47.01 0.02,-25.94 21.07,-46.97 47.01,-46.97 h 0.02 2.53 c 1.91,0 3.79,0.11 5.64,0.34 1.85,-0.23 3.74,-0.35 5.65,-0.36 l 2.53,-0.01 c 0.05,0 0.11,0 0.16,0 25.88,0 46.91,20.94 47,46.83 0.1,25.95 -20.86,47.07 -46.81,47.15 -0.4,0.01 -0.8,0.01 -1.2,0.01 -0.5,0 -0.99,0 -1.49,0 -0.02,0 -0.04,0 -0.06,0 -1.91,0 -3.79,-0.11 -5.63,-0.33 -1.89,0.23 -3.82,0.35 -5.77,0.35 -0.02,0 -0.02,0 -0.02,0 v 0" /><path
         id="path16"
         style="fill:#211c1d;fill-opacity:1;fill-rule:nonzero;stroke:none"
         d="m 2914.96,894.23 c -34.28,0 -53.53,-15.968 -53.53,-44.609 v -69.519 c 0,-28.18 19.25,-44.602 53.53,-44.602 34.76,0 53.53,16.422 53.53,44.602 v 69.519 c 0,28.641 -18.77,44.609 -53.53,44.609 z m 0,49.329 c 70.44,0 108.02,-35.7 108.02,-93.938 v -69.519 c 0,-58.231 -37.58,-93.93 -108.02,-93.93 -69.5,0 -108.03,35.699 -108.03,93.93 v 69.519 c 0,58.238 38.53,93.938 108.03,93.938" /><path
         id="path18"
         style="fill:#211c1d;fill-opacity:1;fill-rule:nonzero;stroke:none"
         d="m 3196.44,893.77 c -37.1,0 -54.01,-16.43 -54.01,-49.79 v -61.031 c 0,-30.519 18.31,-46.988 52.13,-46.988 16.91,0 31.94,1.879 43.69,5.18 3.28,1.418 3.28,2.339 3.28,5.14 v 141.391 c -10.81,2.34 -26.29,6.098 -45.09,6.098 z m -10.32,49.789 c 23.01,0 42.72,-3.758 55.41,-6.11 v 88.751 c 0,10.83 3.76,14.55 14.57,14.55 h 25.81 c 10.81,0 14.09,-3.72 14.09,-14.55 V 727.051 c 0,-15.512 -3.28,-19.731 -18.31,-25.832 -18.79,-7.067 -45.09,-15.047 -87.83,-15.047 -69.96,0 -101.9,34.777 -101.9,94.887 v 64.343 c 0,63.418 32.86,98.157 98.16,98.157" /><path
         id="path20"
         style="fill:#211c1d;fill-opacity:1;fill-rule:nonzero;stroke:none"
         d="m 3476,893.77 c -17.37,0 -30.97,-1.879 -42.72,-5.188 -3.76,-1.371 -4.22,-2.801 -4.22,-6.102 V 743.02 c 10.78,-2.84 27.23,-7.059 45.08,-7.059 37.1,0 54.01,16.469 54.01,50.238 v 61.082 c 0,30.52 -18.33,46.489 -52.15,46.489 z m 7.99,49.789 c 67.64,0 98.64,-34.739 98.64,-94.848 V 784.32 c 0,-62.91 -33.34,-98.148 -104.27,-98.148 -19.73,0 -36.64,5.18 -49.3,8.476 V 604.48 c 0,-10.832 -3.77,-14.589 -14.57,-14.589 h -25.36 c -10.8,0 -14.57,3.757 -14.57,14.589 v 298.7 c 0,15 3.31,20.648 18.34,26.75 18.76,7.07 47.42,13.629 91.09,13.629" /><path
         id="path22"
         style="fill:#211c1d;fill-opacity:1;fill-rule:nonzero;stroke:none"
         d="M 3710.06,922.398 V 707.781 c 0,-10.781 -3.76,-14.551 -14.57,-14.551 h -25.35 c -10.81,0 -14.57,3.77 -14.57,14.551 v 214.617 c 0,10.832 3.76,14.09 14.57,14.09 h 25.35 c 10.81,0 14.57,-3.258 14.57,-14.09 z m 2.34,77.051 v -4.219 c 0,-21.609 -6.58,-28.679 -28.18,-28.679 h -3.28 c -21.61,0 -28.65,7.07 -28.65,28.679 v 4.219 c 0,21.621 7.04,28.181 28.65,28.181 h 3.28 c 21.6,0 28.18,-6.56 28.18,-28.181" /><path
         id="path24"
         style="fill:#211c1d;fill-opacity:1;fill-rule:nonzero;stroke:none"
         d="m 3847.27,724.211 v -4.219 c 0,-22.992 -7.05,-30.062 -30.06,-30.062 h -3.28 c -22.55,0 -30.06,7.07 -30.06,30.062 v 4.219 c 0,22.57 7.51,30.059 30.06,30.059 h 3.28 c 23.01,0 30.06,-7.489 30.06,-30.059" /><path
         id="path26"
         style="fill:#211c1d;fill-opacity:1;fill-rule:nonzero;stroke:none"
         d="m 4021.58,894.23 c -34.28,0 -53.53,-15.968 -53.53,-44.609 v -69.519 c 0,-28.18 19.25,-44.602 53.53,-44.602 34.76,0 53.53,16.422 53.53,44.602 v 69.519 c 0,28.641 -18.77,44.609 -53.53,44.609 z m 0,49.329 c 70.44,0 108.02,-35.7 108.02,-93.938 v -69.519 c 0,-58.231 -37.58,-93.93 -108.02,-93.93 -69.5,0 -108.02,35.699 -108.02,93.93 v 69.519 c 0,58.238 38.52,93.938 108.02,93.938" /><path
         id="path28"
         style="fill:#211c1d;fill-opacity:1;fill-rule:nonzero;stroke:none"
         d="m 4321.83,943.559 c 10.79,0 14.55,-3.309 14.55,-14.547 V 908.32 c 0,-10.789 -3.76,-14.55 -14.55,-14.55 h -16.91 c -18.31,0 -32.42,-1.879 -45.08,-5.649 -3.77,-0.91 -4.23,-3.25 -4.23,-5.641 V 707.781 c 0,-10.781 -3.76,-14.551 -14.56,-14.551 h -25.36 c -10.81,0 -14.57,3.77 -14.57,14.551 v 194.938 c 0,15 3.31,20.652 18.33,26.75 17.37,6.562 45.09,13.121 87.35,14.09 h 15.03" /><path
         id="path30"
         style="fill:#211c1d;fill-opacity:1;fill-rule:nonzero;stroke:none"
         d="m 4489.6,893.77 c -38.04,0 -55.41,-15.969 -55.41,-50.711 V 793.27 c 0,-29.598 17.83,-46.032 50.71,-46.032 20.19,0 37.1,3.774 48.39,6.571 V 882.98 c 0,3.262 -0.48,4.231 -3.76,5.602 -10.81,2.848 -24.44,5.188 -39.93,5.188 z m -3.76,49.789 c 37.59,0 68.58,-7.071 85.01,-14.547 15.03,-7.071 16.91,-10.832 16.91,-25.832 V 685.25 c 0,-61.539 -29.11,-102.379 -102.86,-102.379 -50.71,0 -80.76,17.391 -97.22,45.059 -7.04,10.371 -5.16,17.851 5.65,23.5 l 17.85,9.859 c 11.27,5.652 16.43,4.231 23.47,-5.641 9.87,-15.468 23.96,-23.957 48.85,-23.957 33.34,0 49.79,17.399 49.79,50.758 v 23.449 c -13.63,-3.769 -33.36,-8.449 -55.89,-8.449 -67.16,0 -97.7,35.25 -97.7,94.403 v 53.089 c 0,63.879 34.28,98.618 106.14,98.618" /><path
         id="path32"
         style="fill:#211c1d;fill-opacity:1;fill-rule:nonzero;stroke:none"
         d="m 6576.27,2714.51 c 0,-48.82 -39.58,-88.4 -88.4,-88.4 H 4021.42 c -48.83,0 -88.41,39.58 -88.41,88.4 v 450.75 c 0,48.82 39.58,88.4 88.41,88.4 h 2466.45 c 48.82,0 88.4,-39.58 88.4,-88.4 v -450.75" /><path
         id="path34"
         style="fill:#7bd2dc;fill-opacity:1;fill-rule:nonzero;stroke:none"
         d="m 4658.06,3059.01 v -258.68 c 0,-10.09 -3.63,-13.72 -13.73,-13.72 h -20.97 c -10.05,0 -13.67,3.63 -13.67,13.72 v 122.9 c 0,22.94 3.21,49.14 10.05,80.16 h -2.8 c -10.46,-30.19 -20.15,-50.34 -33.45,-73.74 l -39.47,-69.71 c -4.04,-7.25 -7.25,-9.68 -15.74,-9.68 h -12.48 c -8.49,0 -11.29,1.65 -15.74,9.68 l -40.29,70.12 c -13.68,23.36 -21.34,41.12 -31.44,73.33 h -2.8 c 6.43,-31.43 8.86,-55.2 8.86,-80.58 v -122.48 c 0,-10.09 -3.21,-13.72 -13.67,-13.72 h -19.78 c -10.05,0 -13.68,3.63 -13.68,13.72 v 258.68 c 0,10.1 3.63,13.72 13.68,13.72 h 18.12 c 11.29,0 14.55,-2.02 19.37,-10.51 l 83.79,-149.87 83.84,149.51 c 4.82,8.85 7.67,10.87 18.13,10.87 h 20.14 c 10.1,0 13.73,-3.62 13.73,-13.72" /><path
         id="path36"
         style="fill:#7bd2dc;fill-opacity:1;fill-rule:nonzero;stroke:none"
         d="m 4926.1,3059.01 v -19.73 c 0,-10.1 -3.22,-13.72 -13.68,-13.72 H 4788.7 v -70.49 h 104.35 c 10.47,0 13.73,-3.62 13.73,-13.72 v -19.73 c 0,-10.1 -3.26,-13.72 -13.73,-13.72 H 4788.7 v -74.16 h 128.13 c 10.09,0 13.72,-3.62 13.72,-13.67 v -19.74 c 0,-10.09 -3.63,-13.72 -13.72,-13.72 h -164.79 c -10.1,0 -13.72,3.63 -13.72,13.72 v 258.68 c 0,10.1 3.62,13.72 13.72,13.72 h 160.38 c 10.46,0 13.68,-3.62 13.68,-13.72" /><path
         id="path38"
         style="fill:#7bd2dc;fill-opacity:1;fill-rule:nonzero;stroke:none"
         d="m 5266.78,3059.01 v -258.68 c 0,-10.09 -3.63,-13.72 -13.68,-13.72 h -20.97 c -10.09,0 -13.72,3.63 -13.72,13.72 v 122.9 c 0,22.94 3.26,49.14 10.1,80.16 h -2.85 c -10.46,-30.19 -20.14,-50.34 -33.41,-73.74 l -39.51,-69.71 c -4.04,-7.25 -7.25,-9.68 -15.69,-9.68 h -12.53 c -8.44,0 -11.24,1.65 -15.69,9.68 l -40.29,70.12 c -13.73,23.36 -21.39,41.12 -31.44,73.33 h -2.84 c 6.47,-31.43 8.9,-55.2 8.9,-80.58 v -122.48 c 0,-10.09 -3.26,-13.72 -13.72,-13.72 h -19.73 c -10.1,0 -13.73,3.63 -13.73,13.72 v 258.68 c 0,10.1 3.63,13.72 13.73,13.72 h 18.12 c 11.29,0 14.5,-2.02 19.32,-10.51 l 83.84,-149.87 83.8,149.51 c 4.86,8.85 7.66,10.87 18.17,10.87 h 20.14 c 10.05,0 13.68,-3.62 13.68,-13.72" /><path
         id="path40"
         style="fill:#7bd2dc;fill-opacity:1;fill-rule:nonzero;stroke:none"
         d="m 5474.01,2908.72 h -76.17 v -74.98 h 76.17 c 24.97,0 38.69,12.53 38.69,37.08 0,24.6 -13.72,37.9 -38.69,37.9 z m -7.25,116.84 h -68.92 v -70.9 h 68.92 c 24.19,0 37.08,11.29 37.08,35.47 0,23.77 -12.89,35.43 -37.08,35.43 z m 88.25,-28.18 c 0,-29.05 -9.27,-48.36 -30.24,-60.85 v -1.65 c 25.79,-9.22 41.11,-33.41 41.11,-69.7 0,-50.76 -37.9,-78.57 -90.67,-78.57 h -114.45 c -10.05,0 -13.68,3.63 -13.68,13.72 v 258.68 c 0,10.1 3.63,13.72 13.68,13.72 h 112.01 c 51.58,0 82.24,-27.03 82.24,-75.35" /><path
         id="path42"
         style="fill:#7bd2dc;fill-opacity:1;fill-rule:nonzero;stroke:none"
         d="m 5821.12,3059.01 v -19.73 c 0,-10.1 -3.26,-13.72 -13.72,-13.72 h -123.72 v -70.49 h 104.4 c 10.46,0 13.68,-3.62 13.68,-13.72 v -19.73 c 0,-10.1 -3.22,-13.72 -13.68,-13.72 h -104.4 v -74.16 h 128.17 c 10.05,0 13.68,-3.62 13.68,-13.67 v -19.74 c 0,-10.09 -3.63,-13.72 -13.68,-13.72 h -164.83 c -10.05,0 -13.68,3.63 -13.68,13.72 v 258.68 c 0,10.1 3.63,13.72 13.68,13.72 h 160.38 c 10.46,0 13.72,-3.62 13.72,-13.72" /><path
         id="path44"
         style="fill:#7bd2dc;fill-opacity:1;fill-rule:nonzero;stroke:none"
         d="m 6011.88,3025.56 h -70.12 v -83.01 h 70.12 c 26.99,0 42.31,14.5 42.31,41.52 0,26.57 -15.32,41.49 -42.31,41.49 z m 94.72,-41.49 c 0,-41.89 -19.37,-70.11 -52.82,-81.4 5.23,-4.45 8.86,-10.1 12.89,-17.35 l 43.92,-84.99 c 4.45,-7.66 3.26,-13.72 -6.84,-13.72 h -22.94 c -17.35,0 -22.99,2.02 -27.81,12.07 l -33.45,68.51 c -10.88,22.17 -20.56,28.23 -48.37,28.23 h -29.83 v -95.09 c 0,-10.09 -3.21,-13.72 -13.67,-13.72 h -22.99 c -10.05,0 -13.68,3.63 -13.68,13.72 v 258.68 c 0,10.1 3.63,13.72 13.68,13.72 h 111.64 c 55.99,0 90.27,-33.04 90.27,-88.66" /><path
         id="path46"
         style="fill:#211c1d;fill-opacity:1;fill-rule:nonzero;stroke:none"
         d="m 4304.62,4232.18 c -129.84,0 -203.66,-64.77 -203.66,-185.24 v -284.99 c 0,-120.48 73.82,-185.25 203.66,-185.25 131.1,0 203.66,64.77 203.66,185.25 v 284.99 c 0,120.47 -72.56,185.24 -203.66,185.24 z m 0,151.57 c 232.93,0 362.76,-129.55 362.76,-338.11 v -282.39 c 0,-208.57 -129.83,-338.11 -362.76,-338.11 -234.22,0 -364.05,129.54 -364.05,338.11 v 282.39 c 0,208.56 129.83,338.11 364.05,338.11" /><path
         id="path48"
         style="fill:#211c1d;fill-opacity:1;fill-rule:nonzero;stroke:none"
         d="M 5134.56,4212.75 H 4964 v -616.62 h 170.56 c 133.66,0 208.76,66.07 208.76,189.13 v 238.36 c 0,123.07 -75.1,189.13 -208.76,189.13 z m 367.86,-190.42 v -235.77 c 0,-211.15 -132.37,-341.99 -369.13,-341.99 h -286.4 c -31.82,0 -43.27,11.65 -43.27,44.04 v 831.66 c 0,32.39 11.45,44.04 43.27,44.04 h 286.4 c 236.76,0 369.13,-130.83 369.13,-341.98" /><path
         id="path50"
         style="fill:#211c1d;fill-opacity:1;fill-rule:nonzero;stroke:none"
         d="m 6152.89,4063.79 c 0,93.26 -56,148.96 -148.92,148.96 h -206.21 v -296.64 h 206.21 c 92.92,0 148.92,54.4 148.92,147.68 z m 165.48,0 c 0,-187.85 -114.55,-299.24 -300.4,-299.24 h -221.48 v -275.94 c 0,-32.39 -10.19,-44.04 -43.28,-44.04 h -72.55 c -31.82,0 -43.28,11.65 -43.28,44.04 v 831.66 c 0,32.39 11.46,44.04 43.28,44.04 h 337.31 c 184.57,0 300.4,-112.69 300.4,-300.52" /><path
         id="path52"
         style="fill:#211c1d;fill-opacity:1;fill-rule:nonzero;stroke:none"
         d="m 6586.98,4076.74 v -592.02 c 0,-29.78 -10.17,-40.15 -39.46,-40.15 h -68.74 c -29.26,0 -39.45,10.37 -39.45,40.15 v 592.02 c 0,29.78 10.19,38.85 39.45,38.85 h 68.74 c 29.29,0 39.46,-9.07 39.46,-38.85 z m 6.37,212.45 v -11.67 c 0,-59.59 -17.82,-79.02 -76.39,-79.02 h -8.91 c -58.53,0 -77.63,19.43 -77.63,79.02 v 11.67 c 0,59.59 19.1,77.72 77.63,77.72 h 8.91 c 58.57,0 76.39,-18.13 76.39,-77.72" /><path
         id="path54"
         style="fill:#211c1d;fill-opacity:1;fill-rule:nonzero;stroke:none"
         d="m 3054.09,5544.18 c 201,-49.79 403.16,-165.07 569.77,-327.75 165.07,-161.17 284.48,-358.03 339.78,-555.75 247.66,617.82 170.29,1007.25 170.29,1007.25 l -0.63,0.6 104.21,105.76 c 5.45,-0.95 11.02,-1.55 16.76,-1.49 49.83,0.6 89.74,41.48 89.15,91.31 -0.6,49.83 -41.48,89.75 -91.31,89.15 -49.83,-0.59 -89.74,-41.47 -89.15,-91.3 0.06,-5.2 0.81,-10.2 1.71,-15.14 l -105.24,-106.8 c -19.45,3.15 -407.47,61.36 -1005.34,-195.84" /><path
         id="path56"
         style="fill:#211c1d;fill-opacity:1;fill-rule:nonzero;stroke:none"
         d="m 1830.72,4700.79 0.29,1.9 0.84,-0.83 c -0.37,-0.35 -0.76,-0.72 -1.13,-1.07 z M 3201.41,3085.78 c 0,0 41.31,120.46 -49.05,329.58 380.22,420.01 616.94,804.49 763.39,1132.39 -35.95,215.93 -159.06,439.33 -341.7,617.66 -184.44,180.09 -413.81,298.53 -632.58,327.75 -323.51,-154.42 -700.96,-400.04 -1110.2,-788.76 l 0.74,4.85 c -215.82,89.5 -338.01,44.23 -338.01,44.23 l -905.453,-900.39 220.359,-46.29 651.024,349.39 231.82,-157.12 -30.06,-155.28 c 77.97,-106.51 186.82,-201.71 292.29,-312.64 100.36,-105.53 213.14,-205.32 319.12,-291.06 l 164.76,32.24 167.22,-234.66 -333.98,-659.06 51.46,-219.21 878.85,926.38" /><path
         id="path58"
         style="fill:#ffffff;fill-opacity:1;fill-rule:nonzero;stroke:none"
         d="m 3329.98,4140.4 c -209.56,-214.55 -553.35,-218.59 -767.87,-9.07 -214.52,209.54 -218.56,553.33 -9,767.88 209.5,214.49 553.32,218.57 767.85,9.03 214.51,-209.53 218.53,-553.35 9.02,-767.84" /><path
         id="path60"
         style="fill:#7bd2dc;fill-opacity:1;fill-rule:nonzero;stroke:none"
         d="m 3252.43,4216.14 c -167.72,-171.72 -442.88,-174.95 -614.57,-7.26 -171.7,167.71 -174.93,442.87 -7.21,614.58 167.68,171.67 442.86,174.93 614.56,7.23 171.69,-167.7 174.9,-442.88 7.22,-614.55" /><path
         id="path62"
         style="fill:#211c1d;fill-opacity:1;fill-rule:nonzero;stroke:none"
         d="m 3225.21,4810.2 c -160.2,156.42 -417.72,153.37 -574.1,-6.74 -75.77,-77.58 -116.79,-180.02 -115.53,-288.45 1.29,-108.43 44.71,-209.87 122.28,-285.64 l -25.92,-26.67 25.98,26.61 c 160.13,-156.35 417.65,-153.31 574.04,6.8 156.4,160.16 153.38,417.69 -6.75,574.09 z m -619.26,-634.11 -0.05,0.06 c -91.8,89.66 -143.18,209.69 -144.68,337.99 -1.51,128.29 47.03,249.5 136.69,341.28 185.03,189.45 489.72,193.07 679.19,8.06 189.54,-185.13 193.14,-489.85 8.06,-679.33 -185.04,-189.45 -489.73,-193.06 -679.21,-8.06" /><path
         id="path64"
         style="fill:#7bd2dc;fill-opacity:1;fill-rule:nonzero;stroke:none"
         d="M 1636.44,3663.29 808.301,3099.93 c -25.477,-17.32 -32.071,-52.03 -14.746,-77.5 2.148,-3.15 4.554,-6.01 7.187,-8.58 18.59,-18.15 47.992,-21.35 70.309,-6.16 l 839.209,570.89 c 1.44,0.98 2.6,2.2 3.92,3.28 -27,27.2 -53.1,54.22 -77.74,81.43" /><path
         id="path66"
         style="fill:#7bd2dc;fill-opacity:1;fill-rule:nonzero;stroke:none"
         d="m 1856.12,3438.48 c -8.75,9.21 -17.55,18.17 -26.33,27.18 -5.91,-2.76 -11.5,-6.46 -16.33,-11.4 L 988.441,2609.59 c -21.523,-22.04 -21.113,-57.34 0.922,-78.87 0.012,-0.01 0.012,-0.01 0.012,-0.01 22.045,-21.53 57.355,-21.11 78.875,0.93 l 825.02,844.67 c 4.18,4.27 7.27,9.14 9.8,14.22 -15.87,15.85 -31.59,31.8 -46.95,47.95" /><path
         id="path68"
         style="fill:#7bd2dc;fill-opacity:1;fill-rule:nonzero;stroke:none"
         d="m 2106.47,3204.4 c -28.2,23.85 -56.53,48.5 -84.75,73.87 -0.55,-0.77 -1.23,-1.4 -1.76,-2.2 l -550.99,-852.4 c -14.66,-22.67 -10.78,-51.99 7.82,-70.15 2.63,-2.56 5.54,-4.91 8.74,-6.97 25.87,-16.72 60.4,-9.31 77.13,16.57 l 543.81,841.28" /></g></g></svg>