<?xml version="1.0" encoding="utf-8"?>
<!-- Generator: Adobe Illustrator 23.0.3, SVG Export Plug-In . SVG Version: 6.00 Build 0)  -->
<svg version="1.1" id="Layer_1" xmlns="http://www.w3.org/2000/svg" xmlns:xlink="http://www.w3.org/1999/xlink" x="0px" y="0px"
	 viewBox="0 0 1000 639.64" style="enable-background:new 0 0 1000 639.64;" xml:space="preserve">
<style type="text/css">
	.st0{fill:#1DCAD3;}
	.st1{fill:#36B0C9;}
	.st2{fill:#231F20;}
	.st3{fill:#FFFFFF;}
	.st4{fill:#9164CC;}
	.st5{clip-path:url(#SVGID_2_);fill:url(#SVGID_3_);}
	.st6{fill:#201747;}
	.st7{fill-rule:evenodd;clip-rule:evenodd;fill:#10CFC9;}
	.st8{clip-path:url(#SVGID_5_);fill:#231F20;}
	.st9{fill-rule:evenodd;clip-rule:evenodd;fill:#231F20;}
	.st10{clip-path:url(#SVGID_7_);fill:#FFFFFF;}
	.st11{fill-rule:evenodd;clip-rule:evenodd;fill:#FFFFFF;}
	.st12{fill:#8CCEAF;}
	.st13{fill:#008476;}
	.st14{fill:#25BCBD;}
	.st15{fill:#004D70;}
	.st16{fill:#20BBBB;}
	.st17{fill:#024D70;}
	.st18{fill-rule:evenodd;clip-rule:evenodd;fill:#F58B1F;}
	.st19{fill-rule:evenodd;clip-rule:evenodd;fill:#18335B;}
	.st20{clip-path:url(#SVGID_9_);}
	.st21{clip-path:url(#SVGID_11_);}
	.st22{fill:#18335B;}
	.st23{fill:#F58B1F;}
	.st24{clip-path:url(#SVGID_15_);}
	.st25{clip-path:url(#SVGID_17_);}
	.st26{clip-path:url(#SVGID_21_);}
	.st27{clip-path:url(#SVGID_23_);}
	.st28{clip-path:url(#SVGID_27_);}
	.st29{clip-path:url(#SVGID_29_);}
	.st30{clip-path:url(#SVGID_33_);}
	.st31{clip-path:url(#SVGID_35_);}
	.st32{clip-path:url(#SVGID_39_);}
	.st33{clip-path:url(#SVGID_41_);}
	.st34{fill:#416BA9;}
	.st35{fill:#73C3D5;}
	.st36{opacity:0.8;}
	.st37{fill:#3A3A3A;}
	.st38{fill:url(#SVGID_44_);}
	.st39{fill:none;stroke:#000000;stroke-width:6.3384;}
	.st40{fill:none;stroke:#000000;stroke-width:3.1692;}
	.st41{fill:#48494B;}
	.st42{fill:#C1986C;}
	.st43{fill:url(#SVGID_63_);}
	.st44{fill:url(#SVGID_64_);}
	.st45{fill:url(#SVGID_65_);}
	.st46{fill:url(#SVGID_66_);}
	.st47{fill:url(#SVGID_67_);}
	.st48{fill:#4D4E4E;}
	.st49{fill:#27B373;}
	.st50{fill:#5DC4CD;}
	.st51{fill:#1E8756;}
	.st52{fill:#3D1152;}
	.st53{fill:#922C48;}
	.st54{fill-rule:evenodd;clip-rule:evenodd;fill:#922C48;}
	.st55{fill:#404041;}
	.st56{fill:#EC1C24;}
	.st57{fill:#373A36;}
	.st58{fill:#808184;}
	.st59{fill:#262261;}
	.st60{fill:#6FCBDC;}
	.st61{fill:#2F3436;}
	.st62{fill:#5F97D0;}
	.st63{fill:#132428;}
	.st64{fill:#85C041;}
	.st65{fill:#677784;}
	.st66{fill:url(#SVGID_68_);}
	.st67{opacity:0.2;clip-path:url(#SVGID_70_);}
	.st68{fill:#FFFEFA;}
	.st69{opacity:0.1;}
	.st70{fill:url(#SVGID_71_);}
	.st71{opacity:0.3;}
	.st72{opacity:0.08;}
	.st73{opacity:0.1;fill:url(#Wordmark_1_);}
	.st74{fill:url(#SVGID_104_);}
	.st75{opacity:0.6;fill:url(#SVGID_107_);}
	.st76{opacity:0.4;}
	.st77{fill:url(#SVGID_110_);}
	.st78{opacity:0.6;fill:url(#SVGID_113_);}
	.st79{fill:url(#SVGID_116_);}
	.st80{opacity:0.6;fill:url(#SVGID_119_);}
	.st81{fill:url(#SVGID_122_);}
	.st82{opacity:0.6;fill:url(#SVGID_125_);}
	.st83{fill:url(#SVGID_128_);}
	.st84{opacity:0.6;fill:url(#SVGID_131_);}
	.st85{fill:#221F1F;}
	.st86{fill:none;}
	.st87{fill:#00416B;}
	.st88{opacity:0.8;fill:url(#XMLID_323_);}
	.st89{fill:#4197CB;}
	.st90{fill:#003E52;}
	.st91{fill:#3F96B4;}
	.st92{fill:#B9DBE5;}
	.st93{opacity:0.3;fill:#231F20;}
	.st94{opacity:0.3;fill:#FFFFFF;}
	.st95{fill:#050013;}
	.st96{fill:#E87200;}
	.st97{fill:#FCB813;}
	.st98{fill:#3D3935;}
	.st99{fill:#FFB600;}
	.st100{fill:#FCB814;}
	.st101{fill:#F48120;}
	.st102{fill:#EF4E25;}
	.st103{fill:#ED3024;}
	.st104{fill:#E0592A;}
	.st105{fill:#00ADBB;}
	.st106{fill:#00829B;}
	.st107{fill:#93D500;}
	.st108{fill:#4D5A31;}
	.st109{fill:#6BA43A;}
	.st110{fill:#424143;}
	.st111{fill-rule:evenodd;clip-rule:evenodd;fill:#C7E6B4;}
	.st112{fill-rule:evenodd;clip-rule:evenodd;fill:#5A9891;}
	.st113{fill-rule:evenodd;clip-rule:evenodd;fill:#127870;}
	.st114{fill-rule:evenodd;clip-rule:evenodd;fill:#5CCFD5;}
	.st115{fill-rule:evenodd;clip-rule:evenodd;fill:#ACD5CD;}
	.st116{fill-rule:evenodd;clip-rule:evenodd;fill:#B5ECC9;}
	.st117{fill-rule:evenodd;clip-rule:evenodd;fill:#A1D683;}
	.st118{fill-rule:evenodd;clip-rule:evenodd;fill:#DEF0D3;}
	.st119{fill-rule:evenodd;clip-rule:evenodd;fill:#91B9B4;}
	.st120{fill-rule:evenodd;clip-rule:evenodd;fill:#006860;}
	.st121{fill-rule:evenodd;clip-rule:evenodd;fill:#00ADBB;}
	.st122{fill-rule:evenodd;clip-rule:evenodd;fill:#B4E7E9;}
	.st123{fill-rule:evenodd;clip-rule:evenodd;fill:#007565;}
	.st124{fill-rule:evenodd;clip-rule:evenodd;fill:#00CE7C;}
	.st125{fill-rule:evenodd;clip-rule:evenodd;fill:#5FD896;}
	.st126{fill:#007DA5;}
	.st127{fill:#313032;}
	.st128{fill:#24272A;}
	.st129{fill:#00AFAA;}
	.st130{fill:#66C9BA;}
	.st131{fill:#0069A7;}
	.st132{fill:#002F87;}
	.st133{fill:#8BC53F;}
	.st134{fill:#1A1A1A;}
	.st135{fill:#0095D6;}
	.st136{fill:#003F5F;}
	.st137{fill:#2D317C;}
	.st138{fill:#41BFBF;}
	.st139{fill:#293C97;}
	.st140{fill:#52C2BD;}
	.st141{fill:url(#SVGID_134_);}
	.st142{fill:url(#SVGID_135_);}
	.st143{fill:url(#SVGID_136_);}
	.st144{fill:#0DBEEA;}
	.st145{fill:#097EC2;}
	.st146{fill:#133C63;}
	.st147{fill:#3B91CF;}
	.st148{fill:#C8DEE8;}
	.st149{fill:#629BBA;}
	.st150{fill:#F8BE19;}
	.st151{fill:url(#SVGID_137_);}
	.st152{fill:url(#SVGID_138_);}
	.st153{fill:url(#SVGID_139_);}
	.st154{fill:#00233B;}
	.st155{fill:url(#SVGID_140_);}
	.st156{fill:url(#SVGID_141_);}
	.st157{fill:url(#SVGID_142_);}
	.st158{fill:url(#SVGID_143_);}
	.st159{fill:url(#SVGID_144_);}
	.st160{fill:url(#SVGID_145_);}
	.st161{fill:url(#SVGID_146_);}
	.st162{fill:url(#SVGID_147_);}
	.st163{fill:url(#SVGID_148_);}
	.st164{fill:url(#SVGID_149_);}
	.st165{fill:url(#SVGID_150_);}
	.st166{fill:url(#SVGID_151_);}
	.st167{fill:url(#SVGID_152_);}
	.st168{fill:url(#SVGID_153_);}
	.st169{fill:url(#SVGID_154_);}
	.st170{fill:url(#SVGID_155_);}
	.st171{fill:url(#SVGID_156_);}
	.st172{fill:url(#SVGID_157_);}
	.st173{fill:url(#SVGID_158_);}
	.st174{fill:url(#SVGID_159_);}
	.st175{fill:url(#SVGID_160_);}
	.st176{fill:url(#SVGID_161_);}
	.st177{fill:url(#SVGID_162_);}
	.st178{fill:url(#SVGID_163_);}
	.st179{fill:url(#SVGID_164_);}
	.st180{fill:url(#SVGID_165_);}
	.st181{fill:url(#SVGID_166_);}
	.st182{fill:url(#SVGID_167_);}
	.st183{fill:url(#SVGID_168_);}
	.st184{fill:url(#SVGID_169_);}
	.st185{fill:url(#SVGID_170_);}
	.st186{fill:url(#SVGID_171_);}
	.st187{fill:url(#SVGID_172_);}
	.st188{fill:url(#SVGID_173_);}
	.st189{fill:url(#SVGID_174_);}
	.st190{fill:url(#SVGID_175_);}
	.st191{fill:url(#SVGID_176_);}
	.st192{fill:url(#SVGID_177_);}
	.st193{fill:url(#SVGID_178_);}
	.st194{fill:#C31230;}
	.st195{fill:#807F82;}
	.st196{fill-rule:evenodd;clip-rule:evenodd;fill:#C31230;}
	.st197{fill-rule:evenodd;clip-rule:evenodd;fill:#807F82;}
	.st198{fill:#2D2D2D;}
	.st199{display:none;fill:#2D2D2D;}
	.st200{fill:#D11F3C;}
	.st201{fill:#E42C4C;stroke:#E42C4C;stroke-width:1.0503;stroke-miterlimit:10;}
	.st202{display:none;fill:#231F20;}
	.st203{display:none;fill:#FFFFFF;}
	.st204{fill:#FF7F30;}
	.st205{opacity:0.3;fill:#FF7F30;}
	.st206{opacity:0.6;fill:#FF7F30;}
	.st207{opacity:0.7;fill:#FF7F30;}
	.st208{fill:#221C35;}
	.st209{fill:#1B98D5;}
	.st210{fill:#173963;}
	.st211{fill:#009ADE;}
	.st212{fill:#003764;}
	.st213{fill:#2A7DE1;}
	.st214{opacity:0.4;clip-path:url(#XMLID_324_);fill:#221F1F;}
	.st215{fill:#002A3A;}
	.st216{fill:#0033A1;}
	.st217{fill:url(#SVGID_179_);}
	.st218{fill:url(#SVGID_180_);}
	.st219{fill:url(#SVGID_181_);}
	.st220{fill:url(#SVGID_182_);}
	.st221{fill:#007EC4;}
	.st222{fill-rule:evenodd;clip-rule:evenodd;fill:url(#SVGID_183_);}
	.st223{fill-rule:evenodd;clip-rule:evenodd;fill:#E6E7E8;}
	.st224{fill:#009345;}
	.st225{fill:#BBBCB8;}
	.st226{fill:#72C0EB;}
	.st227{fill:#939598;}
	.st228{fill-rule:evenodd;clip-rule:evenodd;fill:#2CB8EB;}
	.st229{fill:#2CB8EB;}
	.st230{fill:#81B83A;}
	.st231{fill-rule:evenodd;clip-rule:evenodd;fill:#81B83A;}
	.st232{enable-background:new    ;}
	.st233{fill:#FF6F3E;}
	.st234{fill:#12143D;}
	.st235{fill:url(#SVGID_184_);}
	.st236{fill:url(#SVGID_185_);}
	.st237{fill:url(#SVGID_186_);}
	.st238{fill:url(#SVGID_187_);}
	.st239{fill:url(#SVGID_188_);}
	.st240{fill:url(#SVGID_189_);}
	.st241{fill:url(#SVGID_190_);}
	.st242{fill:url(#SVGID_191_);}
	.st243{fill:url(#SVGID_192_);}
	.st244{fill:#7C51A0;}
	.st245{fill:#9F66A9;}
	.st246{fill:#9F80B9;}
	.st247{fill:url(#SVGID_193_);}
	.st248{fill:url(#SVGID_194_);}
	.st249{fill:url(#SVGID_195_);}
	.st250{fill:url(#SVGID_196_);}
	.st251{fill:#2D3136;}
	.st252{fill:#76777A;}
	.st253{fill:#A7A8A9;}
	.st254{fill:#0082CA;}
	.st255{fill:#FFB259;}
	.st256{fill:#385CAD;}
	.st257{fill:#7BA0C4;}
	.st258{fill:#EBA900;}
	.st259{fill:#929497;}
	.st260{opacity:0.7;fill:#FFFFFF;}
	.st261{fill:#016BAF;}
	.st262{fill:#343432;}
	.st263{fill:#6D6E70;}
	.st264{fill:#F4B01B;}
	.st265{fill:#293271;}
	.st266{fill:#A1D33C;}
	.st267{fill:#212322;}
	.st268{fill:#0047BA;}
	.st269{fill:#969CDE;}
	.st270{fill:#047BC1;}
	.st271{fill:url(#SVGID_197_);}
	.st272{fill:url(#SVGID_198_);}
	.st273{fill:url(#SVGID_199_);}
	.st274{fill:url(#SVGID_200_);}
	.st275{fill:url(#SVGID_201_);}
	.st276{fill:url(#SVGID_202_);}
	.st277{fill:url(#SVGID_203_);}
	.st278{fill:#13517C;}
	.st279{fill:#0077A6;}
	.st280{fill:none;stroke:#231F20;stroke-width:5.9036;stroke-miterlimit:10;}
	.st281{fill:#00A94F;}
	.st282{fill:none;stroke:#231F20;stroke-width:3.2172;stroke-miterlimit:10;}
	.st283{fill:#59595C;}
	.st284{opacity:0.349;fill:#F9AE19;}
	.st285{opacity:0.349;fill:#E99F22;}
	.st286{opacity:0.349;fill:#E47D25;}
	.st287{fill:#F9AE19;}
	.st288{fill:#E99F22;}
	.st289{fill:#F09B20;}
	.st290{fill:#E47D25;}
	.st291{fill:#E89223;}
	.st292{opacity:0.651;fill:#F9AE19;}
	.st293{fill:#E68825;}
	.st294{opacity:0.651;fill:#E99F22;}
	.st295{fill:#EB8D23;}
	.st296{opacity:0.7725;fill:#EF9B21;}
	.st297{opacity:0.651;fill:#E47D25;}
	.st298{opacity:0.7725;fill:#EA9622;}
	.st299{fill:url(#SVGID_204_);}
	.st300{fill:#55575B;}
	.st301{fill:#EE424E;}
	.st302{fill:#34424B;}
</style>
<g>
	<path class="st3" d="M613.7,422.83c38.69,0,60.26-21.14,60.26-55.18v-46.09c0-34.04-21.57-55.18-60.26-55.18
		c-38.9,0-60.47,21.14-60.47,55.18v46.09C553.23,401.69,574.79,422.83,613.7,422.83z M579.87,321.34
		c0-19.66,12.26-30.23,33.83-30.23c21.78,0,33.83,10.57,33.83,30.23v46.52c0,19.66-12.05,30.23-33.83,30.23
		c-21.57,0-33.83-10.57-33.83-30.23V321.34z"/>
	<path class="st3" d="M751.33,269.54h-47.57c-5.29,0-7.19,1.9-7.19,7.19v135.74c0,5.29,1.9,7.19,7.19,7.19h47.57
		c39.33,0,61.32-21.36,61.32-55.82v-38.48C812.65,290.9,790.66,269.54,751.33,269.54z M786.22,364.05
		c0,20.09-12.47,30.87-34.68,30.87h-28.33V294.28h28.33c22.2,0,34.68,10.78,34.68,30.87V364.05z"/>
	<path class="st3" d="M898.27,269.54h-56.03c-5.29,0-7.19,1.9-7.19,7.19v135.74c0,5.29,1.9,7.19,7.19,7.19h12.05
		c5.5,0,7.19-1.9,7.19-7.19v-45.04h36.79c30.87,0,49.9-18.18,49.9-48.84C948.17,287.94,928.93,269.54,898.27,269.54z M895.95,342.7
		H861.7v-48.42h34.25c15.43,0,24.74,9.09,24.74,24.31C920.69,333.82,911.38,342.7,895.95,342.7z"/>
	<path class="st3" d="M981.15,269.12h-1.48c-9.73,0-12.9,2.96-12.9,12.69v1.9c0,9.73,3.17,12.9,12.9,12.9h1.48
		c9.72,0,12.68-3.17,12.68-12.9v-1.9C993.84,272.08,990.88,269.12,981.15,269.12z"/>
	<path class="st3" d="M986.23,310.14h-11.42c-4.86,0-6.55,1.48-6.55,6.34v96.63c0,4.86,1.69,6.55,6.55,6.55h11.42
		c4.86,0,6.55-1.69,6.55-6.55v-96.63C992.78,311.62,991.09,310.14,986.23,310.14z"/>
	<path class="st3" d="M780.29,458.54H572.43c-5.31,0-9.63,4.32-9.63,9.63v50.6c0,5.31,4.32,9.63,9.63,9.63h207.87
		c5.31,0,9.63-4.32,9.63-9.63v-50.6C789.92,462.86,785.6,458.54,780.29,458.54z M786.64,518.77c0,3.5-2.85,6.35-6.35,6.35H572.43
		c-3.5,0-6.35-2.85-6.35-6.35v-50.6c0-3.5,2.85-6.35,6.35-6.35h207.87c3.5,0,6.35,2.85,6.35,6.35V518.77z"/>
	<path class="st3" d="M607.38,484.85c-5.77,0-8.96,2.96-8.96,7.79v5.77c0,4.83,3.2,7.79,8.96,7.79c5.85,0,8.96-2.96,8.96-7.79v-5.77
		C616.34,487.82,613.22,484.85,607.38,484.85z M611.82,498.42c0,2.34-1.56,3.7-4.44,3.7c-2.84,0-4.44-1.36-4.44-3.7v-5.77
		c0-2.38,1.6-3.7,4.44-3.7c2.88,0,4.44,1.32,4.44,3.7V498.42z"/>
	<path class="st3" d="M638.05,476.79h-2.14c-0.9,0-1.21,0.31-1.21,1.21v7.37c-1.05-0.2-2.69-0.51-4.6-0.51
		c-5.42,0-8.14,2.88-8.14,8.14v5.34c0,4.99,2.65,7.87,8.46,7.87c3.54,0,5.73-0.66,7.29-1.25c1.25-0.51,1.52-0.86,1.52-2.14V478
		C639.21,477.1,638.94,476.79,638.05,476.79z M634.69,501.22c0,0.23,0,0.31-0.27,0.43c-0.97,0.27-2.22,0.43-3.62,0.43
		c-2.81,0-4.33-1.36-4.33-3.9v-5.07c0-2.77,1.4-4.13,4.48-4.13c1.56,0,2.85,0.31,3.74,0.51V501.22z"/>
	<path class="st3" d="M655.03,484.85c-3.62,0-6,0.55-7.56,1.13c-1.25,0.51-1.52,0.98-1.52,2.22v24.78c0,0.9,0.31,1.21,1.21,1.21
		h2.11c0.9,0,1.21-0.31,1.21-1.21v-7.48c1.05,0.27,2.46,0.7,4.09,0.7c5.88,0,8.65-2.92,8.65-8.14v-5.34
		C663.22,487.74,660.64,484.85,655.03,484.85z M658.7,497.91c0,2.81-1.4,4.17-4.48,4.17c-1.48,0-2.84-0.35-3.74-0.59v-11.57
		c0-0.27,0.04-0.39,0.35-0.51c0.97-0.27,2.11-0.43,3.55-0.43c2.81,0,4.33,1.32,4.33,3.86V497.91z"/>
	<path class="st3" d="M672.8,485.44h-2.11c-0.9,0-1.21,0.27-1.21,1.17v17.81c0,0.9,0.31,1.21,1.21,1.21h2.11
		c0.9,0,1.21-0.31,1.21-1.21v-17.81C674.01,485.71,673.7,485.44,672.8,485.44z"/>
	<path class="st3" d="M671.86,477.88h-0.27c-1.79,0-2.38,0.55-2.38,2.34v0.35c0,1.79,0.59,2.38,2.38,2.38h0.27
		c1.79,0,2.34-0.59,2.34-2.38v-0.35C674.2,478.42,673.66,477.88,671.86,477.88z"/>
	<path class="st3" d="M683.13,500.56h-0.27c-1.87,0-2.49,0.62-2.49,2.49v0.35c0,1.91,0.62,2.49,2.49,2.49h0.27
		c1.91,0,2.49-0.59,2.49-2.49v-0.35C685.62,501.18,685.04,500.56,683.13,500.56z"/>
	<path class="st3" d="M700.31,484.85c-5.77,0-8.96,2.96-8.96,7.79v5.77c0,4.83,3.19,7.79,8.96,7.79c5.85,0,8.96-2.96,8.96-7.79
		v-5.77C709.27,487.82,706.16,484.85,700.31,484.85z M704.75,498.42c0,2.34-1.56,3.7-4.44,3.7c-2.84,0-4.44-1.36-4.44-3.7v-5.77
		c0-2.38,1.6-3.7,4.44-3.7c2.88,0,4.44,1.32,4.44,3.7V498.42z"/>
	<path class="st3" d="M725.44,484.85h-1.25c-3.51,0.08-5.81,0.62-7.25,1.17c-1.25,0.51-1.52,0.97-1.52,2.22v16.17
		c0,0.9,0.31,1.21,1.21,1.21h2.11c0.9,0,1.21-0.31,1.21-1.21v-14.5c0-0.2,0.04-0.39,0.35-0.47c1.05-0.31,2.22-0.47,3.74-0.47h1.4
		c0.9,0,1.21-0.31,1.21-1.21v-1.72C726.65,485.13,726.34,484.85,725.44,484.85z"/>
	<path class="st3" d="M746.33,486.06c-1.36-0.62-3.94-1.21-7.05-1.21c-5.96,0-8.81,2.88-8.81,8.18v4.4c0,4.91,2.53,7.83,8.11,7.83
		c1.87,0,3.51-0.39,4.64-0.7v1.95c0,2.77-1.36,4.21-4.13,4.21c-2.06,0-3.23-0.7-4.05-1.99c-0.59-0.82-1.01-0.94-1.95-0.47
		l-1.48,0.82c-0.9,0.47-1.05,1.09-0.47,1.95c1.36,2.3,3.86,3.74,8.07,3.74c6.12,0,8.53-3.39,8.53-8.5v-18.08
		C747.73,486.96,747.58,486.65,746.33,486.06z M743.21,500.6c-0.94,0.23-2.34,0.55-4.01,0.55c-2.73,0-4.21-1.36-4.21-3.82v-4.13
		c0-2.88,1.44-4.21,4.6-4.21c1.29,0,2.42,0.2,3.31,0.43c0.27,0.12,0.31,0.2,0.31,0.47V500.6z"/>
	<path class="st3" d="M556.99,221.19C597.41,120.36,584.78,56.8,584.78,56.8l-0.1-0.1l17.01-17.26c0.89,0.16,1.8,0.25,2.73,0.24
		c8.13-0.1,14.65-6.77,14.55-14.9c-0.1-8.13-6.77-14.65-14.9-14.55c-8.13,0.1-14.65,6.77-14.55,14.9c0.01,0.85,0.13,1.66,0.28,2.47
		l-17.17,17.43c-3.17-0.51-66.5-10.01-164.07,31.96c32.8,8.13,65.8,26.94,92.99,53.49C528.47,156.79,547.96,188.92,556.99,221.19z"
		/>
	<path class="st3" d="M493.41,138.81c-30.1-29.39-67.53-48.72-103.24-53.49c-52.8,25.2-114.4,65.29-181.19,128.73l0.12-0.79
		c-35.22-14.61-55.16-7.22-55.16-7.22L6.16,352.99l35.96,7.55l106.25-57.02l37.83,25.64l-4.91,25.34
		c12.72,17.38,30.49,32.92,47.7,51.02c16.38,17.22,34.78,33.51,52.08,47.5l26.89-5.26l27.29,38.3l-54.51,107.56l8.4,35.78
		l143.43-151.19c0,0,6.74-19.66-8-53.79c62.05-68.55,100.69-131.3,124.59-184.81C543.31,204.38,523.21,167.92,493.41,138.81z
		 M208.89,214.64l0.05-0.31l0.14,0.13C209.01,214.52,208.95,214.58,208.89,214.64z M453.57,306.1
		c-34.2,35.01-90.31,35.67-125.32,1.48c-35.01-34.2-35.67-90.3-1.47-125.32c34.19-35.01,90.3-35.67,125.32-1.47
		C487.11,214.98,487.77,271.09,453.57,306.1z"/>
	<path class="st3" d="M437.58,290.48c25.52-26.14,25.03-68.17-1.1-93.69c-26.15-25.53-68.17-25.03-93.69,1.1
		c-12.37,12.66-19.06,29.38-18.85,47.07c0.21,17.7,7.3,34.25,19.96,46.62l-3.26,3.35c0,0,0,0,0,0l3.26-3.34
		C370.03,317.11,412.05,316.61,437.58,290.48z"/>
	<path class="st3" d="M334.1,189.4c-14.63,14.98-22.55,34.76-22.31,55.7c0.25,20.94,8.63,40.53,23.61,55.16l0.01,0.01
		c30.92,30.19,80.65,29.6,110.85-1.31c30.21-30.92,29.62-80.66-1.31-110.87C414.02,157.9,364.29,158.49,334.1,189.4z M440.92,293.74
		c-27.37,28.02-72.27,28.55-100.29,1.19l-0.98,1l0.97-1c0,0,0,0-0.01-0.01c-28.02-27.37-28.55-72.28-1.18-100.3
		c27.37-28.02,72.28-28.55,100.3-1.18C467.76,220.81,468.28,265.72,440.92,293.74z"/>
	<path class="st3" d="M189.87,397.25c-4.41-4.44-8.67-8.85-12.69-13.29L42.03,475.91c-4.16,2.83-5.23,8.49-2.41,12.65
		c0.35,0.52,0.74,0.98,1.17,1.4c3.03,2.96,7.83,3.48,11.47,1l136.96-93.17C189.47,397.63,189.65,397.43,189.87,397.25z"/>
	<path class="st3" d="M220.7,428.48c-2.59-2.59-5.16-5.19-7.66-7.83c-1.43-1.5-2.86-2.97-4.3-4.44c-0.96,0.45-1.88,1.05-2.67,1.86
		L71.43,555.93c-3.51,3.6-3.45,9.36,0.15,12.87c0,0,0,0,0,0c3.6,3.51,9.36,3.44,12.87-0.15L219.1,430.8
		C219.78,430.1,220.29,429.31,220.7,428.48z"/>
	<path class="st3" d="M239.77,447.16l-89.92,139.11c-2.39,3.7-1.76,8.48,1.28,11.45c0.43,0.42,0.9,0.8,1.43,1.14
		c4.22,2.73,9.86,1.52,12.59-2.7l88.75-137.3c-4.6-3.89-9.23-7.91-13.83-12.06C239.97,446.93,239.86,447.03,239.77,447.16z"/>
</g>
</svg>
