<?xml version="1.0" encoding="utf-8"?>
<!-- Generator: Adobe Illustrator 23.0.3, SVG Export Plug-In . SVG Version: 6.00 Build 0)  -->
<svg version="1.1" id="Layer_1" xmlns="http://www.w3.org/2000/svg" xmlns:xlink="http://www.w3.org/1999/xlink" x="0px" y="0px"
	 viewBox="0 0 1000 639.64" style="enable-background:new 0 0 1000 639.64;" xml:space="preserve">
<style type="text/css">
	.st0{fill:#1DCAD3;}
	.st1{fill:#36B0C9;}
	.st2{fill:#231F20;}
	.st3{fill:#FFFFFF;}
	.st4{fill:#9164CC;}
	.st5{clip-path:url(#SVGID_2_);fill:url(#SVGID_3_);}
	.st6{fill:#201747;}
	.st7{fill-rule:evenodd;clip-rule:evenodd;fill:#10CFC9;}
	.st8{clip-path:url(#SVGID_5_);fill:#231F20;}
	.st9{fill-rule:evenodd;clip-rule:evenodd;fill:#231F20;}
	.st10{clip-path:url(#SVGID_7_);fill:#FFFFFF;}
	.st11{fill-rule:evenodd;clip-rule:evenodd;fill:#FFFFFF;}
	.st12{fill:#8CCEAF;}
	.st13{fill:#008476;}
	.st14{fill:#25BCBD;}
	.st15{fill:#004D70;}
	.st16{fill:#20BBBB;}
	.st17{fill:#024D70;}
	.st18{fill-rule:evenodd;clip-rule:evenodd;fill:#F58B1F;}
	.st19{fill-rule:evenodd;clip-rule:evenodd;fill:#18335B;}
	.st20{clip-path:url(#SVGID_9_);}
	.st21{clip-path:url(#SVGID_11_);}
	.st22{fill:#18335B;}
	.st23{fill:#F58B1F;}
	.st24{clip-path:url(#SVGID_15_);}
	.st25{clip-path:url(#SVGID_17_);}
	.st26{clip-path:url(#SVGID_21_);}
	.st27{clip-path:url(#SVGID_23_);}
	.st28{clip-path:url(#SVGID_27_);}
	.st29{clip-path:url(#SVGID_29_);}
	.st30{clip-path:url(#SVGID_33_);}
	.st31{clip-path:url(#SVGID_35_);}
	.st32{clip-path:url(#SVGID_39_);}
	.st33{clip-path:url(#SVGID_41_);}
	.st34{fill:#416BA9;}
	.st35{fill:#73C3D5;}
	.st36{opacity:0.8;}
	.st37{fill:#3A3A3A;}
	.st38{fill:url(#SVGID_44_);}
	.st39{fill:none;stroke:#000000;stroke-width:6.3384;}
	.st40{fill:none;stroke:#000000;stroke-width:3.1692;}
	.st41{fill:#48494B;}
	.st42{fill:#C1986C;}
	.st43{fill:url(#SVGID_63_);}
	.st44{fill:url(#SVGID_64_);}
	.st45{fill:url(#SVGID_65_);}
	.st46{fill:url(#SVGID_66_);}
	.st47{fill:url(#SVGID_67_);}
	.st48{fill:#4D4E4E;}
	.st49{fill:#27B373;}
	.st50{fill:#5DC4CD;}
	.st51{fill:#1E8756;}
	.st52{fill:#3D1152;}
	.st53{fill:#922C48;}
	.st54{fill-rule:evenodd;clip-rule:evenodd;fill:#922C48;}
	.st55{fill:#404041;}
	.st56{fill:#EC1C24;}
	.st57{fill:#373A36;}
	.st58{fill:#808184;}
	.st59{fill:#262261;}
	.st60{fill:#6FCBDC;}
	.st61{fill:#2F3436;}
	.st62{fill:#5F97D0;}
	.st63{fill:#132428;}
	.st64{fill:#85C041;}
	.st65{fill:#677784;}
	.st66{fill:url(#SVGID_68_);}
	.st67{opacity:0.2;clip-path:url(#SVGID_70_);}
	.st68{fill:#FFFEFA;}
	.st69{opacity:0.1;}
	.st70{fill:url(#SVGID_71_);}
	.st71{opacity:0.3;}
	.st72{opacity:0.08;}
	.st73{opacity:0.1;fill:url(#Wordmark_1_);}
	.st74{fill:url(#SVGID_104_);}
	.st75{opacity:0.6;fill:url(#SVGID_107_);}
	.st76{opacity:0.4;}
	.st77{fill:url(#SVGID_110_);}
	.st78{opacity:0.6;fill:url(#SVGID_113_);}
	.st79{fill:url(#SVGID_116_);}
	.st80{opacity:0.6;fill:url(#SVGID_119_);}
	.st81{fill:url(#SVGID_122_);}
	.st82{opacity:0.6;fill:url(#SVGID_125_);}
	.st83{fill:url(#SVGID_128_);}
	.st84{opacity:0.6;fill:url(#SVGID_131_);}
	.st85{fill:#221F1F;}
	.st86{fill:none;}
	.st87{fill:#00416B;}
	.st88{opacity:0.8;fill:url(#XMLID_323_);}
	.st89{fill:#4197CB;}
	.st90{fill:#003E52;}
	.st91{fill:#3F96B4;}
	.st92{fill:#B9DBE5;}
	.st93{opacity:0.3;fill:#231F20;}
	.st94{opacity:0.3;fill:#FFFFFF;}
	.st95{fill:#050013;}
	.st96{fill:#E87200;}
	.st97{fill:#FCB813;}
	.st98{fill:#3D3935;}
	.st99{fill:#FFB600;}
	.st100{fill:#FCB814;}
	.st101{fill:#F48120;}
	.st102{fill:#EF4E25;}
	.st103{fill:#ED3024;}
	.st104{fill:#E0592A;}
	.st105{fill:#00ADBB;}
	.st106{fill:#00829B;}
	.st107{fill:#93D500;}
	.st108{fill:#4D5A31;}
	.st109{fill:#6BA43A;}
	.st110{fill:#424143;}
	.st111{fill-rule:evenodd;clip-rule:evenodd;fill:#C7E6B4;}
	.st112{fill-rule:evenodd;clip-rule:evenodd;fill:#5A9891;}
	.st113{fill-rule:evenodd;clip-rule:evenodd;fill:#127870;}
	.st114{fill-rule:evenodd;clip-rule:evenodd;fill:#5CCFD5;}
	.st115{fill-rule:evenodd;clip-rule:evenodd;fill:#ACD5CD;}
	.st116{fill-rule:evenodd;clip-rule:evenodd;fill:#B5ECC9;}
	.st117{fill-rule:evenodd;clip-rule:evenodd;fill:#A1D683;}
	.st118{fill-rule:evenodd;clip-rule:evenodd;fill:#DEF0D3;}
	.st119{fill-rule:evenodd;clip-rule:evenodd;fill:#91B9B4;}
	.st120{fill-rule:evenodd;clip-rule:evenodd;fill:#006860;}
	.st121{fill-rule:evenodd;clip-rule:evenodd;fill:#00ADBB;}
	.st122{fill-rule:evenodd;clip-rule:evenodd;fill:#B4E7E9;}
	.st123{fill-rule:evenodd;clip-rule:evenodd;fill:#007565;}
	.st124{fill-rule:evenodd;clip-rule:evenodd;fill:#00CE7C;}
	.st125{fill-rule:evenodd;clip-rule:evenodd;fill:#5FD896;}
	.st126{fill:#007DA5;}
	.st127{fill:#313032;}
	.st128{fill:#24272A;}
	.st129{fill:#00AFAA;}
	.st130{fill:#66C9BA;}
	.st131{fill:#0069A7;}
	.st132{fill:#002F87;}
	.st133{fill:#8BC53F;}
	.st134{fill:#1A1A1A;}
	.st135{fill:#0095D6;}
	.st136{fill:#003F5F;}
	.st137{fill:#2D317C;}
	.st138{fill:#41BFBF;}
	.st139{fill:#293C97;}
	.st140{fill:#52C2BD;}
	.st141{fill:url(#SVGID_134_);}
	.st142{fill:url(#SVGID_135_);}
	.st143{fill:url(#SVGID_136_);}
	.st144{fill:#0DBEEA;}
	.st145{fill:#097EC2;}
	.st146{fill:#133C63;}
	.st147{fill:#3B91CF;}
	.st148{fill:#C8DEE8;}
	.st149{fill:#629BBA;}
	.st150{fill:#F8BE19;}
	.st151{fill:url(#SVGID_137_);}
	.st152{fill:url(#SVGID_138_);}
	.st153{fill:url(#SVGID_139_);}
	.st154{fill:#00233B;}
	.st155{fill:url(#SVGID_140_);}
	.st156{fill:url(#SVGID_141_);}
	.st157{fill:url(#SVGID_142_);}
	.st158{fill:url(#SVGID_143_);}
	.st159{fill:url(#SVGID_144_);}
	.st160{fill:url(#SVGID_145_);}
	.st161{fill:url(#SVGID_146_);}
	.st162{fill:url(#SVGID_147_);}
	.st163{fill:url(#SVGID_148_);}
	.st164{fill:url(#SVGID_149_);}
	.st165{fill:url(#SVGID_150_);}
	.st166{fill:url(#SVGID_151_);}
	.st167{fill:url(#SVGID_152_);}
	.st168{fill:url(#SVGID_153_);}
	.st169{fill:url(#SVGID_154_);}
	.st170{fill:url(#SVGID_155_);}
	.st171{fill:url(#SVGID_156_);}
	.st172{fill:url(#SVGID_157_);}
	.st173{fill:url(#SVGID_158_);}
	.st174{fill:url(#SVGID_159_);}
	.st175{fill:url(#SVGID_160_);}
	.st176{fill:url(#SVGID_161_);}
	.st177{fill:url(#SVGID_162_);}
	.st178{fill:url(#SVGID_163_);}
	.st179{fill:url(#SVGID_164_);}
	.st180{fill:url(#SVGID_165_);}
	.st181{fill:url(#SVGID_166_);}
	.st182{fill:url(#SVGID_167_);}
	.st183{fill:url(#SVGID_168_);}
	.st184{fill:url(#SVGID_169_);}
	.st185{fill:url(#SVGID_170_);}
	.st186{fill:url(#SVGID_171_);}
	.st187{fill:url(#SVGID_172_);}
	.st188{fill:url(#SVGID_173_);}
	.st189{fill:url(#SVGID_174_);}
	.st190{fill:url(#SVGID_175_);}
	.st191{fill:url(#SVGID_176_);}
	.st192{fill:url(#SVGID_177_);}
	.st193{fill:url(#SVGID_178_);}
	.st194{fill:#C31230;}
	.st195{fill:#807F82;}
	.st196{fill-rule:evenodd;clip-rule:evenodd;fill:#C31230;}
	.st197{fill-rule:evenodd;clip-rule:evenodd;fill:#807F82;}
	.st198{fill:#2D2D2D;}
	.st199{display:none;fill:#2D2D2D;}
	.st200{fill:#D11F3C;}
	.st201{fill:#E42C4C;stroke:#E42C4C;stroke-width:1.0503;stroke-miterlimit:10;}
	.st202{display:none;fill:#231F20;}
	.st203{display:none;fill:#FFFFFF;}
	.st204{fill:#FF7F30;}
	.st205{opacity:0.3;fill:#FF7F30;}
	.st206{opacity:0.6;fill:#FF7F30;}
	.st207{opacity:0.7;fill:#FF7F30;}
	.st208{fill:#221C35;}
	.st209{fill:#1B98D5;}
	.st210{fill:#173963;}
	.st211{fill:#009ADE;}
	.st212{fill:#003764;}
	.st213{fill:#2A7DE1;}
	.st214{opacity:0.4;clip-path:url(#XMLID_324_);fill:#221F1F;}
	.st215{fill:#002A3A;}
	.st216{fill:#0033A1;}
	.st217{fill:url(#SVGID_179_);}
	.st218{fill:url(#SVGID_180_);}
	.st219{fill:url(#SVGID_181_);}
	.st220{fill:url(#SVGID_182_);}
	.st221{fill:#007EC4;}
	.st222{fill-rule:evenodd;clip-rule:evenodd;fill:url(#SVGID_183_);}
	.st223{fill-rule:evenodd;clip-rule:evenodd;fill:#E6E7E8;}
	.st224{fill:#009345;}
	.st225{fill:#BBBCB8;}
	.st226{fill:#72C0EB;}
	.st227{fill:#939598;}
	.st228{fill-rule:evenodd;clip-rule:evenodd;fill:#2CB8EB;}
	.st229{fill:#2CB8EB;}
	.st230{fill:#81B83A;}
	.st231{fill-rule:evenodd;clip-rule:evenodd;fill:#81B83A;}
	.st232{enable-background:new    ;}
	.st233{fill:#FF6F3E;}
	.st234{fill:#12143D;}
	.st235{fill:url(#SVGID_184_);}
	.st236{fill:url(#SVGID_185_);}
	.st237{fill:url(#SVGID_186_);}
	.st238{fill:url(#SVGID_187_);}
	.st239{fill:url(#SVGID_188_);}
	.st240{fill:url(#SVGID_189_);}
	.st241{fill:url(#SVGID_190_);}
	.st242{fill:url(#SVGID_191_);}
	.st243{fill:url(#SVGID_192_);}
	.st244{fill:#7C51A0;}
	.st245{fill:#9F66A9;}
	.st246{fill:#9F80B9;}
	.st247{fill:url(#SVGID_193_);}
	.st248{fill:url(#SVGID_194_);}
	.st249{fill:url(#SVGID_195_);}
	.st250{fill:url(#SVGID_196_);}
	.st251{fill:#2D3136;}
	.st252{fill:#76777A;}
	.st253{fill:#A7A8A9;}
	.st254{fill:#0082CA;}
	.st255{fill:#FFB259;}
	.st256{fill:#385CAD;}
	.st257{fill:#7BA0C4;}
	.st258{fill:#EBA900;}
	.st259{fill:#929497;}
	.st260{opacity:0.7;fill:#FFFFFF;}
	.st261{fill:#016BAF;}
	.st262{fill:#343432;}
	.st263{fill:#6D6E70;}
	.st264{fill:#F4B01B;}
	.st265{fill:#293271;}
	.st266{fill:#A1D33C;}
	.st267{fill:#212322;}
	.st268{fill:#0047BA;}
	.st269{fill:#969CDE;}
	.st270{fill:#047BC1;}
	.st271{fill:url(#SVGID_197_);}
	.st272{fill:url(#SVGID_198_);}
	.st273{fill:url(#SVGID_199_);}
	.st274{fill:url(#SVGID_200_);}
	.st275{fill:url(#SVGID_201_);}
	.st276{fill:url(#SVGID_202_);}
	.st277{fill:url(#SVGID_203_);}
	.st278{fill:#13517C;}
	.st279{fill:#0077A6;}
	.st280{fill:none;stroke:#231F20;stroke-width:5.9036;stroke-miterlimit:10;}
	.st281{fill:#00A94F;}
	.st282{fill:none;stroke:#231F20;stroke-width:3.2172;stroke-miterlimit:10;}
	.st283{fill:#59595C;}
	.st284{opacity:0.349;fill:#F9AE19;}
	.st285{opacity:0.349;fill:#E99F22;}
	.st286{opacity:0.349;fill:#E47D25;}
	.st287{fill:#F9AE19;}
	.st288{fill:#E99F22;}
	.st289{fill:#F09B20;}
	.st290{fill:#E47D25;}
	.st291{fill:#E89223;}
	.st292{opacity:0.651;fill:#F9AE19;}
	.st293{fill:#E68825;}
	.st294{opacity:0.651;fill:#E99F22;}
	.st295{fill:#EB8D23;}
	.st296{opacity:0.7725;fill:#EF9B21;}
	.st297{opacity:0.651;fill:#E47D25;}
	.st298{opacity:0.7725;fill:#EA9622;}
	.st299{fill:url(#SVGID_204_);}
	.st300{fill:#55575B;}
	.st301{fill:#EE424E;}
	.st302{fill:#34424B;}
</style>
<g>
	<g>
		<path class="st2" d="M614.37,266.05c38.92,0,60.61,21.27,60.61,55.51v46.37c0,34.24-21.69,55.51-60.61,55.51
			c-39.13,0-60.83-21.27-60.83-55.51v-46.37C553.54,287.32,575.23,266.05,614.37,266.05z M614.37,290.94
			c-21.69,0-34.03,10.63-34.03,30.41v46.79c0,19.78,12.34,30.41,34.03,30.41c21.91,0,34.03-10.63,34.03-30.41v-46.79
			C648.39,301.57,636.27,290.94,614.37,290.94z"/>
		<path class="st2" d="M814.49,325.39v38.71c0,34.67-22.12,56.15-61.68,56.15h-47.85c-5.32,0-7.23-1.91-7.23-7.23V276.48
			c0-5.32,1.91-7.23,7.23-7.23h47.85C792.38,269.24,814.49,290.73,814.49,325.39z M753.03,294.13h-28.5v101.24h28.5
			c22.33,0,34.88-10.85,34.88-31.05v-39.13C787.91,304.98,775.36,294.13,753.03,294.13z"/>
		<path class="st2" d="M950.82,318.59c0,30.84-19.14,49.13-50.19,49.13h-37.01v45.3c0,5.32-1.7,7.23-7.23,7.23h-12.12
			c-5.32,0-7.23-1.91-7.23-7.23V276.48c0-5.32,1.91-7.23,7.23-7.23h56.36C931.46,269.24,950.82,287.75,950.82,318.59z
			 M923.17,318.59c0-15.31-9.36-24.46-24.88-24.46h-34.45v48.7h34.45C913.81,342.83,923.17,333.9,923.17,318.59z"/>
		<path class="st2" d="M996.75,281.58v1.91c0,9.78-2.98,12.97-12.76,12.97h-1.49c-9.78,0-12.97-3.19-12.97-12.97v-1.91
			c0-9.78,3.19-12.76,12.97-12.76h1.49C993.77,268.82,996.75,271.8,996.75,281.58z M995.68,316.46v97.2c0,4.89-1.7,6.59-6.59,6.59
			h-11.48c-4.89,0-6.59-1.7-6.59-6.59v-97.2c0-4.89,1.7-6.38,6.59-6.38h11.48C993.98,310.08,995.68,311.57,995.68,316.46z"/>
	</g>
	<path class="st2" d="M781.95,529.63H572.85c-5.34,0-9.69-4.35-9.69-9.69v-50.9c0-5.34,4.35-9.69,9.69-9.69h209.09
		c5.34,0,9.69,4.35,9.69,9.69v50.9C791.63,525.29,787.29,529.63,781.95,529.63z M572.85,462.66c-3.52,0-6.38,2.86-6.38,6.38v50.9
		c0,3.52,2.86,6.38,6.38,6.38h209.09c3.52,0,6.38-2.86,6.38-6.38v-50.9c0-3.52-2.86-6.38-6.38-6.38H572.85z"/>
	<g>
		<path class="st2" d="M608.01,485.83c5.88,0,9.02,2.98,9.02,7.84v5.8c0,4.86-3.14,7.84-9.02,7.84c-5.8,0-9.02-2.98-9.02-7.84v-5.8
			C598.99,488.81,602.21,485.83,608.01,485.83z M608.01,489.94c-2.86,0-4.47,1.33-4.47,3.72v5.8c0,2.35,1.61,3.72,4.47,3.72
			c2.9,0,4.47-1.37,4.47-3.72v-5.8C612.48,491.28,610.91,489.94,608.01,489.94z"/>
		<path class="st2" d="M630.86,485.83c1.92,0,3.57,0.31,4.63,0.51v-7.41c0-0.9,0.31-1.21,1.22-1.21h2.16c0.9,0,1.18,0.31,1.18,1.21
			v24.97c0,1.29-0.28,1.65-1.53,2.16c-1.57,0.59-3.76,1.26-7.33,1.26c-5.84,0-8.51-2.9-8.51-7.92v-5.37
			C622.67,488.73,625.41,485.83,630.86,485.83z M631.72,489.98c-3.1,0-4.51,1.37-4.51,4.15v5.1c0,2.55,1.53,3.92,4.35,3.92
			c1.41,0,2.67-0.16,3.65-0.43c0.28-0.12,0.28-0.2,0.28-0.43v-11.8C634.59,490.3,633.29,489.98,631.72,489.98z"/>
		<path class="st2" d="M655.95,485.83c5.64,0,8.23,2.9,8.23,7.92v5.37c0,5.25-2.78,8.19-8.7,8.19c-1.65,0-3.06-0.43-4.12-0.71v7.53
			c0,0.9-0.31,1.22-1.21,1.22h-2.12c-0.9,0-1.21-0.31-1.21-1.22V489.2c0-1.25,0.27-1.73,1.53-2.23
			C649.91,486.38,652.3,485.83,655.95,485.83z M655.28,489.98c-1.45,0-2.59,0.16-3.57,0.43c-0.31,0.12-0.35,0.23-0.35,0.51v11.64
			c0.9,0.24,2.27,0.59,3.76,0.59c3.1,0,4.51-1.37,4.51-4.19v-5.1C659.63,491.31,658.1,489.98,655.28,489.98z"/>
		<path class="st2" d="M675.23,481.16v0.35c0,1.8-0.55,2.39-2.35,2.39h-0.27c-1.8,0-2.39-0.59-2.39-2.39v-0.35
			c0-1.8,0.59-2.35,2.39-2.35h0.27C674.68,478.81,675.23,479.36,675.23,481.16z M675.03,487.59v17.91c0,0.9-0.31,1.21-1.21,1.21
			h-2.12c-0.9,0-1.21-0.31-1.21-1.21v-17.91c0-0.9,0.31-1.18,1.21-1.18h2.12C674.72,486.42,675.03,486.69,675.03,487.59z"/>
		<path class="st2" d="M686.71,504.13v0.35c0,1.92-0.59,2.51-2.51,2.51h-0.28c-1.88,0-2.51-0.59-2.51-2.51v-0.35
			c0-1.88,0.63-2.51,2.51-2.51h0.28C686.13,501.63,686.71,502.25,686.71,504.13z"/>
		<path class="st2" d="M701.49,485.83c5.88,0,9.02,2.98,9.02,7.84v5.8c0,4.86-3.14,7.84-9.02,7.84c-5.8,0-9.02-2.98-9.02-7.84v-5.8
			C692.48,488.81,695.69,485.83,701.49,485.83z M701.49,489.94c-2.86,0-4.47,1.33-4.47,3.72v5.8c0,2.35,1.61,3.72,4.47,3.72
			c2.9,0,4.47-1.37,4.47-3.72v-5.8C705.96,491.28,704.39,489.94,701.49,489.94z"/>
		<path class="st2" d="M726.77,485.83c0.9,0,1.22,0.28,1.22,1.22v1.73c0,0.9-0.31,1.21-1.22,1.21h-1.41c-1.53,0-2.7,0.16-3.76,0.47
			c-0.31,0.08-0.35,0.27-0.35,0.47v14.58c0,0.9-0.31,1.21-1.21,1.21h-2.12c-0.9,0-1.21-0.31-1.21-1.21v-16.27
			c0-1.26,0.27-1.73,1.53-2.23c1.45-0.55,3.76-1.1,7.29-1.18H726.77z"/>
		<path class="st2" d="M740.69,485.83c3.14,0,5.72,0.59,7.1,1.22c1.25,0.59,1.41,0.9,1.41,2.16v18.19c0,5.14-2.43,8.55-8.58,8.55
			c-4.23,0-6.74-1.45-8.11-3.76c-0.59-0.86-0.43-1.49,0.47-1.96l1.49-0.82c0.94-0.47,1.37-0.35,1.96,0.47c0.82,1.29,2,2,4.08,2
			c2.78,0,4.16-1.45,4.16-4.23v-1.96c-1.14,0.31-2.78,0.7-4.67,0.7c-5.6,0-8.15-2.94-8.15-7.88v-4.43
			C731.83,488.73,734.69,485.83,740.69,485.83z M741,489.98c-3.18,0-4.62,1.33-4.62,4.23v4.15c0,2.47,1.49,3.84,4.23,3.84
			c1.69,0,3.1-0.31,4.04-0.55v-10.78c0-0.27-0.04-0.35-0.31-0.47C743.43,490.18,742.29,489.98,741,489.98z"/>
	</g>
	<g>
		<path class="st2" d="M408.01,75.57c33,8.17,66.18,27.1,93.54,53.81c27.1,26.46,46.7,58.78,55.78,91.23
			c40.66-101.42,27.96-165.35,27.96-165.35l-0.1-0.1l17.11-17.36c0.89,0.16,1.81,0.26,2.75,0.24c8.18-0.1,14.73-6.81,14.64-14.99
			c-0.1-8.18-6.81-14.73-14.99-14.64c-8.18,0.1-14.73,6.81-14.64,14.99c0.01,0.85,0.13,1.67,0.28,2.49l-17.28,17.53
			C569.86,42.9,506.16,33.34,408.01,75.57z"/>
		<path class="st2" d="M432.19,479.15c0,0,6.78-19.77-8.05-54.1c62.42-68.95,101.28-132.07,125.32-185.9
			c-5.9-35.45-26.11-72.12-56.1-101.4c-30.28-29.56-67.93-49.01-103.85-53.8c-53.11,25.35-115.07,65.67-182.26,129.49l0.12-0.8
			c-35.43-14.69-55.49-7.26-55.49-7.26L3.25,353.18l36.18,7.6l106.88-57.36l38.06,25.79l-4.94,25.49
			c12.8,17.49,30.67,33.12,47.98,51.32c16.48,17.32,34.99,33.71,52.39,47.78l27.05-5.29l27.45,38.52l-54.83,108.19l8.45,35.99
			L432.19,479.15z M207.17,214.02l0.05-0.31l0.14,0.14C207.3,213.9,207.23,213.96,207.17,214.02z"/>
		<path class="st3" d="M453.3,306.02c-34.4,35.22-90.84,35.88-126.06,1.49c-35.22-34.4-35.88-90.84-1.48-126.06
			c34.39-35.21,90.84-35.88,126.05-1.48C487.03,214.36,487.69,270.81,453.3,306.02z"/>
		<path class="st60" d="M440.57,293.58c-27.53,28.19-72.71,28.72-100.89,1.19c-28.19-27.53-28.72-72.7-1.18-100.89
			c27.53-28.18,72.7-28.72,100.89-1.19C467.57,220.23,468.1,265.4,440.57,293.58z"/>
		<path class="st2" d="M334.44,300.16L334.44,300.16c-15.08-14.73-23.51-34.43-23.76-55.49c-0.25-21.06,7.72-40.96,22.44-56.03
			c30.37-31.1,80.39-31.69,111.5-1.32c31.12,30.39,31.71,80.42,1.32,111.52C415.56,329.94,365.54,330.53,334.44,300.16z
			 M436.1,196.06c-26.3-25.68-68.57-25.18-94.25,1.11c-12.44,12.74-19.17,29.55-18.97,47.35c0.21,17.8,7.34,34.45,20.07,46.89
			l-4.26,4.38l4.27-4.37c26.29,25.67,68.56,25.17,94.24-1.12C462.88,264.01,462.39,221.74,436.1,196.06z"/>
		<path class="st60" d="M175.28,384.34L39.33,476.83c-4.18,2.84-5.26,8.54-2.42,12.72c0.35,0.52,0.75,0.99,1.18,1.41
			c3.05,2.98,7.88,3.5,11.54,1.01l137.77-93.72c0.24-0.16,0.43-0.36,0.64-0.54C183.61,393.24,179.33,388.81,175.28,384.34z"/>
		<path class="st60" d="M211.34,421.25c-1.44-1.51-2.88-2.98-4.32-4.46c-0.97,0.45-1.89,1.06-2.68,1.87L68.9,557.32
			c-3.53,3.62-3.47,9.41,0.15,12.95c0,0,0,0,0,0c3.62,3.53,9.42,3.46,12.95-0.15l135.44-138.66c0.69-0.7,1.19-1.5,1.61-2.34
			C216.45,426.52,213.87,423.9,211.34,421.25z"/>
		<path class="st60" d="M252.44,459.68c-4.63-3.92-9.28-7.96-13.91-12.13c-0.09,0.13-0.2,0.23-0.29,0.36l-90.45,139.93
			c-2.41,3.72-1.77,8.53,1.28,11.52c0.43,0.42,0.91,0.81,1.43,1.15c4.25,2.74,9.92,1.53,12.66-2.72L252.44,459.68z"/>
	</g>
</g>
</svg>
